<?xml version="1.0" encoding="utf-8" standalone="no"?>
<!DOCTYPE svg PUBLIC "-//W3C//DTD SVG 1.1//EN"
  "http://www.w3.org/Graphics/SVG/1.1/DTD/svg11.dtd">
<svg xmlns:xlink="http://www.w3.org/1999/xlink" width="712.8pt" height="425.100086pt" viewBox="0 0 712.8 425.100086" xmlns="http://www.w3.org/2000/svg" version="1.1">
 <metadata>
  <rdf:RDF xmlns:dc="http://purl.org/dc/elements/1.1/" xmlns:cc="http://creativecommons.org/ns#" xmlns:rdf="http://www.w3.org/1999/02/22-rdf-syntax-ns#">
   <cc:Work>
    <dc:type rdf:resource="http://purl.org/dc/dcmitype/StillImage"/>
    <dc:date>2024-07-28T12:34:40.986576</dc:date>
    <dc:format>image/svg+xml</dc:format>
    <dc:creator>
     <cc:Agent>
      <dc:title>Matplotlib v3.5.3, https://matplotlib.org/</dc:title>
     </cc:Agent>
    </dc:creator>
   </cc:Work>
  </rdf:RDF>
 </metadata>
 <defs>
  <style type="text/css">*{stroke-linejoin: round; stroke-linecap: butt}</style>
 </defs>
 <g id="figure_1">
  <g id="patch_1">
   <path d="M 0 425.100086 
L 712.8 425.100086 
L 712.8 0 
L 0 0 
z
" style="fill: #ffffff"/>
  </g>
  <g id="axes_1">
   <g id="patch_2">
    <path d="M 7.2 190.63251 
L 351 190.63251 
L 351 7.2 
L 7.2 7.2 
z
" style="fill: #eaeaf2"/>
   </g>
   <g id="matplotlib.axis_1"/>
   <g id="matplotlib.axis_2"/>
   <g id="patch_3">
    <path d="M -1.817705 198.651417 
L 370.162623 198.651417 
L 370.162623 -1.821271 
L -1.817705 -1.821271 
z
" clip-path="url(#pc17cdf8661)" style="fill: #0000ff; opacity: 0.1"/>
   </g>
   <g id="patch_4">
    <path d="M 9.454426 28.249632 
L 10.668266 29.234611 
L 12.084992 30.15282 
L 13.690394 31.008935 
L 15.470265 31.807632 
L 17.410395 32.553587 
L 19.496574 33.251476 
L 21.714595 33.905977 
L 24.050247 34.521764 
L 26.489323 35.103515 
L 29.017612 35.655905 
L 31.620907 36.18361 
L 34.284998 36.691308 
L 36.995675 37.183673 
L 39.738731 37.665383 
L 42.499955 38.141114 
L 45.26514 38.615541 
L 48.020076 39.093341 
L 50.750553 39.57919 
L 53.442364 40.077765 
L 56.081299 40.593741 
L 58.653149 41.131795 
L 61.143705 41.696604 
L 63.538758 42.292842 
L 65.824099 42.925187 
L 67.985519 43.598315 
L 70.008809 44.316902 
L 71.879761 45.085624 
L 73.584164 45.909157 
L 75.107811 46.792178 
L 76.436491 47.739362 
L 77.556331 48.755291 
L 78.463701 49.841604 
L 79.166871 50.996523 
L 79.674779 52.218082 
L 79.996365 53.504311 
L 80.140568 54.853244 
L 80.116325 56.26291 
L 79.932576 57.731343 
L 79.598259 59.256574 
L 79.122314 60.836635 
L 78.513678 62.469557 
L 77.781291 64.153373 
L 76.934091 65.886114 
L 75.981017 67.665812 
L 74.931008 69.490499 
L 73.793002 71.358207 
L 72.575939 73.266967 
L 71.288756 75.214812 
L 69.940393 77.199772 
L 68.539788 79.219881 
L 67.095881 81.273169 
L 65.617609 83.357668 
L 64.113911 85.471411 
L 62.593727 87.612429 
L 61.065995 89.778754 
L 59.539653 91.968417 
L 58.023641 94.179451 
L 56.526897 96.409887 
L 55.05836 98.657757 
L 53.626968 100.921094 
L 52.241661 103.197927 
L 50.911376 105.486291 
L 49.645054 107.784215 
L 48.451631 110.089733 
L 47.340048 112.400876 
L 46.319243 114.715675 
L 45.398154 117.032163 
L 44.585721 119.348371 
L 43.890881 121.662331 
L 43.322575 123.972075 
L 42.88974 126.275635 
L 42.601315 128.571042 
L 42.466239 130.856329 
L 42.49345 133.129527 
L 42.691888 135.388667 
L 43.070491 137.631783 
L 43.637403 139.856676 
L 44.389173 142.057821 
L 45.313577 144.227172 
L 46.398174 146.356618 
L 47.630521 148.438052 
L 48.998178 150.463364 
L 50.488703 152.424446 
L 52.089655 154.313188 
L 53.788592 156.121483 
L 55.573073 157.84122 
L 57.430655 159.464292 
L 59.348899 160.982588 
L 61.315363 162.388001 
L 63.317604 163.672422 
L 65.343182 164.827741 
L 67.379655 165.84585 
L 69.414581 166.718639 
L 71.43552 167.438001 
L 73.430029 167.995826 
L 75.385668 168.384004 
L 77.289997 168.594432 
L 79.133657 168.622074 
L 80.916224 168.470819 
L 82.638886 168.146164 
L 84.302832 167.653605 
L 85.90925 166.99864 
L 87.459328 166.186767 
L 88.954256 165.223481 
L 90.395222 164.11428 
L 91.783413 162.864661 
L 93.12002 161.480121 
L 94.40623 159.966157 
L 95.643232 158.328267 
L 96.832214 156.571946 
L 97.974365 154.702693 
L 99.070873 152.726004 
L 100.122927 150.647376 
L 101.131715 148.472307 
L 102.098426 146.206293 
L 103.024249 143.854832 
L 103.910371 141.42342 
L 104.757982 138.917555 
L 105.56827 136.342733 
L 106.342423 133.704452 
L 107.08163 131.008208 
L 107.78708 128.259499 
L 108.45996 125.463822 
L 109.10146 122.626674 
L 109.712768 119.753552 
L 110.295073 116.849952 
L 110.849562 113.921373 
L 111.377425 110.97331 
L 111.87985 108.011262 
L 112.358025 105.040724 
L 112.81314 102.067195 
L 113.246382 99.096171 
L 113.65894 96.133149 
L 114.052002 93.183626 
L 114.426758 90.253099 
L 114.784395 87.347066 
L 115.126102 84.471024 
L 115.453068 81.630468 
L 115.766481 78.830897 
L 116.06753 76.077808 
L 116.357403 73.376697 
L 116.637288 70.733062 
L 116.908375 68.1524 
L 117.171851 65.640207 
L 117.428905 63.201981 
L 117.680726 60.843219 
L 117.928502 58.569417 
L 118.173422 56.386073 
L 118.416675 54.298685 
L 118.659448 52.312748 
L 118.90293 50.43376 
L 119.14831 48.667219 
L 119.396776 47.01862 
L 119.649517 45.493462 
L 119.907721 44.09724 
L 120.172577 42.835453 
L 120.445273 41.713597 
L 120.726998 40.73717 
L 121.018941 39.911668 
L 121.322289 39.242588 
L 121.638232 38.735428 
L 121.967957 38.395684 
L 122.312644 38.228748 
L 122.673082 38.235679 
L 123.049543 38.411792 
L 123.442261 38.752001 
L 123.851474 39.251222 
L 124.277416 39.904372 
L 124.720323 40.706365 
L 125.180432 41.652119 
L 125.657977 42.736549 
L 126.153195 43.95457 
L 126.666321 45.3011 
L 127.197592 46.771053 
L 127.747242 48.359345 
L 128.315508 50.060893 
L 128.902626 51.870612 
L 129.508831 53.783418 
L 130.134359 55.794227 
L 130.779445 57.897955 
L 131.444326 60.089518 
L 132.129237 62.363832 
L 132.834414 64.715812 
L 133.560093 67.140375 
L 134.306509 69.632436 
L 135.073899 72.186911 
L 135.862497 74.798716 
L 136.672541 77.462768 
L 137.504265 80.173981 
L 138.357905 82.927272 
L 139.233697 85.717557 
L 140.131877 88.539751 
L 141.052681 91.388771 
L 141.996343 94.259532 
L 142.963102 97.14695 
L 143.95319 100.045941 
L 144.966846 102.951421 
L 146.004304 105.858306 
L 147.0658 108.761512 
L 148.151569 111.655955 
L 149.261849 114.53655 
L 150.396874 117.398213 
L 151.55688 120.235861 
L 152.742102 123.044408 
L 153.952778 125.818772 
L 155.189142 128.553868 
L 156.45143 131.244612 
L 157.739878 133.885919 
L 159.054722 136.472706 
L 160.396197 138.999888 
L 161.76454 141.462382 
L 163.159985 143.855103 
L 164.582769 146.172968 
L 166.033128 148.410891 
L 167.511297 150.563789 
L 169.017512 152.626578 
L 170.552009 154.594173 
L 172.115023 156.461492 
L 173.70679 158.223448 
L 175.327547 159.874959 
L 176.977528 161.41094 
L 178.65697 162.826308 
L 180.366108 164.115977 
L 182.105179 165.274864 
L 183.874417 166.297885 
L 185.674059 167.179956 
L 187.50434 167.915992 
L 189.365496 168.50091 
L 191.257763 168.929624 
L 193.181377 169.197052 
L 195.136573 169.29811 
L 197.123587 169.227712 
L 199.142655 168.980775 
L 201.194012 168.552215 
L 203.275893 167.939949 
L 205.379732 167.152084 
L 207.495525 166.198884 
L 209.613268 165.090616 
L 211.722956 163.837544 
L 213.814584 162.449934 
L 215.878147 160.938051 
L 217.903641 159.312162 
L 219.881061 157.582532 
L 221.800402 155.759425 
L 223.651659 153.853109 
L 225.424828 151.873847 
L 227.109904 149.831907 
L 228.696882 147.737552 
L 230.175758 145.601049 
L 231.536526 143.432664 
L 232.769183 141.242661 
L 233.863722 139.041307 
L 234.810141 136.838866 
L 235.598433 134.645605 
L 236.218594 132.471788 
L 236.66062 130.327682 
L 236.914505 128.223551 
L 236.970245 126.169663 
L 236.817835 124.17628 
L 236.447271 122.253671 
L 235.848548 120.412099 
L 235.01166 118.661831 
L 233.930261 117.011018 
L 232.618882 115.455747 
L 231.099454 113.987829 
L 229.393917 112.599069 
L 227.524211 111.281273 
L 225.512274 110.026247 
L 223.380047 108.825796 
L 221.149469 107.671725 
L 218.842479 106.555842 
L 216.481018 105.46995 
L 214.087025 104.405856 
L 211.682438 103.355366 
L 209.289199 102.310285 
L 206.929247 101.262419 
L 204.62452 100.203573 
L 202.396959 99.125554 
L 200.268503 98.020166 
L 198.261092 96.879216 
L 196.396665 95.694509 
L 194.697162 94.457851 
L 193.184523 93.161047 
L 191.880686 91.795904 
L 190.807592 90.354226 
L 189.987181 88.827819 
L 189.4391 87.209718 
L 189.161278 85.504605 
L 189.139652 83.723592 
L 189.360035 81.877858 
L 189.808237 79.978583 
L 190.470073 78.036945 
L 191.331352 76.064125 
L 192.377888 74.071302 
L 193.595493 72.069655 
L 194.969978 70.070363 
L 196.487156 68.084606 
L 198.132839 66.123564 
L 199.892838 64.198415 
L 201.752967 62.320339 
L 203.699036 60.500515 
L 205.716859 58.750123 
L 207.792246 57.080342 
L 209.911011 55.502351 
L 212.058965 54.02733 
L 214.22192 52.666458 
L 216.385688 51.430915 
L 218.536082 50.33188 
L 220.658913 49.380532 
L 222.739994 48.588051 
L 224.765607 47.965145 
L 226.730082 47.514473 
L 228.63451 47.231931 
L 230.480191 47.113205 
L 232.268425 47.15398 
L 234.000513 47.349945 
L 235.677755 47.696784 
L 237.30145 48.190184 
L 238.872899 48.825831 
L 240.393402 49.599411 
L 241.864259 50.506612 
L 243.28677 51.543118 
L 244.662236 52.704617 
L 245.991957 53.986795 
L 247.277233 55.385337 
L 248.519363 56.89593 
L 249.719649 58.514261 
L 250.87939 60.236015 
L 251.999886 62.05688 
L 253.082438 63.97254 
L 254.128345 65.978683 
L 255.138909 68.070995 
L 256.115428 70.245161 
L 257.059204 72.496869 
L 257.971536 74.821804 
L 258.853725 77.215653 
L 259.70707 79.674103 
L 260.532872 82.192838 
L 261.332431 84.767546 
L 262.107047 87.393913 
L 262.85802 90.067625 
L 263.586651 92.784368 
L 264.29424 95.539829 
L 264.982086 98.329693 
L 265.65149 101.149648 
L 266.303752 103.99538 
L 266.940172 106.862574 
L 267.562051 109.746917 
L 268.170688 112.644095 
L 268.767384 115.549794 
L 269.353438 118.459702 
L 269.930152 121.369503 
L 270.498825 124.274885 
L 271.060757 127.171533 
L 271.617248 130.055134 
L 272.169599 132.921374 
L 272.71911 135.76594 
L 273.267081 138.584517 
L 273.814812 141.372792 
L 274.363603 144.126451 
L 274.914754 146.84118 
L 275.469566 149.512667 
L 276.029338 152.136596 
L 276.595372 154.708654 
L 277.168966 157.224528 
L 277.751422 159.679903 
L 278.344038 162.070467 
L 278.948117 164.391905 
L 279.564956 166.639903 
L 280.195858 168.810148 
L 280.842121 170.898326 
L 281.505047 172.900124 
L 282.185935 174.811227 
L 282.886085 176.627322 
L 283.606797 178.344095 
L 284.349373 179.957232 
L 285.115111 181.46242 
L 285.905312 182.855345 
L 286.721276 184.131694 
L 287.564304 185.287151 
L 288.435695 186.317405 
L 289.33675 187.21814 
L 290.268768 187.985044 
L 291.23305 188.613802 
L 292.230428 189.101238 
L 293.259714 189.449084 
L 294.319173 189.660392 
L 295.407074 189.738215 
L 296.521683 189.685608 
L 297.661267 189.505624 
L 298.824094 189.201315 
L 300.00843 188.775735 
L 301.212542 188.231938 
L 302.434697 187.572977 
L 303.673163 186.801905 
L 304.926206 185.921776 
L 306.192093 184.935643 
L 307.469092 183.84656 
L 308.755469 182.657579 
L 310.04949 181.371754 
L 311.349425 179.992139 
L 312.653538 178.521786 
L 313.960098 176.96375 
L 315.267371 175.321083 
L 316.573624 173.596839 
L 317.877124 171.794072 
L 319.176139 169.915834 
L 320.468935 167.965179 
L 321.753779 165.945161 
L 323.028939 163.858832 
L 324.29268 161.709246 
L 325.543271 159.499457 
L 326.778978 157.232518 
L 327.998069 154.911482 
L 329.198809 152.539402 
L 330.379467 150.119333 
L 331.538309 147.654326 
L 332.673602 145.147436 
L 333.783614 142.601717 
L 334.86661 140.02022 
L 335.920859 137.406001 
L 336.944627 134.762111 
L 337.936181 132.091605 
L 338.893789 129.397536 
L 339.815717 126.682957 
L 340.700232 123.950921 
L 341.545601 121.204482 
L 342.350091 118.446694 
L 343.11197 115.680609 
L 343.829503 112.909281 
L 344.500959 110.135764 
L 345.124604 107.36311 
L 345.698706 104.594373 
L 346.22153 101.832607 
L 346.691345 99.080865 
L 347.106417 96.3422 
L 347.465013 93.619665 
L 347.7654 90.916314 
L 348.005846 88.2352 
L 348.184617 85.579377 
L 348.299979 82.951898 
L 348.350201 80.355817 
L 348.33355 77.794186 
L 348.248291 75.270059 
L 348.092693 72.786489 
L 347.865021 70.346531 
L 347.563547 67.953234 
L 347.18731 65.608821 
L 346.737261 63.313469 
L 346.214633 61.067048 
L 345.620665 58.869427 
L 344.956592 56.720474 
L 344.223649 54.620059 
L 343.423074 52.56805 
L 342.556102 50.564316 
L 341.623969 48.608727 
L 340.627912 46.70115 
L 339.569167 44.841455 
L 338.44897 43.029511 
L 337.268557 41.265187 
L 336.029164 39.548351 
L 334.732027 37.878873 
L 333.378383 36.256621 
L 331.969468 34.681464 
L 330.506517 33.153272 
L 328.990767 31.671913 
L 327.423455 30.237255 
L 325.805815 28.849169 
L 324.139085 27.507522 
L 322.4245 26.212184 
L 320.663297 24.963024 
L 318.856712 23.75991 
L 317.005981 22.602712 
L 315.11234 21.491298 
L 313.177025 20.425536 
L 311.201272 19.405298 
L 309.186318 18.43045 
L 307.133399 17.500861 
L 305.04375 16.616402 
L 302.918608 15.77694 
L 300.75921 14.982345 
L 298.56679 14.232486 
L 296.342587 13.527231 
L 294.087834 12.866449 
L 291.803769 12.250009 
L 289.491629 11.67778 
L 287.152648 11.149631 
L 284.788063 10.665432 
L 282.39911 10.225049 
L 279.987026 9.828354 
L 277.553047 9.475214 
L 275.098408 9.165499 
L 272.624346 8.899077 
L 270.132097 8.675817 
L 267.622897 8.495588 
L 265.097982 8.35826 
L 262.558589 8.2637 
L 260.005953 8.211778 
L 257.441311 8.202363 
z
" clip-path="url(#pc17cdf8661)" style="fill: #ff0000; opacity: 0.2; stroke: #ff0000; stroke-width: 0.3; stroke-linejoin: miter"/>
   </g>
   <g id="patch_5">
    <path d="M 7.2 190.63251 
L 7.2 7.2 
" style="fill: none"/>
   </g>
   <g id="patch_6">
    <path d="M 351 190.63251 
L 351 7.2 
" style="fill: none"/>
   </g>
   <g id="patch_7">
    <path d="M 7.2 190.63251 
L 351 190.63251 
" style="fill: none"/>
   </g>
   <g id="patch_8">
    <path d="M 7.2 7.2 
L 351 7.2 
" style="fill: none"/>
   </g>
   <g id="text_1">
    <!-- (a) Select an instance. -->
    <g style="fill: #262626" transform="translate(119.405625 204.810086)scale(0.12 -0.12)">
     <defs>
      <path id="LiberationSans-28" d="M 397 1663 
Q 397 2097 462 2494 
Q 528 2891 668 3256 
Q 809 3622 1028 3965 
Q 1247 4309 1550 4638 
L 2094 4638 
Q 1800 4309 1586 3964 
Q 1372 3619 1234 3251 
Q 1097 2884 1030 2487 
Q 963 2091 963 1656 
Q 963 1222 1030 825 
Q 1097 428 1234 59 
Q 1372 -309 1586 -653 
Q 1800 -997 2094 -1325 
L 1550 -1325 
Q 1247 -997 1028 -653 
Q 809 -309 668 56 
Q 528 422 462 817 
Q 397 1213 397 1650 
L 397 1663 
z
" transform="scale(0.015625)"/>
      <path id="LiberationSans-61" d="M 1294 -63 
Q 784 -63 528 206 
Q 272 475 272 944 
Q 272 1278 398 1492 
Q 525 1706 729 1828 
Q 934 1950 1196 1997 
Q 1459 2044 1731 2050 
L 2491 2063 
L 2491 2247 
Q 2491 2456 2447 2603 
Q 2403 2750 2312 2840 
Q 2222 2931 2086 2973 
Q 1950 3016 1766 3016 
Q 1603 3016 1472 2992 
Q 1341 2969 1244 2908 
Q 1147 2847 1087 2742 
Q 1028 2638 1009 2478 
L 422 2531 
Q 453 2731 540 2898 
Q 628 3066 789 3187 
Q 950 3309 1192 3376 
Q 1434 3444 1778 3444 
Q 2416 3444 2737 3151 
Q 3059 2859 3059 2306 
L 3059 850 
Q 3059 600 3125 473 
Q 3191 347 3375 347 
Q 3422 347 3469 353 
Q 3516 359 3559 369 
L 3559 19 
Q 3453 -6 3348 -18 
Q 3244 -31 3125 -31 
Q 2966 -31 2852 11 
Q 2738 53 2666 139 
Q 2594 225 2556 351 
Q 2519 478 2509 647 
L 2491 647 
Q 2400 484 2292 353 
Q 2184 222 2040 130 
Q 1897 38 1714 -12 
Q 1531 -63 1294 -63 
z
M 1422 359 
Q 1691 359 1892 457 
Q 2094 556 2226 709 
Q 2359 863 2425 1044 
Q 2491 1225 2491 1391 
L 2491 1669 
L 1875 1656 
Q 1669 1653 1483 1626 
Q 1297 1600 1156 1522 
Q 1016 1444 933 1303 
Q 850 1163 850 934 
Q 850 659 998 509 
Q 1147 359 1422 359 
z
" transform="scale(0.015625)"/>
      <path id="LiberationSans-29" d="M 1734 1650 
Q 1734 1213 1668 817 
Q 1603 422 1462 56 
Q 1322 -309 1103 -653 
Q 884 -997 581 -1325 
L 38 -1325 
Q 331 -997 545 -653 
Q 759 -309 896 59 
Q 1034 428 1101 825 
Q 1169 1222 1169 1656 
Q 1169 2091 1101 2487 
Q 1034 2884 896 3251 
Q 759 3619 545 3964 
Q 331 4309 38 4638 
L 581 4638 
Q 884 4309 1103 3965 
Q 1322 3622 1462 3256 
Q 1603 2891 1668 2494 
Q 1734 2097 1734 1663 
L 1734 1650 
z
" transform="scale(0.015625)"/>
      <path id="LiberationSans-20" transform="scale(0.015625)"/>
      <path id="LiberationSans-53" d="M 3975 1216 
Q 3975 938 3867 703 
Q 3759 469 3534 298 
Q 3309 128 2967 32 
Q 2625 -63 2156 -63 
Q 1334 -63 875 225 
Q 416 513 291 1056 
L 869 1172 
Q 913 1000 1003 859 
Q 1094 719 1248 617 
Q 1403 516 1631 459 
Q 1859 403 2178 403 
Q 2444 403 2666 448 
Q 2888 494 3047 587 
Q 3206 681 3295 829 
Q 3384 978 3384 1184 
Q 3384 1400 3286 1534 
Q 3188 1669 3009 1756 
Q 2831 1844 2584 1903 
Q 2338 1963 2038 2031 
Q 1853 2072 1667 2120 
Q 1481 2169 1311 2236 
Q 1141 2303 991 2393 
Q 841 2484 731 2611 
Q 622 2738 559 2905 
Q 497 3072 497 3291 
Q 497 3603 623 3826 
Q 750 4050 975 4194 
Q 1200 4338 1506 4403 
Q 1813 4469 2169 4469 
Q 2578 4469 2868 4405 
Q 3159 4341 3359 4212 
Q 3559 4084 3679 3895 
Q 3800 3706 3872 3456 
L 3284 3353 
Q 3241 3513 3158 3638 
Q 3075 3763 2940 3847 
Q 2806 3931 2614 3975 
Q 2422 4019 2163 4019 
Q 1856 4019 1648 3964 
Q 1441 3909 1314 3815 
Q 1188 3722 1133 3595 
Q 1078 3469 1078 3322 
Q 1078 3125 1176 2998 
Q 1275 2872 1444 2787 
Q 1613 2703 1834 2647 
Q 2056 2591 2306 2534 
Q 2509 2488 2711 2439 
Q 2913 2391 3097 2323 
Q 3281 2256 3442 2165 
Q 3603 2075 3722 1944 
Q 3841 1813 3908 1634 
Q 3975 1456 3975 1216 
z
" transform="scale(0.015625)"/>
      <path id="LiberationSans-65" d="M 863 1572 
Q 863 1306 917 1082 
Q 972 859 1086 698 
Q 1200 538 1378 448 
Q 1556 359 1806 359 
Q 2172 359 2392 506 
Q 2613 653 2691 878 
L 3184 738 
Q 3131 597 3036 455 
Q 2941 313 2781 198 
Q 2622 84 2383 10 
Q 2144 -63 1806 -63 
Q 1056 -63 664 384 
Q 272 831 272 1713 
Q 272 2188 390 2517 
Q 509 2847 715 3053 
Q 922 3259 1197 3351 
Q 1472 3444 1784 3444 
Q 2209 3444 2495 3306 
Q 2781 3169 2954 2926 
Q 3128 2684 3201 2356 
Q 3275 2028 3275 1647 
L 3275 1572 
L 863 1572 
z
M 2694 2003 
Q 2647 2538 2422 2783 
Q 2197 3028 1775 3028 
Q 1634 3028 1479 2983 
Q 1325 2938 1194 2822 
Q 1063 2706 972 2507 
Q 881 2309 869 2003 
L 2694 2003 
z
" transform="scale(0.015625)"/>
      <path id="LiberationSans-6c" d="M 431 0 
L 431 4638 
L 994 4638 
L 994 0 
L 431 0 
z
" transform="scale(0.015625)"/>
      <path id="LiberationSans-63" d="M 859 1706 
Q 859 1416 901 1172 
Q 944 928 1044 751 
Q 1144 575 1308 478 
Q 1472 381 1713 381 
Q 2013 381 2214 543 
Q 2416 706 2463 1044 
L 3031 1006 
Q 3003 797 2909 603 
Q 2816 409 2655 262 
Q 2494 116 2262 26 
Q 2031 -63 1728 -63 
Q 1331 -63 1053 71 
Q 775 206 601 442 
Q 428 678 350 998 
Q 272 1319 272 1694 
Q 272 2034 328 2295 
Q 384 2556 486 2751 
Q 588 2947 725 3080 
Q 863 3213 1023 3292 
Q 1184 3372 1362 3408 
Q 1541 3444 1722 3444 
Q 2006 3444 2228 3366 
Q 2450 3288 2611 3152 
Q 2772 3016 2872 2831 
Q 2972 2647 3013 2434 
L 2434 2391 
Q 2391 2672 2212 2837 
Q 2034 3003 1706 3003 
Q 1466 3003 1305 2923 
Q 1144 2844 1044 2683 
Q 944 2522 901 2278 
Q 859 2034 859 1706 
z
" transform="scale(0.015625)"/>
      <path id="LiberationSans-74" d="M 1731 25 
Q 1603 -9 1470 -29 
Q 1338 -50 1163 -50 
Q 488 -50 488 716 
L 488 2972 
L 97 2972 
L 97 3381 
L 509 3381 
L 675 4138 
L 1050 4138 
L 1050 3381 
L 1675 3381 
L 1675 2972 
L 1050 2972 
L 1050 838 
Q 1050 594 1129 495 
Q 1209 397 1406 397 
Q 1488 397 1564 409 
Q 1641 422 1731 441 
L 1731 25 
z
" transform="scale(0.015625)"/>
      <path id="LiberationSans-6e" d="M 2578 0 
L 2578 2144 
Q 2578 2391 2542 2556 
Q 2506 2722 2425 2823 
Q 2344 2925 2211 2967 
Q 2078 3009 1881 3009 
Q 1681 3009 1520 2939 
Q 1359 2869 1245 2736 
Q 1131 2603 1068 2408 
Q 1006 2213 1006 1959 
L 1006 0 
L 444 0 
L 444 2659 
Q 444 2766 442 2883 
Q 441 3000 437 3104 
Q 434 3209 431 3284 
Q 428 3359 425 3381 
L 956 3381 
Q 959 3366 962 3297 
Q 966 3228 970 3139 
Q 975 3050 978 2958 
Q 981 2866 981 2803 
L 991 2803 
Q 1072 2950 1169 3069 
Q 1266 3188 1394 3270 
Q 1522 3353 1687 3398 
Q 1853 3444 2072 3444 
Q 2353 3444 2556 3375 
Q 2759 3306 2890 3162 
Q 3022 3019 3083 2792 
Q 3144 2566 3144 2253 
L 3144 0 
L 2578 0 
z
" transform="scale(0.015625)"/>
      <path id="LiberationSans-69" d="M 428 4100 
L 428 4638 
L 991 4638 
L 991 4100 
L 428 4100 
z
M 428 0 
L 428 3381 
L 991 3381 
L 991 0 
L 428 0 
z
" transform="scale(0.015625)"/>
      <path id="LiberationSans-73" d="M 2969 934 
Q 2969 697 2876 511 
Q 2784 325 2609 198 
Q 2434 72 2179 4 
Q 1925 -63 1597 -63 
Q 1303 -63 1067 -17 
Q 831 28 653 128 
Q 475 228 354 392 
Q 234 556 178 794 
L 675 891 
Q 747 619 972 492 
Q 1197 366 1597 366 
Q 1778 366 1929 391 
Q 2081 416 2190 477 
Q 2300 538 2361 639 
Q 2422 741 2422 891 
Q 2422 1044 2350 1142 
Q 2278 1241 2150 1306 
Q 2022 1372 1839 1420 
Q 1656 1469 1438 1528 
Q 1234 1581 1034 1647 
Q 834 1713 673 1820 
Q 513 1928 413 2087 
Q 313 2247 313 2488 
Q 313 2950 642 3192 
Q 972 3434 1603 3434 
Q 2163 3434 2492 3237 
Q 2822 3041 2909 2606 
L 2403 2544 
Q 2375 2675 2300 2764 
Q 2225 2853 2119 2908 
Q 2013 2963 1880 2986 
Q 1747 3009 1603 3009 
Q 1222 3009 1040 2893 
Q 859 2778 859 2544 
Q 859 2406 926 2317 
Q 994 2228 1114 2167 
Q 1234 2106 1403 2061 
Q 1572 2016 1775 1966 
Q 1909 1931 2050 1892 
Q 2191 1853 2323 1798 
Q 2456 1744 2573 1670 
Q 2691 1597 2778 1494 
Q 2866 1391 2917 1253 
Q 2969 1116 2969 934 
z
" transform="scale(0.015625)"/>
      <path id="LiberationSans-2e" d="M 584 0 
L 584 684 
L 1194 684 
L 1194 0 
L 584 0 
z
" transform="scale(0.015625)"/>
     </defs>
     <use xlink:href="#LiberationSans-28"/>
     <use xlink:href="#LiberationSans-61" x="33.300781"/>
     <use xlink:href="#LiberationSans-29" x="88.916016"/>
     <use xlink:href="#LiberationSans-20" x="122.216797"/>
     <use xlink:href="#LiberationSans-53" x="150"/>
     <use xlink:href="#LiberationSans-65" x="216.699219"/>
     <use xlink:href="#LiberationSans-6c" x="272.314453"/>
     <use xlink:href="#LiberationSans-65" x="294.53125"/>
     <use xlink:href="#LiberationSans-63" x="350.146484"/>
     <use xlink:href="#LiberationSans-74" x="400.146484"/>
     <use xlink:href="#LiberationSans-20" x="427.929688"/>
     <use xlink:href="#LiberationSans-61" x="455.712891"/>
     <use xlink:href="#LiberationSans-6e" x="511.328125"/>
     <use xlink:href="#LiberationSans-20" x="566.943359"/>
     <use xlink:href="#LiberationSans-69" x="594.726562"/>
     <use xlink:href="#LiberationSans-6e" x="616.943359"/>
     <use xlink:href="#LiberationSans-73" x="672.558594"/>
     <use xlink:href="#LiberationSans-74" x="722.558594"/>
     <use xlink:href="#LiberationSans-61" x="750.341797"/>
     <use xlink:href="#LiberationSans-6e" x="805.957031"/>
     <use xlink:href="#LiberationSans-63" x="861.572266"/>
     <use xlink:href="#LiberationSans-65" x="911.572266"/>
     <use xlink:href="#LiberationSans-2e" x="967.1875"/>
    </g>
   </g>
   <g id="PathCollection_1">
    <defs>
     <path id="m95d8789f95" d="M -1.666667 5 
L 1.666667 5 
L 1.666667 1.666667 
L 5 1.666667 
L 5 -1.666667 
L 1.666667 -1.666667 
L 1.666667 -5 
L -1.666667 -5 
L -1.666667 -1.666667 
L -5 -1.666667 
L -5 1.666667 
L -1.666667 1.666667 
z
" style="stroke: #2ca02c; stroke-opacity: 0.9; stroke-width: 2"/>
    </defs>
    <g clip-path="url(#pc17cdf8661)">
     <use xlink:href="#m95d8789f95" x="106.394754" y="88.391439" style="fill: #d62728; fill-opacity: 0.9; stroke: #2ca02c; stroke-opacity: 0.9; stroke-width: 2"/>
    </g>
   </g>
  </g>
  <g id="axes_2">
   <g id="patch_9">
    <path d="M 361.8 190.63251 
L 705.6 190.63251 
L 705.6 7.2 
L 361.8 7.2 
z
" style="fill: #eaeaf2"/>
   </g>
   <g id="matplotlib.axis_3"/>
   <g id="matplotlib.axis_4"/>
   <g id="patch_10">
    <path d="M 352.782295 198.651417 
L 724.762623 198.651417 
L 724.762623 -1.821271 
L 352.782295 -1.821271 
z
" clip-path="url(#p9fc1e6b461)" style="fill: #0000ff; opacity: 0.1"/>
   </g>
   <g id="patch_11">
    <path d="M 364.054426 28.249632 
L 365.268266 29.234611 
L 366.684992 30.15282 
L 368.290394 31.008935 
L 370.070265 31.807632 
L 372.010395 32.553587 
L 374.096574 33.251476 
L 376.314595 33.905977 
L 378.650247 34.521764 
L 381.089323 35.103515 
L 383.617612 35.655905 
L 386.220907 36.18361 
L 388.884998 36.691308 
L 391.595675 37.183673 
L 394.338731 37.665383 
L 397.099955 38.141114 
L 399.86514 38.615541 
L 402.620076 39.093341 
L 405.350553 39.57919 
L 408.042364 40.077765 
L 410.681299 40.593741 
L 413.253149 41.131795 
L 415.743705 41.696604 
L 418.138758 42.292842 
L 420.424099 42.925187 
L 422.585519 43.598315 
L 424.608809 44.316902 
L 426.479761 45.085624 
L 428.184164 45.909157 
L 429.707811 46.792178 
L 431.036491 47.739362 
L 432.156331 48.755291 
L 433.063701 49.841604 
L 433.766871 50.996523 
L 434.274779 52.218082 
L 434.596365 53.504311 
L 434.740568 54.853244 
L 434.716325 56.26291 
L 434.532576 57.731343 
L 434.198259 59.256574 
L 433.722314 60.836635 
L 433.113678 62.469557 
L 432.381291 64.153373 
L 431.534091 65.886114 
L 430.581017 67.665812 
L 429.531008 69.490499 
L 428.393002 71.358207 
L 427.175939 73.266967 
L 425.888756 75.214812 
L 424.540393 77.199772 
L 423.139788 79.219881 
L 421.695881 81.273169 
L 420.217609 83.357668 
L 418.713911 85.471411 
L 417.193727 87.612429 
L 415.665995 89.778754 
L 414.139653 91.968417 
L 412.623641 94.179451 
L 411.126897 96.409887 
L 409.65836 98.657757 
L 408.226968 100.921094 
L 406.841661 103.197927 
L 405.511376 105.486291 
L 404.245054 107.784215 
L 403.051631 110.089733 
L 401.940048 112.400876 
L 400.919243 114.715675 
L 399.998154 117.032163 
L 399.185721 119.348371 
L 398.490881 121.662331 
L 397.922575 123.972075 
L 397.48974 126.275635 
L 397.201315 128.571042 
L 397.066239 130.856329 
L 397.09345 133.129527 
L 397.291888 135.388667 
L 397.670491 137.631783 
L 398.237403 139.856676 
L 398.989173 142.057821 
L 399.913577 144.227172 
L 400.998174 146.356618 
L 402.230521 148.438052 
L 403.598178 150.463364 
L 405.088703 152.424446 
L 406.689655 154.313188 
L 408.388592 156.121483 
L 410.173073 157.84122 
L 412.030655 159.464292 
L 413.948899 160.982588 
L 415.915363 162.388001 
L 417.917604 163.672422 
L 419.943182 164.827741 
L 421.979655 165.84585 
L 424.014581 166.718639 
L 426.03552 167.438001 
L 428.030029 167.995826 
L 429.985668 168.384004 
L 431.889997 168.594432 
L 433.733657 168.622074 
L 435.516224 168.470819 
L 437.238886 168.146164 
L 438.902832 167.653605 
L 440.50925 166.99864 
L 442.059328 166.186767 
L 443.554256 165.223481 
L 444.995222 164.11428 
L 446.383413 162.864661 
L 447.72002 161.480121 
L 449.00623 159.966157 
L 450.243232 158.328267 
L 451.432214 156.571946 
L 452.574365 154.702693 
L 453.670873 152.726004 
L 454.722927 150.647376 
L 455.731715 148.472307 
L 456.698426 146.206293 
L 457.624249 143.854832 
L 458.510371 141.42342 
L 459.357982 138.917555 
L 460.16827 136.342733 
L 460.942423 133.704452 
L 461.68163 131.008208 
L 462.38708 128.259499 
L 463.05996 125.463822 
L 463.70146 122.626674 
L 464.312768 119.753552 
L 464.895073 116.849952 
L 465.449562 113.921373 
L 465.977425 110.97331 
L 466.47985 108.011262 
L 466.958025 105.040724 
L 467.41314 102.067195 
L 467.846382 99.096171 
L 468.25894 96.133149 
L 468.652002 93.183626 
L 469.026758 90.253099 
L 469.384395 87.347066 
L 469.726102 84.471024 
L 470.053068 81.630468 
L 470.366481 78.830897 
L 470.66753 76.077808 
L 470.957403 73.376697 
L 471.237288 70.733062 
L 471.508375 68.1524 
L 471.771851 65.640207 
L 472.028905 63.201981 
L 472.280726 60.843219 
L 472.528502 58.569417 
L 472.773422 56.386073 
L 473.016675 54.298685 
L 473.259448 52.312748 
L 473.50293 50.43376 
L 473.74831 48.667219 
L 473.996776 47.01862 
L 474.249517 45.493462 
L 474.507721 44.09724 
L 474.772577 42.835453 
L 475.045273 41.713597 
L 475.326998 40.73717 
L 475.618941 39.911668 
L 475.922289 39.242588 
L 476.238232 38.735428 
L 476.567957 38.395684 
L 476.912644 38.228748 
L 477.273082 38.235679 
L 477.649543 38.411792 
L 478.042261 38.752001 
L 478.451474 39.251222 
L 478.877416 39.904372 
L 479.320323 40.706365 
L 479.780432 41.652119 
L 480.257977 42.736549 
L 480.753195 43.95457 
L 481.266321 45.3011 
L 481.797592 46.771053 
L 482.347242 48.359345 
L 482.915508 50.060893 
L 483.502626 51.870612 
L 484.108831 53.783418 
L 484.734359 55.794227 
L 485.379445 57.897955 
L 486.044326 60.089518 
L 486.729237 62.363832 
L 487.434414 64.715812 
L 488.160093 67.140375 
L 488.906509 69.632436 
L 489.673899 72.186911 
L 490.462497 74.798716 
L 491.272541 77.462768 
L 492.104265 80.173981 
L 492.957905 82.927272 
L 493.833697 85.717557 
L 494.731877 88.539751 
L 495.652681 91.388771 
L 496.596343 94.259532 
L 497.563102 97.14695 
L 498.55319 100.045941 
L 499.566846 102.951421 
L 500.604304 105.858306 
L 501.6658 108.761512 
L 502.751569 111.655955 
L 503.861849 114.53655 
L 504.996874 117.398213 
L 506.15688 120.235861 
L 507.342102 123.044408 
L 508.552778 125.818772 
L 509.789142 128.553868 
L 511.05143 131.244612 
L 512.339878 133.885919 
L 513.654722 136.472706 
L 514.996197 138.999888 
L 516.36454 141.462382 
L 517.759985 143.855103 
L 519.182769 146.172968 
L 520.633128 148.410891 
L 522.111297 150.563789 
L 523.617512 152.626578 
L 525.152009 154.594173 
L 526.715023 156.461492 
L 528.30679 158.223448 
L 529.927547 159.874959 
L 531.577528 161.41094 
L 533.25697 162.826308 
L 534.966108 164.115977 
L 536.705179 165.274864 
L 538.474417 166.297885 
L 540.274059 167.179956 
L 542.10434 167.915992 
L 543.965496 168.50091 
L 545.857763 168.929624 
L 547.781377 169.197052 
L 549.736573 169.29811 
L 551.723587 169.227712 
L 553.742655 168.980775 
L 555.794012 168.552215 
L 557.875893 167.939949 
L 559.979732 167.152084 
L 562.095525 166.198884 
L 564.213268 165.090616 
L 566.322956 163.837544 
L 568.414584 162.449934 
L 570.478147 160.938051 
L 572.503641 159.312162 
L 574.481061 157.582532 
L 576.400402 155.759425 
L 578.251659 153.853109 
L 580.024828 151.873847 
L 581.709904 149.831907 
L 583.296882 147.737552 
L 584.775758 145.601049 
L 586.136526 143.432664 
L 587.369183 141.242661 
L 588.463722 139.041307 
L 589.410141 136.838866 
L 590.198433 134.645605 
L 590.818594 132.471788 
L 591.26062 130.327682 
L 591.514505 128.223551 
L 591.570245 126.169663 
L 591.417835 124.17628 
L 591.047271 122.253671 
L 590.448548 120.412099 
L 589.61166 118.661831 
L 588.530261 117.011018 
L 587.218882 115.455747 
L 585.699454 113.987829 
L 583.993917 112.599069 
L 582.124211 111.281273 
L 580.112274 110.026247 
L 577.980047 108.825796 
L 575.749469 107.671725 
L 573.442479 106.555842 
L 571.081018 105.46995 
L 568.687025 104.405856 
L 566.282438 103.355366 
L 563.889199 102.310285 
L 561.529247 101.262419 
L 559.22452 100.203573 
L 556.996959 99.125554 
L 554.868503 98.020166 
L 552.861092 96.879216 
L 550.996665 95.694509 
L 549.297162 94.457851 
L 547.784523 93.161047 
L 546.480686 91.795904 
L 545.407592 90.354226 
L 544.587181 88.827819 
L 544.0391 87.209718 
L 543.761278 85.504605 
L 543.739652 83.723592 
L 543.960035 81.877858 
L 544.408237 79.978583 
L 545.070073 78.036945 
L 545.931352 76.064125 
L 546.977888 74.071302 
L 548.195493 72.069655 
L 549.569978 70.070363 
L 551.087156 68.084606 
L 552.732839 66.123564 
L 554.492838 64.198415 
L 556.352967 62.320339 
L 558.299036 60.500515 
L 560.316859 58.750123 
L 562.392246 57.080342 
L 564.511011 55.502351 
L 566.658965 54.02733 
L 568.82192 52.666458 
L 570.985688 51.430915 
L 573.136082 50.33188 
L 575.258913 49.380532 
L 577.339994 48.588051 
L 579.365607 47.965145 
L 581.330082 47.514473 
L 583.23451 47.231931 
L 585.080191 47.113205 
L 586.868425 47.15398 
L 588.600513 47.349945 
L 590.277755 47.696784 
L 591.90145 48.190184 
L 593.472899 48.825831 
L 594.993402 49.599411 
L 596.464259 50.506612 
L 597.88677 51.543118 
L 599.262236 52.704617 
L 600.591957 53.986795 
L 601.877233 55.385337 
L 603.119363 56.89593 
L 604.319649 58.514261 
L 605.47939 60.236015 
L 606.599886 62.05688 
L 607.682438 63.97254 
L 608.728345 65.978683 
L 609.738909 68.070995 
L 610.715428 70.245161 
L 611.659204 72.496869 
L 612.571536 74.821804 
L 613.453725 77.215653 
L 614.30707 79.674103 
L 615.132872 82.192838 
L 615.932431 84.767546 
L 616.707047 87.393913 
L 617.45802 90.067625 
L 618.186651 92.784368 
L 618.89424 95.539829 
L 619.582086 98.329693 
L 620.25149 101.149648 
L 620.903752 103.99538 
L 621.540172 106.862574 
L 622.162051 109.746917 
L 622.770688 112.644095 
L 623.367384 115.549794 
L 623.953438 118.459702 
L 624.530152 121.369503 
L 625.098825 124.274885 
L 625.660757 127.171533 
L 626.217248 130.055134 
L 626.769599 132.921374 
L 627.31911 135.76594 
L 627.867081 138.584517 
L 628.414812 141.372792 
L 628.963603 144.126451 
L 629.514754 146.84118 
L 630.069566 149.512667 
L 630.629338 152.136596 
L 631.195372 154.708654 
L 631.768966 157.224528 
L 632.351422 159.679903 
L 632.944038 162.070467 
L 633.548117 164.391905 
L 634.164956 166.639903 
L 634.795858 168.810148 
L 635.442121 170.898326 
L 636.105047 172.900124 
L 636.785935 174.811227 
L 637.486085 176.627322 
L 638.206797 178.344095 
L 638.949373 179.957232 
L 639.715111 181.46242 
L 640.505312 182.855345 
L 641.321276 184.131694 
L 642.164304 185.287151 
L 643.035695 186.317405 
L 643.93675 187.21814 
L 644.868768 187.985044 
L 645.83305 188.613802 
L 646.830428 189.101238 
L 647.859714 189.449084 
L 648.919173 189.660392 
L 650.007074 189.738215 
L 651.121683 189.685608 
L 652.261267 189.505624 
L 653.424094 189.201315 
L 654.60843 188.775735 
L 655.812542 188.231938 
L 657.034697 187.572977 
L 658.273163 186.801905 
L 659.526206 185.921776 
L 660.792093 184.935643 
L 662.069092 183.84656 
L 663.355469 182.657579 
L 664.64949 181.371754 
L 665.949425 179.992139 
L 667.253538 178.521786 
L 668.560098 176.96375 
L 669.867371 175.321083 
L 671.173624 173.596839 
L 672.477124 171.794072 
L 673.776139 169.915834 
L 675.068935 167.965179 
L 676.353779 165.945161 
L 677.628939 163.858832 
L 678.89268 161.709246 
L 680.143271 159.499457 
L 681.378978 157.232518 
L 682.598069 154.911482 
L 683.798809 152.539402 
L 684.979467 150.119333 
L 686.138309 147.654326 
L 687.273602 145.147436 
L 688.383614 142.601717 
L 689.46661 140.02022 
L 690.520859 137.406001 
L 691.544627 134.762111 
L 692.536181 132.091605 
L 693.493789 129.397536 
L 694.415717 126.682957 
L 695.300232 123.950921 
L 696.145601 121.204482 
L 696.950091 118.446694 
L 697.71197 115.680609 
L 698.429503 112.909281 
L 699.100959 110.135764 
L 699.724604 107.36311 
L 700.298706 104.594373 
L 700.82153 101.832607 
L 701.291345 99.080865 
L 701.706417 96.3422 
L 702.065013 93.619665 
L 702.3654 90.916314 
L 702.605846 88.2352 
L 702.784617 85.579377 
L 702.899979 82.951898 
L 702.950201 80.355817 
L 702.93355 77.794186 
L 702.848291 75.270059 
L 702.692693 72.786489 
L 702.465021 70.346531 
L 702.163547 67.953234 
L 701.78731 65.608821 
L 701.337261 63.313469 
L 700.814633 61.067048 
L 700.220665 58.869427 
L 699.556592 56.720474 
L 698.823649 54.620059 
L 698.023074 52.56805 
L 697.156102 50.564316 
L 696.223969 48.608727 
L 695.227912 46.70115 
L 694.169167 44.841455 
L 693.04897 43.029511 
L 691.868557 41.265187 
L 690.629164 39.548351 
L 689.332027 37.878873 
L 687.978383 36.256621 
L 686.569468 34.681464 
L 685.106517 33.153272 
L 683.590767 31.671913 
L 682.023455 30.237255 
L 680.405815 28.849169 
L 678.739085 27.507522 
L 677.0245 26.212184 
L 675.263297 24.963024 
L 673.456712 23.75991 
L 671.605981 22.602712 
L 669.71234 21.491298 
L 667.777025 20.425536 
L 665.801272 19.405298 
L 663.786318 18.43045 
L 661.733399 17.500861 
L 659.64375 16.616402 
L 657.518608 15.77694 
L 655.35921 14.982345 
L 653.16679 14.232486 
L 650.942587 13.527231 
L 648.687834 12.866449 
L 646.403769 12.250009 
L 644.091629 11.67778 
L 641.752648 11.149631 
L 639.388063 10.665432 
L 636.99911 10.225049 
L 634.587026 9.828354 
L 632.153047 9.475214 
L 629.698408 9.165499 
L 627.224346 8.899077 
L 624.732097 8.675817 
L 622.222897 8.495588 
L 619.697982 8.35826 
L 617.158589 8.2637 
L 614.605953 8.211778 
L 612.041311 8.202363 
z
" clip-path="url(#p9fc1e6b461)" style="fill: #ff0000; opacity: 0.2; stroke: #ff0000; stroke-width: 0.3; stroke-linejoin: miter"/>
   </g>
   <g id="patch_12">
    <path d="M 361.8 190.63251 
L 361.8 7.2 
" style="fill: none"/>
   </g>
   <g id="patch_13">
    <path d="M 705.6 190.63251 
L 705.6 7.2 
" style="fill: none"/>
   </g>
   <g id="patch_14">
    <path d="M 361.8 190.63251 
L 705.6 190.63251 
" style="fill: none"/>
   </g>
   <g id="patch_15">
    <path d="M 361.8 7.2 
L 705.6 7.2 
" style="fill: none"/>
   </g>
   <g id="text_2">
    <!-- (b) Sample in the neighbourhood. -->
    <g style="fill: #262626" transform="translate(444.647813 204.810086)scale(0.12 -0.12)">
     <defs>
      <path id="LiberationSans-62" d="M 3291 1706 
Q 3291 -63 2047 -63 
Q 1663 -63 1408 76 
Q 1153 216 994 525 
L 988 525 
Q 988 444 983 356 
Q 978 269 973 194 
Q 969 119 964 66 
Q 959 13 956 0 
L 413 0 
Q 416 28 419 95 
Q 422 163 425 256 
Q 428 350 429 462 
Q 431 575 431 697 
L 431 4638 
L 994 4638 
L 994 3316 
Q 994 3222 992 3136 
Q 991 3050 988 2984 
Q 984 2906 981 2838 
L 994 2838 
Q 1150 3163 1408 3303 
Q 1666 3444 2047 3444 
Q 2688 3444 2989 3012 
Q 3291 2581 3291 1706 
z
M 2700 1688 
Q 2700 2038 2656 2288 
Q 2613 2538 2516 2698 
Q 2419 2859 2269 2934 
Q 2119 3009 1903 3009 
Q 1681 3009 1511 2937 
Q 1341 2866 1227 2706 
Q 1113 2547 1053 2287 
Q 994 2028 994 1653 
Q 994 1291 1053 1044 
Q 1113 797 1227 642 
Q 1341 488 1509 420 
Q 1678 353 1897 353 
Q 2103 353 2253 425 
Q 2403 497 2503 656 
Q 2603 816 2651 1070 
Q 2700 1325 2700 1688 
z
" transform="scale(0.015625)"/>
      <path id="LiberationSans-6d" d="M 2400 0 
L 2400 2144 
Q 2400 2391 2369 2556 
Q 2338 2722 2264 2823 
Q 2191 2925 2072 2967 
Q 1953 3009 1781 3009 
Q 1603 3009 1459 2939 
Q 1316 2869 1214 2736 
Q 1113 2603 1058 2408 
Q 1003 2213 1003 1959 
L 1003 0 
L 444 0 
L 444 2659 
Q 444 2766 442 2883 
Q 441 3000 437 3104 
Q 434 3209 431 3284 
Q 428 3359 425 3381 
L 956 3381 
Q 959 3366 962 3297 
Q 966 3228 970 3139 
Q 975 3050 978 2958 
Q 981 2866 981 2803 
L 991 2803 
Q 1066 2950 1153 3069 
Q 1241 3188 1358 3270 
Q 1475 3353 1626 3398 
Q 1778 3444 1978 3444 
Q 2363 3444 2586 3291 
Q 2809 3138 2897 2803 
L 2906 2803 
Q 2981 2950 3075 3069 
Q 3169 3188 3294 3270 
Q 3419 3353 3575 3398 
Q 3731 3444 3931 3444 
Q 4188 3444 4373 3375 
Q 4559 3306 4678 3162 
Q 4797 3019 4853 2792 
Q 4909 2566 4909 2253 
L 4909 0 
L 4353 0 
L 4353 2144 
Q 4353 2391 4322 2556 
Q 4291 2722 4217 2823 
Q 4144 2925 4025 2967 
Q 3906 3009 3734 3009 
Q 3556 3009 3412 2942 
Q 3269 2875 3167 2744 
Q 3066 2613 3011 2416 
Q 2956 2219 2956 1959 
L 2956 0 
L 2400 0 
z
" transform="scale(0.015625)"/>
      <path id="LiberationSans-70" d="M 3291 1706 
Q 3291 1322 3228 997 
Q 3166 672 3020 437 
Q 2875 203 2636 70 
Q 2397 -63 2047 -63 
Q 1684 -63 1412 75 
Q 1141 213 997 525 
L 981 525 
Q 984 519 986 469 
Q 988 419 989 344 
Q 991 269 992 176 
Q 994 84 994 -6 
L 994 -1328 
L 431 -1328 
L 431 2691 
Q 431 2813 429 2925 
Q 428 3038 425 3130 
Q 422 3222 419 3287 
Q 416 3353 413 3381 
L 956 3381 
Q 959 3372 964 3315 
Q 969 3259 973 3179 
Q 978 3100 983 3009 
Q 988 2919 988 2838 
L 1000 2838 
Q 1078 3000 1178 3114 
Q 1278 3228 1406 3301 
Q 1534 3375 1692 3408 
Q 1850 3441 2047 3441 
Q 2397 3441 2636 3316 
Q 2875 3191 3020 2964 
Q 3166 2738 3228 2417 
Q 3291 2097 3291 1706 
z
M 2700 1694 
Q 2700 2006 2662 2250 
Q 2625 2494 2533 2662 
Q 2441 2831 2287 2918 
Q 2134 3006 1903 3006 
Q 1716 3006 1550 2953 
Q 1384 2900 1261 2750 
Q 1138 2600 1066 2336 
Q 994 2072 994 1650 
Q 994 1291 1053 1042 
Q 1113 794 1227 641 
Q 1341 488 1509 420 
Q 1678 353 1897 353 
Q 2131 353 2286 443 
Q 2441 534 2533 706 
Q 2625 878 2662 1126 
Q 2700 1375 2700 1694 
z
" transform="scale(0.015625)"/>
      <path id="LiberationSans-68" d="M 991 2803 
Q 1084 2975 1193 3095 
Q 1303 3216 1434 3294 
Q 1566 3372 1722 3408 
Q 1878 3444 2072 3444 
Q 2397 3444 2605 3356 
Q 2813 3269 2933 3111 
Q 3053 2953 3098 2734 
Q 3144 2516 3144 2253 
L 3144 0 
L 2578 0 
L 2578 2144 
Q 2578 2359 2551 2521 
Q 2525 2684 2450 2792 
Q 2375 2900 2237 2954 
Q 2100 3009 1881 3009 
Q 1681 3009 1520 2937 
Q 1359 2866 1245 2734 
Q 1131 2603 1068 2415 
Q 1006 2228 1006 1994 
L 1006 0 
L 444 0 
L 444 4638 
L 1006 4638 
L 1006 3431 
Q 1006 3328 1003 3225 
Q 1000 3122 995 3034 
Q 991 2947 987 2886 
Q 984 2825 981 2803 
L 991 2803 
z
" transform="scale(0.015625)"/>
      <path id="LiberationSans-67" d="M 1713 -1328 
Q 1422 -1328 1197 -1268 
Q 972 -1209 812 -1098 
Q 653 -988 553 -834 
Q 453 -681 409 -494 
L 975 -413 
Q 1031 -647 1223 -773 
Q 1416 -900 1728 -900 
Q 1919 -900 2075 -847 
Q 2231 -794 2340 -676 
Q 2450 -559 2509 -371 
Q 2569 -184 2569 84 
L 2569 628 
L 2563 628 
Q 2500 500 2408 383 
Q 2316 266 2183 175 
Q 2050 84 1875 29 
Q 1700 -25 1475 -25 
Q 1153 -25 923 83 
Q 694 191 548 406 
Q 403 622 336 942 
Q 269 1263 269 1684 
Q 269 2091 336 2416 
Q 403 2741 554 2967 
Q 706 3194 948 3314 
Q 1191 3434 1538 3434 
Q 1897 3434 2161 3270 
Q 2425 3106 2569 2803 
L 2575 2803 
Q 2575 2881 2579 2978 
Q 2584 3075 2589 3161 
Q 2594 3247 2600 3309 
Q 2606 3372 2613 3381 
L 3147 3381 
Q 3144 3353 3141 3286 
Q 3138 3219 3134 3125 
Q 3131 3031 3129 2917 
Q 3128 2803 3128 2681 
L 3128 97 
Q 3128 -613 2779 -970 
Q 2431 -1328 1713 -1328 
z
M 2569 1691 
Q 2569 2044 2492 2295 
Q 2416 2547 2291 2706 
Q 2166 2866 2005 2941 
Q 1844 3016 1675 3016 
Q 1459 3016 1304 2941 
Q 1150 2866 1048 2705 
Q 947 2544 898 2292 
Q 850 2041 850 1691 
Q 850 1325 898 1076 
Q 947 828 1047 675 
Q 1147 522 1300 456 
Q 1453 391 1666 391 
Q 1834 391 1995 462 
Q 2156 534 2284 690 
Q 2413 847 2491 1094 
Q 2569 1341 2569 1691 
z
" transform="scale(0.015625)"/>
      <path id="LiberationSans-6f" d="M 3291 1694 
Q 3291 806 2900 371 
Q 2509 -63 1766 -63 
Q 1413 -63 1134 43 
Q 856 150 664 369 
Q 472 588 370 917 
Q 269 1247 269 1694 
Q 269 3444 1784 3444 
Q 2178 3444 2464 3334 
Q 2750 3225 2933 3006 
Q 3116 2788 3203 2459 
Q 3291 2131 3291 1694 
z
M 2700 1694 
Q 2700 2088 2639 2344 
Q 2578 2600 2461 2753 
Q 2344 2906 2175 2967 
Q 2006 3028 1794 3028 
Q 1578 3028 1404 2964 
Q 1231 2900 1109 2745 
Q 988 2591 923 2334 
Q 859 2078 859 1694 
Q 859 1300 928 1042 
Q 997 784 1117 631 
Q 1238 478 1402 415 
Q 1566 353 1759 353 
Q 1975 353 2150 414 
Q 2325 475 2447 628 
Q 2569 781 2634 1040 
Q 2700 1300 2700 1694 
z
" transform="scale(0.015625)"/>
      <path id="LiberationSans-75" d="M 981 3381 
L 981 1238 
Q 981 991 1017 825 
Q 1053 659 1134 557 
Q 1216 456 1348 414 
Q 1481 372 1678 372 
Q 1878 372 2039 442 
Q 2200 513 2314 645 
Q 2428 778 2490 973 
Q 2553 1169 2553 1422 
L 2553 3381 
L 3116 3381 
L 3116 722 
Q 3116 616 3117 498 
Q 3119 381 3122 276 
Q 3125 172 3128 97 
Q 3131 22 3134 0 
L 2603 0 
Q 2600 16 2597 84 
Q 2594 153 2589 242 
Q 2584 331 2581 423 
Q 2578 516 2578 578 
L 2569 578 
Q 2488 431 2391 312 
Q 2294 194 2166 111 
Q 2038 28 1872 -17 
Q 1706 -63 1488 -63 
Q 1206 -63 1003 6 
Q 800 75 669 219 
Q 538 363 477 588 
Q 416 813 416 1128 
L 416 3381 
L 981 3381 
z
" transform="scale(0.015625)"/>
      <path id="LiberationSans-72" d="M 444 0 
L 444 2594 
Q 444 2700 442 2811 
Q 441 2922 437 3025 
Q 434 3128 431 3218 
Q 428 3309 425 3381 
L 956 3381 
Q 959 3309 964 3217 
Q 969 3125 973 3028 
Q 978 2931 979 2842 
Q 981 2753 981 2691 
L 994 2691 
Q 1053 2884 1120 3026 
Q 1188 3169 1278 3261 
Q 1369 3353 1494 3398 
Q 1619 3444 1797 3444 
Q 1866 3444 1928 3433 
Q 1991 3422 2025 3413 
L 2025 2897 
Q 1969 2913 1894 2920 
Q 1819 2928 1725 2928 
Q 1531 2928 1395 2840 
Q 1259 2753 1173 2598 
Q 1088 2444 1047 2230 
Q 1006 2016 1006 1763 
L 1006 0 
L 444 0 
z
" transform="scale(0.015625)"/>
      <path id="LiberationSans-64" d="M 2566 544 
Q 2409 219 2151 78 
Q 1894 -63 1513 -63 
Q 872 -63 570 368 
Q 269 800 269 1675 
Q 269 3444 1513 3444 
Q 1897 3444 2153 3303 
Q 2409 3163 2566 2856 
L 2572 2856 
Q 2572 2888 2570 2955 
Q 2569 3022 2567 3095 
Q 2566 3169 2566 3234 
Q 2566 3300 2566 3328 
L 2566 4638 
L 3128 4638 
L 3128 697 
Q 3128 575 3129 462 
Q 3131 350 3134 256 
Q 3138 163 3141 95 
Q 3144 28 3147 0 
L 2609 0 
Q 2603 31 2598 89 
Q 2594 147 2589 222 
Q 2584 297 2581 380 
Q 2578 463 2578 544 
L 2566 544 
z
M 859 1694 
Q 859 1344 903 1094 
Q 947 844 1044 683 
Q 1141 522 1291 447 
Q 1441 372 1656 372 
Q 1878 372 2048 444 
Q 2219 516 2333 677 
Q 2447 838 2506 1097 
Q 2566 1356 2566 1731 
Q 2566 2091 2506 2339 
Q 2447 2588 2331 2741 
Q 2216 2894 2048 2961 
Q 1881 3028 1663 3028 
Q 1456 3028 1306 2956 
Q 1156 2884 1056 2725 
Q 956 2566 907 2311 
Q 859 2056 859 1694 
z
" transform="scale(0.015625)"/>
     </defs>
     <use xlink:href="#LiberationSans-28"/>
     <use xlink:href="#LiberationSans-62" x="33.300781"/>
     <use xlink:href="#LiberationSans-29" x="88.916016"/>
     <use xlink:href="#LiberationSans-20" x="122.216797"/>
     <use xlink:href="#LiberationSans-53" x="150"/>
     <use xlink:href="#LiberationSans-61" x="216.699219"/>
     <use xlink:href="#LiberationSans-6d" x="272.314453"/>
     <use xlink:href="#LiberationSans-70" x="355.615234"/>
     <use xlink:href="#LiberationSans-6c" x="411.230469"/>
     <use xlink:href="#LiberationSans-65" x="433.447266"/>
     <use xlink:href="#LiberationSans-20" x="489.0625"/>
     <use xlink:href="#LiberationSans-69" x="516.845703"/>
     <use xlink:href="#LiberationSans-6e" x="539.0625"/>
     <use xlink:href="#LiberationSans-20" x="594.677734"/>
     <use xlink:href="#LiberationSans-74" x="622.460938"/>
     <use xlink:href="#LiberationSans-68" x="650.244141"/>
     <use xlink:href="#LiberationSans-65" x="705.859375"/>
     <use xlink:href="#LiberationSans-20" x="761.474609"/>
     <use xlink:href="#LiberationSans-6e" x="789.257812"/>
     <use xlink:href="#LiberationSans-65" x="844.873047"/>
     <use xlink:href="#LiberationSans-69" x="900.488281"/>
     <use xlink:href="#LiberationSans-67" x="922.705078"/>
     <use xlink:href="#LiberationSans-68" x="978.320312"/>
     <use xlink:href="#LiberationSans-62" x="1033.935547"/>
     <use xlink:href="#LiberationSans-6f" x="1089.550781"/>
     <use xlink:href="#LiberationSans-75" x="1145.166016"/>
     <use xlink:href="#LiberationSans-72" x="1200.78125"/>
     <use xlink:href="#LiberationSans-68" x="1234.082031"/>
     <use xlink:href="#LiberationSans-6f" x="1289.697266"/>
     <use xlink:href="#LiberationSans-6f" x="1345.3125"/>
     <use xlink:href="#LiberationSans-64" x="1400.927734"/>
     <use xlink:href="#LiberationSans-2e" x="1456.542969"/>
    </g>
   </g>
   <g id="PathCollection_2">
    <defs>
     <path id="m3bc1419fa7" d="M -1.666667 5 
L 1.666667 5 
L 1.666667 1.666667 
L 5 1.666667 
L 5 -1.666667 
L 1.666667 -1.666667 
L 1.666667 -5 
L -1.666667 -5 
L -1.666667 -1.666667 
L -5 -1.666667 
L -5 1.666667 
L -1.666667 1.666667 
z
" style="stroke: #d62728; stroke-opacity: 0.8; stroke-width: 0.3"/>
    </defs>
    <g clip-path="url(#p9fc1e6b461)">
     <use xlink:href="#m3bc1419fa7" x="471.945999" y="42.592555" style="fill: #d62728; fill-opacity: 0.8; stroke: #d62728; stroke-opacity: 0.8; stroke-width: 0.3"/>
     <use xlink:href="#m3bc1419fa7" x="457.035643" y="95.432148" style="fill: #d62728; fill-opacity: 0.8; stroke: #d62728; stroke-opacity: 0.8; stroke-width: 0.3"/>
     <use xlink:href="#m3bc1419fa7" x="453.056789" y="72.076168" style="fill: #d62728; fill-opacity: 0.8; stroke: #d62728; stroke-opacity: 0.8; stroke-width: 0.3"/>
     <use xlink:href="#m3bc1419fa7" x="453.159197" y="102.396353" style="fill: #d62728; fill-opacity: 0.8; stroke: #d62728; stroke-opacity: 0.8; stroke-width: 0.3"/>
     <use xlink:href="#m3bc1419fa7" x="431.829504" y="105.299933" style="fill: #d62728; fill-opacity: 0.8; stroke: #d62728; stroke-opacity: 0.8; stroke-width: 0.3"/>
     <use xlink:href="#m3bc1419fa7" x="443.869606" y="78.941738" style="fill: #d62728; fill-opacity: 0.8; stroke: #d62728; stroke-opacity: 0.8; stroke-width: 0.3"/>
     <use xlink:href="#m3bc1419fa7" x="445.641704" y="130.860687" style="fill: #d62728; fill-opacity: 0.8; stroke: #d62728; stroke-opacity: 0.8; stroke-width: 0.3"/>
     <use xlink:href="#m3bc1419fa7" x="451.790224" y="85.055896" style="fill: #d62728; fill-opacity: 0.8; stroke: #d62728; stroke-opacity: 0.8; stroke-width: 0.3"/>
     <use xlink:href="#m3bc1419fa7" x="441.533528" y="77.09386" style="fill: #d62728; fill-opacity: 0.8; stroke: #d62728; stroke-opacity: 0.8; stroke-width: 0.3"/>
     <use xlink:href="#m3bc1419fa7" x="450.839037" y="97.162933" style="fill: #d62728; fill-opacity: 0.8; stroke: #d62728; stroke-opacity: 0.8; stroke-width: 0.3"/>
     <use xlink:href="#m3bc1419fa7" x="450.82098" y="32.691761" style="fill: #d62728; fill-opacity: 0.8; stroke: #d62728; stroke-opacity: 0.8; stroke-width: 0.3"/>
     <use xlink:href="#m3bc1419fa7" x="460.76654" y="120.197762" style="fill: #d62728; fill-opacity: 0.8; stroke: #d62728; stroke-opacity: 0.8; stroke-width: 0.3"/>
     <use xlink:href="#m3bc1419fa7" x="438.537523" y="82.471644" style="fill: #d62728; fill-opacity: 0.8; stroke: #d62728; stroke-opacity: 0.8; stroke-width: 0.3"/>
    </g>
   </g>
   <g id="PathCollection_3">
    <defs>
     <path id="mce2bef25f2" d="M 5 1.721551 
L -3.937065 1.721551 
L -3.937065 -2.601537 
L 5 -2.601537 
L 5 1.721551 
z
" style="stroke: #1f77b4; stroke-opacity: 0.8; stroke-width: 0.3"/>
    </defs>
    <g clip-path="url(#p9fc1e6b461)">
     <use xlink:href="#mce2bef25f2" x="469.393295" y="92.549171" style="fill: #1f77b4; fill-opacity: 0.8; stroke: #1f77b4; stroke-opacity: 0.8; stroke-width: 0.3"/>
     <use xlink:href="#mce2bef25f2" x="487.696395" y="65.313983" style="fill: #1f77b4; fill-opacity: 0.8; stroke: #1f77b4; stroke-opacity: 0.8; stroke-width: 0.3"/>
     <use xlink:href="#mce2bef25f2" x="465.0859" y="145.925504" style="fill: #1f77b4; fill-opacity: 0.8; stroke: #1f77b4; stroke-opacity: 0.8; stroke-width: 0.3"/>
     <use xlink:href="#mce2bef25f2" x="485.776232" y="95.180736" style="fill: #1f77b4; fill-opacity: 0.8; stroke: #1f77b4; stroke-opacity: 0.8; stroke-width: 0.3"/>
     <use xlink:href="#mce2bef25f2" x="462.136534" y="131.234904" style="fill: #1f77b4; fill-opacity: 0.8; stroke: #1f77b4; stroke-opacity: 0.8; stroke-width: 0.3"/>
     <use xlink:href="#mce2bef25f2" x="474.902505" y="125.10331" style="fill: #1f77b4; fill-opacity: 0.8; stroke: #1f77b4; stroke-opacity: 0.8; stroke-width: 0.3"/>
     <use xlink:href="#mce2bef25f2" x="464.526261" y="147.320489" style="fill: #1f77b4; fill-opacity: 0.8; stroke: #1f77b4; stroke-opacity: 0.8; stroke-width: 0.3"/>
    </g>
   </g>
   <g id="PathCollection_4">
    <g clip-path="url(#p9fc1e6b461)">
     <use xlink:href="#m95d8789f95" x="460.994754" y="88.391439" style="fill: #d62728; fill-opacity: 0.9; stroke: #2ca02c; stroke-opacity: 0.9; stroke-width: 2"/>
    </g>
   </g>
  </g>
  <g id="axes_3">
   <g id="patch_16">
    <path d="M 7.2 401.23251 
L 351 401.23251 
L 351 217.8 
L 7.2 217.8 
z
" style="fill: #eaeaf2"/>
   </g>
   <g id="matplotlib.axis_5"/>
   <g id="matplotlib.axis_6"/>
   <g id="patch_17">
    <path d="M -1.817705 409.251417 
L 370.162623 409.251417 
L 370.162623 208.778729 
L -1.817705 208.778729 
z
" clip-path="url(#p1b278cb816)" style="fill: #0000ff; opacity: 0.1"/>
   </g>
   <g id="patch_18">
    <path d="M 9.454426 238.849632 
L 10.668266 239.834611 
L 12.084992 240.75282 
L 13.690394 241.608935 
L 15.470265 242.407632 
L 17.410395 243.153587 
L 19.496574 243.851476 
L 21.714595 244.505977 
L 24.050247 245.121764 
L 26.489323 245.703515 
L 29.017612 246.255905 
L 31.620907 246.78361 
L 34.284998 247.291308 
L 36.995675 247.783673 
L 39.738731 248.265383 
L 42.499955 248.741114 
L 45.26514 249.215541 
L 48.020076 249.693341 
L 50.750553 250.17919 
L 53.442364 250.677765 
L 56.081299 251.193741 
L 58.653149 251.731795 
L 61.143705 252.296604 
L 63.538758 252.892842 
L 65.824099 253.525187 
L 67.985519 254.198315 
L 70.008809 254.916902 
L 71.879761 255.685624 
L 73.584164 256.509157 
L 75.107811 257.392178 
L 76.436491 258.339362 
L 77.556331 259.355291 
L 78.463701 260.441604 
L 79.166871 261.596523 
L 79.674779 262.818082 
L 79.996365 264.104311 
L 80.140568 265.453244 
L 80.116325 266.86291 
L 79.932576 268.331343 
L 79.598259 269.856574 
L 79.122314 271.436635 
L 78.513678 273.069557 
L 77.781291 274.753373 
L 76.934091 276.486114 
L 75.981017 278.265812 
L 74.931008 280.090499 
L 73.793002 281.958207 
L 72.575939 283.866967 
L 71.288756 285.814812 
L 69.940393 287.799772 
L 68.539788 289.819881 
L 67.095881 291.873169 
L 65.617609 293.957668 
L 64.113911 296.071411 
L 62.593727 298.212429 
L 61.065995 300.378754 
L 59.539653 302.568417 
L 58.023641 304.779451 
L 56.526897 307.009887 
L 55.05836 309.257757 
L 53.626968 311.521094 
L 52.241661 313.797927 
L 50.911376 316.086291 
L 49.645054 318.384215 
L 48.451631 320.689733 
L 47.340048 323.000876 
L 46.319243 325.315675 
L 45.398154 327.632163 
L 44.585721 329.948371 
L 43.890881 332.262331 
L 43.322575 334.572075 
L 42.88974 336.875635 
L 42.601315 339.171042 
L 42.466239 341.456329 
L 42.49345 343.729527 
L 42.691888 345.988667 
L 43.070491 348.231783 
L 43.637403 350.456676 
L 44.389173 352.657821 
L 45.313577 354.827172 
L 46.398174 356.956618 
L 47.630521 359.038052 
L 48.998178 361.063364 
L 50.488703 363.024446 
L 52.089655 364.913188 
L 53.788592 366.721483 
L 55.573073 368.44122 
L 57.430655 370.064292 
L 59.348899 371.582588 
L 61.315363 372.988001 
L 63.317604 374.272422 
L 65.343182 375.427741 
L 67.379655 376.44585 
L 69.414581 377.318639 
L 71.43552 378.038001 
L 73.430029 378.595826 
L 75.385668 378.984004 
L 77.289997 379.194432 
L 79.133657 379.222074 
L 80.916224 379.070819 
L 82.638886 378.746164 
L 84.302832 378.253605 
L 85.90925 377.59864 
L 87.459328 376.786767 
L 88.954256 375.823481 
L 90.395222 374.71428 
L 91.783413 373.464661 
L 93.12002 372.080121 
L 94.40623 370.566157 
L 95.643232 368.928267 
L 96.832214 367.171946 
L 97.974365 365.302693 
L 99.070873 363.326004 
L 100.122927 361.247376 
L 101.131715 359.072307 
L 102.098426 356.806293 
L 103.024249 354.454832 
L 103.910371 352.02342 
L 104.757982 349.517555 
L 105.56827 346.942733 
L 106.342423 344.304452 
L 107.08163 341.608208 
L 107.78708 338.859499 
L 108.45996 336.063822 
L 109.10146 333.226674 
L 109.712768 330.353552 
L 110.295073 327.449952 
L 110.849562 324.521373 
L 111.377425 321.57331 
L 111.87985 318.611262 
L 112.358025 315.640724 
L 112.81314 312.667195 
L 113.246382 309.696171 
L 113.65894 306.733149 
L 114.052002 303.783626 
L 114.426758 300.853099 
L 114.784395 297.947066 
L 115.126102 295.071024 
L 115.453068 292.230468 
L 115.766481 289.430897 
L 116.06753 286.677808 
L 116.357403 283.976697 
L 116.637288 281.333062 
L 116.908375 278.7524 
L 117.171851 276.240207 
L 117.428905 273.801981 
L 117.680726 271.443219 
L 117.928502 269.169417 
L 118.173422 266.986073 
L 118.416675 264.898685 
L 118.659448 262.912748 
L 118.90293 261.03376 
L 119.14831 259.267219 
L 119.396776 257.61862 
L 119.649517 256.093462 
L 119.907721 254.69724 
L 120.172577 253.435453 
L 120.445273 252.313597 
L 120.726998 251.33717 
L 121.018941 250.511668 
L 121.322289 249.842588 
L 121.638232 249.335428 
L 121.967957 248.995684 
L 122.312644 248.828748 
L 122.673082 248.835679 
L 123.049543 249.011792 
L 123.442261 249.352001 
L 123.851474 249.851222 
L 124.277416 250.504372 
L 124.720323 251.306365 
L 125.180432 252.252119 
L 125.657977 253.336549 
L 126.153195 254.55457 
L 126.666321 255.9011 
L 127.197592 257.371053 
L 127.747242 258.959345 
L 128.315508 260.660893 
L 128.902626 262.470612 
L 129.508831 264.383418 
L 130.134359 266.394227 
L 130.779445 268.497955 
L 131.444326 270.689518 
L 132.129237 272.963832 
L 132.834414 275.315812 
L 133.560093 277.740375 
L 134.306509 280.232436 
L 135.073899 282.786911 
L 135.862497 285.398716 
L 136.672541 288.062768 
L 137.504265 290.773981 
L 138.357905 293.527272 
L 139.233697 296.317557 
L 140.131877 299.139751 
L 141.052681 301.988771 
L 141.996343 304.859532 
L 142.963102 307.74695 
L 143.95319 310.645941 
L 144.966846 313.551421 
L 146.004304 316.458306 
L 147.0658 319.361512 
L 148.151569 322.255955 
L 149.261849 325.13655 
L 150.396874 327.998213 
L 151.55688 330.835861 
L 152.742102 333.644408 
L 153.952778 336.418772 
L 155.189142 339.153868 
L 156.45143 341.844612 
L 157.739878 344.485919 
L 159.054722 347.072706 
L 160.396197 349.599888 
L 161.76454 352.062382 
L 163.159985 354.455103 
L 164.582769 356.772968 
L 166.033128 359.010891 
L 167.511297 361.163789 
L 169.017512 363.226578 
L 170.552009 365.194173 
L 172.115023 367.061492 
L 173.70679 368.823448 
L 175.327547 370.474959 
L 176.977528 372.01094 
L 178.65697 373.426308 
L 180.366108 374.715977 
L 182.105179 375.874864 
L 183.874417 376.897885 
L 185.674059 377.779956 
L 187.50434 378.515992 
L 189.365496 379.10091 
L 191.257763 379.529624 
L 193.181377 379.797052 
L 195.136573 379.89811 
L 197.123587 379.827712 
L 199.142655 379.580775 
L 201.194012 379.152215 
L 203.275893 378.539949 
L 205.379732 377.752084 
L 207.495525 376.798884 
L 209.613268 375.690616 
L 211.722956 374.437544 
L 213.814584 373.049934 
L 215.878147 371.538051 
L 217.903641 369.912162 
L 219.881061 368.182532 
L 221.800402 366.359425 
L 223.651659 364.453109 
L 225.424828 362.473847 
L 227.109904 360.431907 
L 228.696882 358.337552 
L 230.175758 356.201049 
L 231.536526 354.032664 
L 232.769183 351.842661 
L 233.863722 349.641307 
L 234.810141 347.438866 
L 235.598433 345.245605 
L 236.218594 343.071788 
L 236.66062 340.927682 
L 236.914505 338.823551 
L 236.970245 336.769663 
L 236.817835 334.77628 
L 236.447271 332.853671 
L 235.848548 331.012099 
L 235.01166 329.261831 
L 233.930261 327.611018 
L 232.618882 326.055747 
L 231.099454 324.587829 
L 229.393917 323.199069 
L 227.524211 321.881273 
L 225.512274 320.626247 
L 223.380047 319.425796 
L 221.149469 318.271725 
L 218.842479 317.155842 
L 216.481018 316.06995 
L 214.087025 315.005856 
L 211.682438 313.955366 
L 209.289199 312.910285 
L 206.929247 311.862419 
L 204.62452 310.803573 
L 202.396959 309.725554 
L 200.268503 308.620166 
L 198.261092 307.479216 
L 196.396665 306.294509 
L 194.697162 305.057851 
L 193.184523 303.761047 
L 191.880686 302.395904 
L 190.807592 300.954226 
L 189.987181 299.427819 
L 189.4391 297.809718 
L 189.161278 296.104605 
L 189.139652 294.323592 
L 189.360035 292.477858 
L 189.808237 290.578583 
L 190.470073 288.636945 
L 191.331352 286.664125 
L 192.377888 284.671302 
L 193.595493 282.669655 
L 194.969978 280.670363 
L 196.487156 278.684606 
L 198.132839 276.723564 
L 199.892838 274.798415 
L 201.752967 272.920339 
L 203.699036 271.100515 
L 205.716859 269.350123 
L 207.792246 267.680342 
L 209.911011 266.102351 
L 212.058965 264.62733 
L 214.22192 263.266458 
L 216.385688 262.030915 
L 218.536082 260.93188 
L 220.658913 259.980532 
L 222.739994 259.188051 
L 224.765607 258.565145 
L 226.730082 258.114473 
L 228.63451 257.831931 
L 230.480191 257.713205 
L 232.268425 257.75398 
L 234.000513 257.949945 
L 235.677755 258.296784 
L 237.30145 258.790184 
L 238.872899 259.425831 
L 240.393402 260.199411 
L 241.864259 261.106612 
L 243.28677 262.143118 
L 244.662236 263.304617 
L 245.991957 264.586795 
L 247.277233 265.985337 
L 248.519363 267.49593 
L 249.719649 269.114261 
L 250.87939 270.836015 
L 251.999886 272.65688 
L 253.082438 274.57254 
L 254.128345 276.578683 
L 255.138909 278.670995 
L 256.115428 280.845161 
L 257.059204 283.096869 
L 257.971536 285.421804 
L 258.853725 287.815653 
L 259.70707 290.274103 
L 260.532872 292.792838 
L 261.332431 295.367546 
L 262.107047 297.993913 
L 262.85802 300.667625 
L 263.586651 303.384368 
L 264.29424 306.139829 
L 264.982086 308.929693 
L 265.65149 311.749648 
L 266.303752 314.59538 
L 266.940172 317.462574 
L 267.562051 320.346917 
L 268.170688 323.244095 
L 268.767384 326.149794 
L 269.353438 329.059702 
L 269.930152 331.969503 
L 270.498825 334.874885 
L 271.060757 337.771533 
L 271.617248 340.655134 
L 272.169599 343.521374 
L 272.71911 346.36594 
L 273.267081 349.184517 
L 273.814812 351.972792 
L 274.363603 354.726451 
L 274.914754 357.44118 
L 275.469566 360.112667 
L 276.029338 362.736596 
L 276.595372 365.308654 
L 277.168966 367.824528 
L 277.751422 370.279903 
L 278.344038 372.670467 
L 278.948117 374.991905 
L 279.564956 377.239903 
L 280.195858 379.410148 
L 280.842121 381.498326 
L 281.505047 383.500124 
L 282.185935 385.411227 
L 282.886085 387.227322 
L 283.606797 388.944095 
L 284.349373 390.557232 
L 285.115111 392.06242 
L 285.905312 393.455345 
L 286.721276 394.731694 
L 287.564304 395.887151 
L 288.435695 396.917405 
L 289.33675 397.81814 
L 290.268768 398.585044 
L 291.23305 399.213802 
L 292.230428 399.701238 
L 293.259714 400.049084 
L 294.319173 400.260392 
L 295.407074 400.338215 
L 296.521683 400.285608 
L 297.661267 400.105624 
L 298.824094 399.801315 
L 300.00843 399.375735 
L 301.212542 398.831938 
L 302.434697 398.172977 
L 303.673163 397.401905 
L 304.926206 396.521776 
L 306.192093 395.535643 
L 307.469092 394.44656 
L 308.755469 393.257579 
L 310.04949 391.971754 
L 311.349425 390.592139 
L 312.653538 389.121786 
L 313.960098 387.56375 
L 315.267371 385.921083 
L 316.573624 384.196839 
L 317.877124 382.394072 
L 319.176139 380.515834 
L 320.468935 378.565179 
L 321.753779 376.545161 
L 323.028939 374.458832 
L 324.29268 372.309246 
L 325.543271 370.099457 
L 326.778978 367.832518 
L 327.998069 365.511482 
L 329.198809 363.139402 
L 330.379467 360.719333 
L 331.538309 358.254326 
L 332.673602 355.747436 
L 333.783614 353.201717 
L 334.86661 350.62022 
L 335.920859 348.006001 
L 336.944627 345.362111 
L 337.936181 342.691605 
L 338.893789 339.997536 
L 339.815717 337.282957 
L 340.700232 334.550921 
L 341.545601 331.804482 
L 342.350091 329.046694 
L 343.11197 326.280609 
L 343.829503 323.509281 
L 344.500959 320.735764 
L 345.124604 317.96311 
L 345.698706 315.194373 
L 346.22153 312.432607 
L 346.691345 309.680865 
L 347.106417 306.9422 
L 347.465013 304.219665 
L 347.7654 301.516314 
L 348.005846 298.8352 
L 348.184617 296.179377 
L 348.299979 293.551898 
L 348.350201 290.955817 
L 348.33355 288.394186 
L 348.248291 285.870059 
L 348.092693 283.386489 
L 347.865021 280.946531 
L 347.563547 278.553234 
L 347.18731 276.208821 
L 346.737261 273.913469 
L 346.214633 271.667048 
L 345.620665 269.469427 
L 344.956592 267.320474 
L 344.223649 265.220059 
L 343.423074 263.16805 
L 342.556102 261.164316 
L 341.623969 259.208727 
L 340.627912 257.30115 
L 339.569167 255.441455 
L 338.44897 253.629511 
L 337.268557 251.865187 
L 336.029164 250.148351 
L 334.732027 248.478873 
L 333.378383 246.856621 
L 331.969468 245.281464 
L 330.506517 243.753272 
L 328.990767 242.271913 
L 327.423455 240.837255 
L 325.805815 239.449169 
L 324.139085 238.107522 
L 322.4245 236.812184 
L 320.663297 235.563024 
L 318.856712 234.35991 
L 317.005981 233.202712 
L 315.11234 232.091298 
L 313.177025 231.025536 
L 311.201272 230.005298 
L 309.186318 229.03045 
L 307.133399 228.100861 
L 305.04375 227.216402 
L 302.918608 226.37694 
L 300.75921 225.582345 
L 298.56679 224.832486 
L 296.342587 224.127231 
L 294.087834 223.466449 
L 291.803769 222.850009 
L 289.491629 222.27778 
L 287.152648 221.749631 
L 284.788063 221.265432 
L 282.39911 220.825049 
L 279.987026 220.428354 
L 277.553047 220.075214 
L 275.098408 219.765499 
L 272.624346 219.499077 
L 270.132097 219.275817 
L 267.622897 219.095588 
L 265.097982 218.95826 
L 262.558589 218.8637 
L 260.005953 218.811778 
L 257.441311 218.802363 
z
" clip-path="url(#p1b278cb816)" style="fill: #ff0000; opacity: 0.2; stroke: #ff0000; stroke-width: 0.3; stroke-linejoin: miter"/>
   </g>
   <g id="patch_19">
    <path d="M 7.2 401.23251 
L 7.2 217.8 
" style="fill: none"/>
   </g>
   <g id="patch_20">
    <path d="M 351 401.23251 
L 351 217.8 
" style="fill: none"/>
   </g>
   <g id="patch_21">
    <path d="M 7.2 401.23251 
L 351 401.23251 
" style="fill: none"/>
   </g>
   <g id="patch_22">
    <path d="M 7.2 217.8 
L 351 217.8 
" style="fill: none"/>
   </g>
   <g id="text_3">
    <!-- (c) Scale the sample based on distance. -->
    <g style="fill: #262626" transform="translate(72.381563 415.410086)scale(0.12 -0.12)">
     <use xlink:href="#LiberationSans-28"/>
     <use xlink:href="#LiberationSans-63" x="33.300781"/>
     <use xlink:href="#LiberationSans-29" x="83.300781"/>
     <use xlink:href="#LiberationSans-20" x="116.601562"/>
     <use xlink:href="#LiberationSans-53" x="144.384766"/>
     <use xlink:href="#LiberationSans-63" x="211.083984"/>
     <use xlink:href="#LiberationSans-61" x="261.083984"/>
     <use xlink:href="#LiberationSans-6c" x="316.699219"/>
     <use xlink:href="#LiberationSans-65" x="338.916016"/>
     <use xlink:href="#LiberationSans-20" x="394.53125"/>
     <use xlink:href="#LiberationSans-74" x="422.314453"/>
     <use xlink:href="#LiberationSans-68" x="450.097656"/>
     <use xlink:href="#LiberationSans-65" x="505.712891"/>
     <use xlink:href="#LiberationSans-20" x="561.328125"/>
     <use xlink:href="#LiberationSans-73" x="589.111328"/>
     <use xlink:href="#LiberationSans-61" x="639.111328"/>
     <use xlink:href="#LiberationSans-6d" x="694.726562"/>
     <use xlink:href="#LiberationSans-70" x="778.027344"/>
     <use xlink:href="#LiberationSans-6c" x="833.642578"/>
     <use xlink:href="#LiberationSans-65" x="855.859375"/>
     <use xlink:href="#LiberationSans-20" x="911.474609"/>
     <use xlink:href="#LiberationSans-62" x="939.257812"/>
     <use xlink:href="#LiberationSans-61" x="994.873047"/>
     <use xlink:href="#LiberationSans-73" x="1050.488281"/>
     <use xlink:href="#LiberationSans-65" x="1100.488281"/>
     <use xlink:href="#LiberationSans-64" x="1156.103516"/>
     <use xlink:href="#LiberationSans-20" x="1211.71875"/>
     <use xlink:href="#LiberationSans-6f" x="1239.501953"/>
     <use xlink:href="#LiberationSans-6e" x="1295.117188"/>
     <use xlink:href="#LiberationSans-20" x="1350.732422"/>
     <use xlink:href="#LiberationSans-64" x="1378.515625"/>
     <use xlink:href="#LiberationSans-69" x="1434.130859"/>
     <use xlink:href="#LiberationSans-73" x="1456.347656"/>
     <use xlink:href="#LiberationSans-74" x="1506.347656"/>
     <use xlink:href="#LiberationSans-61" x="1534.130859"/>
     <use xlink:href="#LiberationSans-6e" x="1589.746094"/>
     <use xlink:href="#LiberationSans-63" x="1645.361328"/>
     <use xlink:href="#LiberationSans-65" x="1695.361328"/>
     <use xlink:href="#LiberationSans-2e" x="1750.976562"/>
    </g>
   </g>
   <g id="PathCollection_5">
    <path d="M 116.57486 255.505973 
L 118.117139 255.505973 
L 118.117139 253.963695 
L 119.659417 253.963695 
L 119.659417 252.421416 
L 118.117139 252.421416 
L 118.117139 250.879138 
L 116.57486 250.879138 
L 116.57486 252.421416 
L 115.032582 252.421416 
L 115.032582 253.963695 
L 116.57486 253.963695 
z
" clip-path="url(#p1b278cb816)" style="fill: #d62728; fill-opacity: 0.8; stroke: #d62728; stroke-opacity: 0.8; stroke-width: 0.3"/>
    <path d="M 100.55493 311.674288 
L 104.316356 311.674288 
L 104.316356 307.912862 
L 108.077783 307.912862 
L 108.077783 304.151435 
L 104.316356 304.151435 
L 104.316356 300.390009 
L 100.55493 300.390009 
L 100.55493 304.151435 
L 96.793503 304.151435 
L 96.793503 307.912862 
L 100.55493 307.912862 
z
" clip-path="url(#p1b278cb816)" style="fill: #d62728; fill-opacity: 0.8; stroke: #d62728; stroke-opacity: 0.8; stroke-width: 0.3"/>
    <path d="M 97.205278 286.430702 
L 99.7083 286.430702 
L 99.7083 283.927679 
L 102.211322 283.927679 
L 102.211322 281.424657 
L 99.7083 281.424657 
L 99.7083 278.921635 
L 97.205278 278.921635 
L 97.205278 281.424657 
L 94.702255 281.424657 
L 94.702255 283.927679 
L 97.205278 283.927679 
z
" clip-path="url(#p1b278cb816)" style="fill: #d62728; fill-opacity: 0.8; stroke: #d62728; stroke-opacity: 0.8; stroke-width: 0.3"/>
    <path d="M 97.225034 316.998842 
L 99.89336 316.998842 
L 99.89336 314.330516 
L 102.561686 314.330516 
L 102.561686 311.66219 
L 99.89336 311.66219 
L 99.89336 308.993864 
L 97.225034 308.993864 
L 97.225034 311.66219 
L 94.556707 311.66219 
L 94.556707 314.330516 
L 97.225034 314.330516 
z
" clip-path="url(#p1b278cb816)" style="fill: #d62728; fill-opacity: 0.8; stroke: #d62728; stroke-opacity: 0.8; stroke-width: 0.3"/>
    <path d="M 76.28117 318.744935 
L 78.177838 318.744935 
L 78.177838 316.848267 
L 80.074506 316.848267 
L 80.074506 314.951598 
L 78.177838 314.951598 
L 78.177838 313.05493 
L 76.28117 313.05493 
L 76.28117 314.951598 
L 74.384502 314.951598 
L 74.384502 316.848267 
L 76.28117 316.848267 
z
" clip-path="url(#p1b278cb816)" style="fill: #d62728; fill-opacity: 0.8; stroke: #d62728; stroke-opacity: 0.8; stroke-width: 0.3"/>
    <path d="M 88.023178 293.281023 
L 90.516035 293.281023 
L 90.516035 290.788166 
L 93.008892 290.788166 
L 93.008892 288.295309 
L 90.516035 288.295309 
L 90.516035 285.802452 
L 88.023178 285.802452 
L 88.023178 288.295309 
L 85.53032 288.295309 
L 85.53032 290.788166 
L 88.023178 290.788166 
z
" clip-path="url(#p1b278cb816)" style="fill: #d62728; fill-opacity: 0.8; stroke: #d62728; stroke-opacity: 0.8; stroke-width: 0.3"/>
    <path d="M 90.251669 343.830793 
L 91.83174 343.830793 
L 91.83174 342.250722 
L 93.41181 342.250722 
L 93.41181 340.670651 
L 91.83174 340.670651 
L 91.83174 339.090581 
L 90.251669 339.090581 
L 90.251669 340.670651 
L 88.671599 340.670651 
L 88.671599 342.250722 
L 90.251669 342.250722 
z
" clip-path="url(#p1b278cb816)" style="fill: #d62728; fill-opacity: 0.8; stroke: #d62728; stroke-opacity: 0.8; stroke-width: 0.3"/>
    <path d="M 95.415341 300.980546 
L 98.965107 300.980546 
L 98.965107 297.43078 
L 102.514874 297.43078 
L 102.514874 293.881013 
L 98.965107 293.881013 
L 98.965107 290.331246 
L 95.415341 290.331246 
L 95.415341 293.881013 
L 91.865574 293.881013 
L 91.865574 297.43078 
L 95.415341 297.43078 
z
" clip-path="url(#p1b278cb816)" style="fill: #d62728; fill-opacity: 0.8; stroke: #d62728; stroke-opacity: 0.8; stroke-width: 0.3"/>
    <path d="M 85.77282 291.175985 
L 88.094237 291.175985 
L 88.094237 288.854568 
L 90.415654 288.854568 
L 90.415654 286.533151 
L 88.094237 286.533151 
L 88.094237 284.211734 
L 85.77282 284.211734 
L 85.77282 286.533151 
L 83.451403 286.533151 
L 83.451403 288.854568 
L 85.77282 288.854568 
z
" clip-path="url(#p1b278cb816)" style="fill: #d62728; fill-opacity: 0.8; stroke: #d62728; stroke-opacity: 0.8; stroke-width: 0.3"/>
    <path d="M 94.75188 312.224405 
L 97.726194 312.224405 
L 97.726194 309.250091 
L 100.700509 309.250091 
L 100.700509 306.275776 
L 97.726194 306.275776 
L 97.726194 303.301461 
L 94.75188 303.301461 
L 94.75188 306.275776 
L 91.777565 306.275776 
L 91.777565 309.250091 
L 94.75188 309.250091 
z
" clip-path="url(#p1b278cb816)" style="fill: #d62728; fill-opacity: 0.8; stroke: #d62728; stroke-opacity: 0.8; stroke-width: 0.3"/>
    <path d="M 95.518543 245.399074 
L 96.923418 245.399074 
L 96.923418 243.994198 
L 98.328294 243.994198 
L 98.328294 242.589323 
L 96.923418 242.589323 
L 96.923418 241.184448 
L 95.518543 241.184448 
L 95.518543 242.589323 
L 94.113667 242.589323 
L 94.113667 243.994198 
L 95.518543 243.994198 
z
" clip-path="url(#p1b278cb816)" style="fill: #d62728; fill-opacity: 0.8; stroke: #d62728; stroke-opacity: 0.8; stroke-width: 0.3"/>
    <path d="M 105.230919 333.604626 
L 107.102162 333.604626 
L 107.102162 331.733383 
L 108.973405 331.733383 
L 108.973405 329.86214 
L 107.102162 329.86214 
L 107.102162 327.990897 
L 105.230919 327.990897 
L 105.230919 329.86214 
L 103.359676 329.86214 
L 103.359676 331.733383 
L 105.230919 331.733383 
z
" clip-path="url(#p1b278cb816)" style="fill: #d62728; fill-opacity: 0.8; stroke: #d62728; stroke-opacity: 0.8; stroke-width: 0.3"/>
    <path d="M 82.781334 296.540212 
L 85.093712 296.540212 
L 85.093712 294.227833 
L 87.406091 294.227833 
L 87.406091 291.915454 
L 85.093712 291.915454 
L 85.093712 289.603075 
L 82.781334 289.603075 
L 82.781334 291.915454 
L 80.468955 291.915454 
L 80.468955 294.227833 
L 82.781334 294.227833 
z
" clip-path="url(#p1b278cb816)" style="fill: #d62728; fill-opacity: 0.8; stroke: #d62728; stroke-opacity: 0.8; stroke-width: 0.3"/>
   </g>
   <g id="PathCollection_6">
    <path d="M 120.207801 305.013441 
L 110.529841 305.013441 
L 110.529841 300.331964 
L 120.207801 300.331964 
L 120.207801 305.013441 
z
" clip-path="url(#p1b278cb816)" style="fill: #1f77b4; fill-opacity: 0.8; stroke: #1f77b4; stroke-opacity: 0.8; stroke-width: 0.3"/>
    <path d="M 135.847422 276.86119 
L 130.930201 276.86119 
L 130.930201 274.482604 
L 135.847422 274.482604 
L 135.847422 276.86119 
z
" clip-path="url(#p1b278cb816)" style="fill: #1f77b4; fill-opacity: 0.8; stroke: #1f77b4; stroke-opacity: 0.8; stroke-width: 0.3"/>
    <path d="M 112.570807 357.243359 
L 108.844216 357.243359 
L 108.844216 355.440711 
L 112.570807 355.440711 
L 112.570807 357.243359 
z
" clip-path="url(#p1b278cb816)" style="fill: #1f77b4; fill-opacity: 0.8; stroke: #1f77b4; stroke-opacity: 0.8; stroke-width: 0.3"/>
    <path d="M 134.472813 306.915783 
L 128.58046 306.915783 
L 128.58046 304.0655 
L 134.472813 304.0655 
L 134.472813 306.915783 
z
" clip-path="url(#p1b278cb816)" style="fill: #1f77b4; fill-opacity: 0.8; stroke: #1f77b4; stroke-opacity: 0.8; stroke-width: 0.3"/>
    <path d="M 109.954663 342.66749 
L 105.632468 342.66749 
L 105.632468 340.576734 
L 109.954663 340.576734 
L 109.954663 342.66749 
z
" clip-path="url(#p1b278cb816)" style="fill: #1f77b4; fill-opacity: 0.8; stroke: #1f77b4; stroke-opacity: 0.8; stroke-width: 0.3"/>
    <path d="M 122.845868 336.579016 
L 118.299828 336.579016 
L 118.299828 334.37998 
L 122.845868 334.37998 
L 122.845868 336.579016 
z
" clip-path="url(#p1b278cb816)" style="fill: #1f77b4; fill-opacity: 0.8; stroke: #1f77b4; stroke-opacity: 0.8; stroke-width: 0.3"/>
    <path d="M 111.986938 358.630002 
L 108.303657 358.630002 
L 108.303657 356.848304 
L 111.986938 356.848304 
L 111.986938 358.630002 
z
" clip-path="url(#p1b278cb816)" style="fill: #1f77b4; fill-opacity: 0.8; stroke: #1f77b4; stroke-opacity: 0.8; stroke-width: 0.3"/>
   </g>
   <g id="PathCollection_7">
    <defs>
     <path id="m566e531ad2" d="M -2.635231 7.905694 
L 2.635231 7.905694 
L 2.635231 2.635231 
L 7.905694 2.635231 
L 7.905694 -2.635231 
L 2.635231 -2.635231 
L 2.635231 -7.905694 
L -2.635231 -7.905694 
L -2.635231 -2.635231 
L -7.905694 -2.635231 
L -7.905694 2.635231 
L -2.635231 2.635231 
z
" style="stroke: #2ca02c; stroke-opacity: 0.9; stroke-width: 2"/>
    </defs>
    <g clip-path="url(#p1b278cb816)">
     <use xlink:href="#m566e531ad2" x="106.394754" y="298.991439" style="fill: #d62728; fill-opacity: 0.9; stroke: #2ca02c; stroke-opacity: 0.9; stroke-width: 2"/>
    </g>
   </g>
  </g>
  <g id="axes_4">
   <g id="patch_23">
    <path d="M 361.8 401.23251 
L 705.6 401.23251 
L 705.6 217.8 
L 361.8 217.8 
z
" style="fill: #eaeaf2"/>
   </g>
   <g id="matplotlib.axis_7"/>
   <g id="matplotlib.axis_8"/>
   <g id="patch_24">
    <path d="M 352.782295 409.251417 
L 724.762623 409.251417 
L 724.762623 208.778729 
L 352.782295 208.778729 
z
" clip-path="url(#p28d847339f)" style="fill: #0000ff; opacity: 0.1"/>
   </g>
   <g id="patch_25">
    <path d="M 364.054426 238.849632 
L 365.268266 239.834611 
L 366.684992 240.75282 
L 368.290394 241.608935 
L 370.070265 242.407632 
L 372.010395 243.153587 
L 374.096574 243.851476 
L 376.314595 244.505977 
L 378.650247 245.121764 
L 381.089323 245.703515 
L 383.617612 246.255905 
L 386.220907 246.78361 
L 388.884998 247.291308 
L 391.595675 247.783673 
L 394.338731 248.265383 
L 397.099955 248.741114 
L 399.86514 249.215541 
L 402.620076 249.693341 
L 405.350553 250.17919 
L 408.042364 250.677765 
L 410.681299 251.193741 
L 413.253149 251.731795 
L 415.743705 252.296604 
L 418.138758 252.892842 
L 420.424099 253.525187 
L 422.585519 254.198315 
L 424.608809 254.916902 
L 426.479761 255.685624 
L 428.184164 256.509157 
L 429.707811 257.392178 
L 431.036491 258.339362 
L 432.156331 259.355291 
L 433.063701 260.441604 
L 433.766871 261.596523 
L 434.274779 262.818082 
L 434.596365 264.104311 
L 434.740568 265.453244 
L 434.716325 266.86291 
L 434.532576 268.331343 
L 434.198259 269.856574 
L 433.722314 271.436635 
L 433.113678 273.069557 
L 432.381291 274.753373 
L 431.534091 276.486114 
L 430.581017 278.265812 
L 429.531008 280.090499 
L 428.393002 281.958207 
L 427.175939 283.866967 
L 425.888756 285.814812 
L 424.540393 287.799772 
L 423.139788 289.819881 
L 421.695881 291.873169 
L 420.217609 293.957668 
L 418.713911 296.071411 
L 417.193727 298.212429 
L 415.665995 300.378754 
L 414.139653 302.568417 
L 412.623641 304.779451 
L 411.126897 307.009887 
L 409.65836 309.257757 
L 408.226968 311.521094 
L 406.841661 313.797927 
L 405.511376 316.086291 
L 404.245054 318.384215 
L 403.051631 320.689733 
L 401.940048 323.000876 
L 400.919243 325.315675 
L 399.998154 327.632163 
L 399.185721 329.948371 
L 398.490881 332.262331 
L 397.922575 334.572075 
L 397.48974 336.875635 
L 397.201315 339.171042 
L 397.066239 341.456329 
L 397.09345 343.729527 
L 397.291888 345.988667 
L 397.670491 348.231783 
L 398.237403 350.456676 
L 398.989173 352.657821 
L 399.913577 354.827172 
L 400.998174 356.956618 
L 402.230521 359.038052 
L 403.598178 361.063364 
L 405.088703 363.024446 
L 406.689655 364.913188 
L 408.388592 366.721483 
L 410.173073 368.44122 
L 412.030655 370.064292 
L 413.948899 371.582588 
L 415.915363 372.988001 
L 417.917604 374.272422 
L 419.943182 375.427741 
L 421.979655 376.44585 
L 424.014581 377.318639 
L 426.03552 378.038001 
L 428.030029 378.595826 
L 429.985668 378.984004 
L 431.889997 379.194432 
L 433.733657 379.222074 
L 435.516224 379.070819 
L 437.238886 378.746164 
L 438.902832 378.253605 
L 440.50925 377.59864 
L 442.059328 376.786767 
L 443.554256 375.823481 
L 444.995222 374.71428 
L 446.383413 373.464661 
L 447.72002 372.080121 
L 449.00623 370.566157 
L 450.243232 368.928267 
L 451.432214 367.171946 
L 452.574365 365.302693 
L 453.670873 363.326004 
L 454.722927 361.247376 
L 455.731715 359.072307 
L 456.698426 356.806293 
L 457.624249 354.454832 
L 458.510371 352.02342 
L 459.357982 349.517555 
L 460.16827 346.942733 
L 460.942423 344.304452 
L 461.68163 341.608208 
L 462.38708 338.859499 
L 463.05996 336.063822 
L 463.70146 333.226674 
L 464.312768 330.353552 
L 464.895073 327.449952 
L 465.449562 324.521373 
L 465.977425 321.57331 
L 466.47985 318.611262 
L 466.958025 315.640724 
L 467.41314 312.667195 
L 467.846382 309.696171 
L 468.25894 306.733149 
L 468.652002 303.783626 
L 469.026758 300.853099 
L 469.384395 297.947066 
L 469.726102 295.071024 
L 470.053068 292.230468 
L 470.366481 289.430897 
L 470.66753 286.677808 
L 470.957403 283.976697 
L 471.237288 281.333062 
L 471.508375 278.7524 
L 471.771851 276.240207 
L 472.028905 273.801981 
L 472.280726 271.443219 
L 472.528502 269.169417 
L 472.773422 266.986073 
L 473.016675 264.898685 
L 473.259448 262.912748 
L 473.50293 261.03376 
L 473.74831 259.267219 
L 473.996776 257.61862 
L 474.249517 256.093462 
L 474.507721 254.69724 
L 474.772577 253.435453 
L 475.045273 252.313597 
L 475.326998 251.33717 
L 475.618941 250.511668 
L 475.922289 249.842588 
L 476.238232 249.335428 
L 476.567957 248.995684 
L 476.912644 248.828748 
L 477.273082 248.835679 
L 477.649543 249.011792 
L 478.042261 249.352001 
L 478.451474 249.851222 
L 478.877416 250.504372 
L 479.320323 251.306365 
L 479.780432 252.252119 
L 480.257977 253.336549 
L 480.753195 254.55457 
L 481.266321 255.9011 
L 481.797592 257.371053 
L 482.347242 258.959345 
L 482.915508 260.660893 
L 483.502626 262.470612 
L 484.108831 264.383418 
L 484.734359 266.394227 
L 485.379445 268.497955 
L 486.044326 270.689518 
L 486.729237 272.963832 
L 487.434414 275.315812 
L 488.160093 277.740375 
L 488.906509 280.232436 
L 489.673899 282.786911 
L 490.462497 285.398716 
L 491.272541 288.062768 
L 492.104265 290.773981 
L 492.957905 293.527272 
L 493.833697 296.317557 
L 494.731877 299.139751 
L 495.652681 301.988771 
L 496.596343 304.859532 
L 497.563102 307.74695 
L 498.55319 310.645941 
L 499.566846 313.551421 
L 500.604304 316.458306 
L 501.6658 319.361512 
L 502.751569 322.255955 
L 503.861849 325.13655 
L 504.996874 327.998213 
L 506.15688 330.835861 
L 507.342102 333.644408 
L 508.552778 336.418772 
L 509.789142 339.153868 
L 511.05143 341.844612 
L 512.339878 344.485919 
L 513.654722 347.072706 
L 514.996197 349.599888 
L 516.36454 352.062382 
L 517.759985 354.455103 
L 519.182769 356.772968 
L 520.633128 359.010891 
L 522.111297 361.163789 
L 523.617512 363.226578 
L 525.152009 365.194173 
L 526.715023 367.061492 
L 528.30679 368.823448 
L 529.927547 370.474959 
L 531.577528 372.01094 
L 533.25697 373.426308 
L 534.966108 374.715977 
L 536.705179 375.874864 
L 538.474417 376.897885 
L 540.274059 377.779956 
L 542.10434 378.515992 
L 543.965496 379.10091 
L 545.857763 379.529624 
L 547.781377 379.797052 
L 549.736573 379.89811 
L 551.723587 379.827712 
L 553.742655 379.580775 
L 555.794012 379.152215 
L 557.875893 378.539949 
L 559.979732 377.752084 
L 562.095525 376.798884 
L 564.213268 375.690616 
L 566.322956 374.437544 
L 568.414584 373.049934 
L 570.478147 371.538051 
L 572.503641 369.912162 
L 574.481061 368.182532 
L 576.400402 366.359425 
L 578.251659 364.453109 
L 580.024828 362.473847 
L 581.709904 360.431907 
L 583.296882 358.337552 
L 584.775758 356.201049 
L 586.136526 354.032664 
L 587.369183 351.842661 
L 588.463722 349.641307 
L 589.410141 347.438866 
L 590.198433 345.245605 
L 590.818594 343.071788 
L 591.26062 340.927682 
L 591.514505 338.823551 
L 591.570245 336.769663 
L 591.417835 334.77628 
L 591.047271 332.853671 
L 590.448548 331.012099 
L 589.61166 329.261831 
L 588.530261 327.611018 
L 587.218882 326.055747 
L 585.699454 324.587829 
L 583.993917 323.199069 
L 582.124211 321.881273 
L 580.112274 320.626247 
L 577.980047 319.425796 
L 575.749469 318.271725 
L 573.442479 317.155842 
L 571.081018 316.06995 
L 568.687025 315.005856 
L 566.282438 313.955366 
L 563.889199 312.910285 
L 561.529247 311.862419 
L 559.22452 310.803573 
L 556.996959 309.725554 
L 554.868503 308.620166 
L 552.861092 307.479216 
L 550.996665 306.294509 
L 549.297162 305.057851 
L 547.784523 303.761047 
L 546.480686 302.395904 
L 545.407592 300.954226 
L 544.587181 299.427819 
L 544.0391 297.809718 
L 543.761278 296.104605 
L 543.739652 294.323592 
L 543.960035 292.477858 
L 544.408237 290.578583 
L 545.070073 288.636945 
L 545.931352 286.664125 
L 546.977888 284.671302 
L 548.195493 282.669655 
L 549.569978 280.670363 
L 551.087156 278.684606 
L 552.732839 276.723564 
L 554.492838 274.798415 
L 556.352967 272.920339 
L 558.299036 271.100515 
L 560.316859 269.350123 
L 562.392246 267.680342 
L 564.511011 266.102351 
L 566.658965 264.62733 
L 568.82192 263.266458 
L 570.985688 262.030915 
L 573.136082 260.93188 
L 575.258913 259.980532 
L 577.339994 259.188051 
L 579.365607 258.565145 
L 581.330082 258.114473 
L 583.23451 257.831931 
L 585.080191 257.713205 
L 586.868425 257.75398 
L 588.600513 257.949945 
L 590.277755 258.296784 
L 591.90145 258.790184 
L 593.472899 259.425831 
L 594.993402 260.199411 
L 596.464259 261.106612 
L 597.88677 262.143118 
L 599.262236 263.304617 
L 600.591957 264.586795 
L 601.877233 265.985337 
L 603.119363 267.49593 
L 604.319649 269.114261 
L 605.47939 270.836015 
L 606.599886 272.65688 
L 607.682438 274.57254 
L 608.728345 276.578683 
L 609.738909 278.670995 
L 610.715428 280.845161 
L 611.659204 283.096869 
L 612.571536 285.421804 
L 613.453725 287.815653 
L 614.30707 290.274103 
L 615.132872 292.792838 
L 615.932431 295.367546 
L 616.707047 297.993913 
L 617.45802 300.667625 
L 618.186651 303.384368 
L 618.89424 306.139829 
L 619.582086 308.929693 
L 620.25149 311.749648 
L 620.903752 314.59538 
L 621.540172 317.462574 
L 622.162051 320.346917 
L 622.770688 323.244095 
L 623.367384 326.149794 
L 623.953438 329.059702 
L 624.530152 331.969503 
L 625.098825 334.874885 
L 625.660757 337.771533 
L 626.217248 340.655134 
L 626.769599 343.521374 
L 627.31911 346.36594 
L 627.867081 349.184517 
L 628.414812 351.972792 
L 628.963603 354.726451 
L 629.514754 357.44118 
L 630.069566 360.112667 
L 630.629338 362.736596 
L 631.195372 365.308654 
L 631.768966 367.824528 
L 632.351422 370.279903 
L 632.944038 372.670467 
L 633.548117 374.991905 
L 634.164956 377.239903 
L 634.795858 379.410148 
L 635.442121 381.498326 
L 636.105047 383.500124 
L 636.785935 385.411227 
L 637.486085 387.227322 
L 638.206797 388.944095 
L 638.949373 390.557232 
L 639.715111 392.06242 
L 640.505312 393.455345 
L 641.321276 394.731694 
L 642.164304 395.887151 
L 643.035695 396.917405 
L 643.93675 397.81814 
L 644.868768 398.585044 
L 645.83305 399.213802 
L 646.830428 399.701238 
L 647.859714 400.049084 
L 648.919173 400.260392 
L 650.007074 400.338215 
L 651.121683 400.285608 
L 652.261267 400.105624 
L 653.424094 399.801315 
L 654.60843 399.375735 
L 655.812542 398.831938 
L 657.034697 398.172977 
L 658.273163 397.401905 
L 659.526206 396.521776 
L 660.792093 395.535643 
L 662.069092 394.44656 
L 663.355469 393.257579 
L 664.64949 391.971754 
L 665.949425 390.592139 
L 667.253538 389.121786 
L 668.560098 387.56375 
L 669.867371 385.921083 
L 671.173624 384.196839 
L 672.477124 382.394072 
L 673.776139 380.515834 
L 675.068935 378.565179 
L 676.353779 376.545161 
L 677.628939 374.458832 
L 678.89268 372.309246 
L 680.143271 370.099457 
L 681.378978 367.832518 
L 682.598069 365.511482 
L 683.798809 363.139402 
L 684.979467 360.719333 
L 686.138309 358.254326 
L 687.273602 355.747436 
L 688.383614 353.201717 
L 689.46661 350.62022 
L 690.520859 348.006001 
L 691.544627 345.362111 
L 692.536181 342.691605 
L 693.493789 339.997536 
L 694.415717 337.282957 
L 695.300232 334.550921 
L 696.145601 331.804482 
L 696.950091 329.046694 
L 697.71197 326.280609 
L 698.429503 323.509281 
L 699.100959 320.735764 
L 699.724604 317.96311 
L 700.298706 315.194373 
L 700.82153 312.432607 
L 701.291345 309.680865 
L 701.706417 306.9422 
L 702.065013 304.219665 
L 702.3654 301.516314 
L 702.605846 298.8352 
L 702.784617 296.179377 
L 702.899979 293.551898 
L 702.950201 290.955817 
L 702.93355 288.394186 
L 702.848291 285.870059 
L 702.692693 283.386489 
L 702.465021 280.946531 
L 702.163547 278.553234 
L 701.78731 276.208821 
L 701.337261 273.913469 
L 700.814633 271.667048 
L 700.220665 269.469427 
L 699.556592 267.320474 
L 698.823649 265.220059 
L 698.023074 263.16805 
L 697.156102 261.164316 
L 696.223969 259.208727 
L 695.227912 257.30115 
L 694.169167 255.441455 
L 693.04897 253.629511 
L 691.868557 251.865187 
L 690.629164 250.148351 
L 689.332027 248.478873 
L 687.978383 246.856621 
L 686.569468 245.281464 
L 685.106517 243.753272 
L 683.590767 242.271913 
L 682.023455 240.837255 
L 680.405815 239.449169 
L 678.739085 238.107522 
L 677.0245 236.812184 
L 675.263297 235.563024 
L 673.456712 234.35991 
L 671.605981 233.202712 
L 669.71234 232.091298 
L 667.777025 231.025536 
L 665.801272 230.005298 
L 663.786318 229.03045 
L 661.733399 228.100861 
L 659.64375 227.216402 
L 657.518608 226.37694 
L 655.35921 225.582345 
L 653.16679 224.832486 
L 650.942587 224.127231 
L 648.687834 223.466449 
L 646.403769 222.850009 
L 644.091629 222.27778 
L 641.752648 221.749631 
L 639.388063 221.265432 
L 636.99911 220.825049 
L 634.587026 220.428354 
L 632.153047 220.075214 
L 629.698408 219.765499 
L 627.224346 219.499077 
L 624.732097 219.275817 
L 622.222897 219.095588 
L 619.697982 218.95826 
L 617.158589 218.8637 
L 614.605953 218.811778 
L 612.041311 218.802363 
z
" clip-path="url(#p28d847339f)" style="fill: #ff0000; opacity: 0.2; stroke: #ff0000; stroke-width: 0.3; stroke-linejoin: miter"/>
   </g>
   <g id="line2d_1">
    <path d="M 449.722623 419.275052 
L 480.157377 218.802363 
" clip-path="url(#p28d847339f)" style="fill: none; stroke-dasharray: 11.1,4.8; stroke-dashoffset: 0; stroke: #000000; stroke-opacity: 0.7; stroke-width: 3"/>
   </g>
   <g id="patch_26">
    <path d="M 361.8 401.23251 
L 361.8 217.8 
" style="fill: none"/>
   </g>
   <g id="patch_27">
    <path d="M 705.6 401.23251 
L 705.6 217.8 
" style="fill: none"/>
   </g>
   <g id="patch_28">
    <path d="M 361.8 401.23251 
L 705.6 401.23251 
" style="fill: none"/>
   </g>
   <g id="patch_29">
    <path d="M 361.8 217.8 
L 705.6 217.8 
" style="fill: none"/>
   </g>
   <g id="text_4">
    <!-- (d) Fit a linear surrogate. -->
    <g style="fill: #262626" transform="translate(468.013125 415.410086)scale(0.12 -0.12)">
     <defs>
      <path id="LiberationSans-46" d="M 1122 3916 
L 1122 2278 
L 3578 2278 
L 3578 1784 
L 1122 1784 
L 1122 0 
L 525 0 
L 525 4403 
L 3653 4403 
L 3653 3916 
L 1122 3916 
z
" transform="scale(0.015625)"/>
     </defs>
     <use xlink:href="#LiberationSans-28"/>
     <use xlink:href="#LiberationSans-64" x="33.300781"/>
     <use xlink:href="#LiberationSans-29" x="88.916016"/>
     <use xlink:href="#LiberationSans-20" x="122.216797"/>
     <use xlink:href="#LiberationSans-46" x="150"/>
     <use xlink:href="#LiberationSans-69" x="211.083984"/>
     <use xlink:href="#LiberationSans-74" x="233.300781"/>
     <use xlink:href="#LiberationSans-20" x="261.083984"/>
     <use xlink:href="#LiberationSans-61" x="288.867188"/>
     <use xlink:href="#LiberationSans-20" x="344.482422"/>
     <use xlink:href="#LiberationSans-6c" x="372.265625"/>
     <use xlink:href="#LiberationSans-69" x="394.482422"/>
     <use xlink:href="#LiberationSans-6e" x="416.699219"/>
     <use xlink:href="#LiberationSans-65" x="472.314453"/>
     <use xlink:href="#LiberationSans-61" x="527.929688"/>
     <use xlink:href="#LiberationSans-72" x="583.544922"/>
     <use xlink:href="#LiberationSans-20" x="616.845703"/>
     <use xlink:href="#LiberationSans-73" x="644.628906"/>
     <use xlink:href="#LiberationSans-75" x="694.628906"/>
     <use xlink:href="#LiberationSans-72" x="750.244141"/>
     <use xlink:href="#LiberationSans-72" x="783.544922"/>
     <use xlink:href="#LiberationSans-6f" x="816.845703"/>
     <use xlink:href="#LiberationSans-67" x="872.460938"/>
     <use xlink:href="#LiberationSans-61" x="928.076172"/>
     <use xlink:href="#LiberationSans-74" x="983.691406"/>
     <use xlink:href="#LiberationSans-65" x="1011.474609"/>
     <use xlink:href="#LiberationSans-2e" x="1067.089844"/>
    </g>
   </g>
   <g id="PathCollection_8">
    <path d="M 471.17486 255.505973 
L 472.717139 255.505973 
L 472.717139 253.963695 
L 474.259417 253.963695 
L 474.259417 252.421416 
L 472.717139 252.421416 
L 472.717139 250.879138 
L 471.17486 250.879138 
L 471.17486 252.421416 
L 469.632582 252.421416 
L 469.632582 253.963695 
L 471.17486 253.963695 
z
" clip-path="url(#p28d847339f)" style="fill: #d62728; fill-opacity: 0.8; stroke: #d62728; stroke-opacity: 0.8; stroke-width: 0.3"/>
    <path d="M 455.15493 311.674288 
L 458.916356 311.674288 
L 458.916356 307.912862 
L 462.677783 307.912862 
L 462.677783 304.151435 
L 458.916356 304.151435 
L 458.916356 300.390009 
L 455.15493 300.390009 
L 455.15493 304.151435 
L 451.393503 304.151435 
L 451.393503 307.912862 
L 455.15493 307.912862 
z
" clip-path="url(#p28d847339f)" style="fill: #d62728; fill-opacity: 0.8; stroke: #d62728; stroke-opacity: 0.8; stroke-width: 0.3"/>
    <path d="M 451.805278 286.430702 
L 454.3083 286.430702 
L 454.3083 283.927679 
L 456.811322 283.927679 
L 456.811322 281.424657 
L 454.3083 281.424657 
L 454.3083 278.921635 
L 451.805278 278.921635 
L 451.805278 281.424657 
L 449.302255 281.424657 
L 449.302255 283.927679 
L 451.805278 283.927679 
z
" clip-path="url(#p28d847339f)" style="fill: #d62728; fill-opacity: 0.8; stroke: #d62728; stroke-opacity: 0.8; stroke-width: 0.3"/>
    <path d="M 451.825034 316.998842 
L 454.49336 316.998842 
L 454.49336 314.330516 
L 457.161686 314.330516 
L 457.161686 311.66219 
L 454.49336 311.66219 
L 454.49336 308.993864 
L 451.825034 308.993864 
L 451.825034 311.66219 
L 449.156707 311.66219 
L 449.156707 314.330516 
L 451.825034 314.330516 
z
" clip-path="url(#p28d847339f)" style="fill: #d62728; fill-opacity: 0.8; stroke: #d62728; stroke-opacity: 0.8; stroke-width: 0.3"/>
    <path d="M 430.88117 318.744935 
L 432.777838 318.744935 
L 432.777838 316.848267 
L 434.674506 316.848267 
L 434.674506 314.951598 
L 432.777838 314.951598 
L 432.777838 313.05493 
L 430.88117 313.05493 
L 430.88117 314.951598 
L 428.984502 314.951598 
L 428.984502 316.848267 
L 430.88117 316.848267 
z
" clip-path="url(#p28d847339f)" style="fill: #d62728; fill-opacity: 0.8; stroke: #d62728; stroke-opacity: 0.8; stroke-width: 0.3"/>
    <path d="M 442.623178 293.281023 
L 445.116035 293.281023 
L 445.116035 290.788166 
L 447.608892 290.788166 
L 447.608892 288.295309 
L 445.116035 288.295309 
L 445.116035 285.802452 
L 442.623178 285.802452 
L 442.623178 288.295309 
L 440.13032 288.295309 
L 440.13032 290.788166 
L 442.623178 290.788166 
z
" clip-path="url(#p28d847339f)" style="fill: #d62728; fill-opacity: 0.8; stroke: #d62728; stroke-opacity: 0.8; stroke-width: 0.3"/>
    <path d="M 444.851669 343.830793 
L 446.43174 343.830793 
L 446.43174 342.250722 
L 448.01181 342.250722 
L 448.01181 340.670651 
L 446.43174 340.670651 
L 446.43174 339.090581 
L 444.851669 339.090581 
L 444.851669 340.670651 
L 443.271599 340.670651 
L 443.271599 342.250722 
L 444.851669 342.250722 
z
" clip-path="url(#p28d847339f)" style="fill: #d62728; fill-opacity: 0.8; stroke: #d62728; stroke-opacity: 0.8; stroke-width: 0.3"/>
    <path d="M 450.015341 300.980546 
L 453.565107 300.980546 
L 453.565107 297.43078 
L 457.114874 297.43078 
L 457.114874 293.881013 
L 453.565107 293.881013 
L 453.565107 290.331246 
L 450.015341 290.331246 
L 450.015341 293.881013 
L 446.465574 293.881013 
L 446.465574 297.43078 
L 450.015341 297.43078 
z
" clip-path="url(#p28d847339f)" style="fill: #d62728; fill-opacity: 0.8; stroke: #d62728; stroke-opacity: 0.8; stroke-width: 0.3"/>
    <path d="M 440.37282 291.175985 
L 442.694237 291.175985 
L 442.694237 288.854568 
L 445.015654 288.854568 
L 445.015654 286.533151 
L 442.694237 286.533151 
L 442.694237 284.211734 
L 440.37282 284.211734 
L 440.37282 286.533151 
L 438.051403 286.533151 
L 438.051403 288.854568 
L 440.37282 288.854568 
z
" clip-path="url(#p28d847339f)" style="fill: #d62728; fill-opacity: 0.8; stroke: #d62728; stroke-opacity: 0.8; stroke-width: 0.3"/>
    <path d="M 449.35188 312.224405 
L 452.326194 312.224405 
L 452.326194 309.250091 
L 455.300509 309.250091 
L 455.300509 306.275776 
L 452.326194 306.275776 
L 452.326194 303.301461 
L 449.35188 303.301461 
L 449.35188 306.275776 
L 446.377565 306.275776 
L 446.377565 309.250091 
L 449.35188 309.250091 
z
" clip-path="url(#p28d847339f)" style="fill: #d62728; fill-opacity: 0.8; stroke: #d62728; stroke-opacity: 0.8; stroke-width: 0.3"/>
    <path d="M 450.118543 245.399074 
L 451.523418 245.399074 
L 451.523418 243.994198 
L 452.928294 243.994198 
L 452.928294 242.589323 
L 451.523418 242.589323 
L 451.523418 241.184448 
L 450.118543 241.184448 
L 450.118543 242.589323 
L 448.713667 242.589323 
L 448.713667 243.994198 
L 450.118543 243.994198 
z
" clip-path="url(#p28d847339f)" style="fill: #d62728; fill-opacity: 0.8; stroke: #d62728; stroke-opacity: 0.8; stroke-width: 0.3"/>
    <path d="M 459.830919 333.604626 
L 461.702162 333.604626 
L 461.702162 331.733383 
L 463.573405 331.733383 
L 463.573405 329.86214 
L 461.702162 329.86214 
L 461.702162 327.990897 
L 459.830919 327.990897 
L 459.830919 329.86214 
L 457.959676 329.86214 
L 457.959676 331.733383 
L 459.830919 331.733383 
z
" clip-path="url(#p28d847339f)" style="fill: #d62728; fill-opacity: 0.8; stroke: #d62728; stroke-opacity: 0.8; stroke-width: 0.3"/>
    <path d="M 437.381334 296.540212 
L 439.693712 296.540212 
L 439.693712 294.227833 
L 442.006091 294.227833 
L 442.006091 291.915454 
L 439.693712 291.915454 
L 439.693712 289.603075 
L 437.381334 289.603075 
L 437.381334 291.915454 
L 435.068955 291.915454 
L 435.068955 294.227833 
L 437.381334 294.227833 
z
" clip-path="url(#p28d847339f)" style="fill: #d62728; fill-opacity: 0.8; stroke: #d62728; stroke-opacity: 0.8; stroke-width: 0.3"/>
   </g>
   <g id="PathCollection_9">
    <path d="M 474.807801 305.013441 
L 465.129841 305.013441 
L 465.129841 300.331964 
L 474.807801 300.331964 
L 474.807801 305.013441 
z
" clip-path="url(#p28d847339f)" style="fill: #1f77b4; fill-opacity: 0.8; stroke: #1f77b4; stroke-opacity: 0.8; stroke-width: 0.3"/>
    <path d="M 490.447422 276.86119 
L 485.530201 276.86119 
L 485.530201 274.482604 
L 490.447422 274.482604 
L 490.447422 276.86119 
z
" clip-path="url(#p28d847339f)" style="fill: #1f77b4; fill-opacity: 0.8; stroke: #1f77b4; stroke-opacity: 0.8; stroke-width: 0.3"/>
    <path d="M 467.170807 357.243359 
L 463.444216 357.243359 
L 463.444216 355.440711 
L 467.170807 355.440711 
L 467.170807 357.243359 
z
" clip-path="url(#p28d847339f)" style="fill: #1f77b4; fill-opacity: 0.8; stroke: #1f77b4; stroke-opacity: 0.8; stroke-width: 0.3"/>
    <path d="M 489.072813 306.915783 
L 483.18046 306.915783 
L 483.18046 304.0655 
L 489.072813 304.0655 
L 489.072813 306.915783 
z
" clip-path="url(#p28d847339f)" style="fill: #1f77b4; fill-opacity: 0.8; stroke: #1f77b4; stroke-opacity: 0.8; stroke-width: 0.3"/>
    <path d="M 464.554663 342.66749 
L 460.232468 342.66749 
L 460.232468 340.576734 
L 464.554663 340.576734 
L 464.554663 342.66749 
z
" clip-path="url(#p28d847339f)" style="fill: #1f77b4; fill-opacity: 0.8; stroke: #1f77b4; stroke-opacity: 0.8; stroke-width: 0.3"/>
    <path d="M 477.445868 336.579016 
L 472.899828 336.579016 
L 472.899828 334.37998 
L 477.445868 334.37998 
L 477.445868 336.579016 
z
" clip-path="url(#p28d847339f)" style="fill: #1f77b4; fill-opacity: 0.8; stroke: #1f77b4; stroke-opacity: 0.8; stroke-width: 0.3"/>
    <path d="M 466.586938 358.630002 
L 462.903657 358.630002 
L 462.903657 356.848304 
L 466.586938 356.848304 
L 466.586938 358.630002 
z
" clip-path="url(#p28d847339f)" style="fill: #1f77b4; fill-opacity: 0.8; stroke: #1f77b4; stroke-opacity: 0.8; stroke-width: 0.3"/>
   </g>
   <g id="PathCollection_10">
    <g clip-path="url(#p28d847339f)">
     <use xlink:href="#m566e531ad2" x="460.994754" y="298.991439" style="fill: #d62728; fill-opacity: 0.9; stroke: #2ca02c; stroke-opacity: 0.9; stroke-width: 2"/>
    </g>
   </g>
  </g>
 </g>
 <defs>
  <clipPath id="pc17cdf8661">
   <rect x="7.2" y="7.2" width="343.8" height="183.43251"/>
  </clipPath>
  <clipPath id="p9fc1e6b461">
   <rect x="361.8" y="7.2" width="343.8" height="183.43251"/>
  </clipPath>
  <clipPath id="p1b278cb816">
   <rect x="7.2" y="217.8" width="343.8" height="183.43251"/>
  </clipPath>
  <clipPath id="p28d847339f">
   <rect x="361.8" y="217.8" width="343.8" height="183.43251"/>
  </clipPath>
 </defs>
</svg>