<?xml version="1.0" encoding="utf-8" standalone="no"?>
<!DOCTYPE svg PUBLIC "-//W3C//DTD SVG 1.1//EN"
  "http://www.w3.org/Graphics/SVG/1.1/DTD/svg11.dtd">
<svg xmlns:xlink="http://www.w3.org/1999/xlink" width="781.310028pt" height="385.515625pt" viewBox="0 0 781.310028 385.515625" xmlns="http://www.w3.org/2000/svg" version="1.1">
 <metadata>
  <rdf:RDF xmlns:dc="http://purl.org/dc/elements/1.1/" xmlns:cc="http://creativecommons.org/ns#" xmlns:rdf="http://www.w3.org/1999/02/22-rdf-syntax-ns#">
   <cc:Work>
    <dc:type rdf:resource="http://purl.org/dc/dcmitype/StillImage"/>
    <dc:date>2024-07-28T12:35:18.445331</dc:date>
    <dc:format>image/svg+xml</dc:format>
    <dc:creator>
     <cc:Agent>
      <dc:title>Matplotlib v3.5.3, https://matplotlib.org/</dc:title>
     </cc:Agent>
    </dc:creator>
   </cc:Work>
  </rdf:RDF>
 </metadata>
 <defs>
  <style type="text/css">*{stroke-linejoin: round; stroke-linecap: butt}</style>
 </defs>
 <g id="figure_1">
  <g id="patch_1">
   <path d="M 0 385.515625 
L 781.310028 385.515625 
L 781.310028 0 
L 0 0 
z
" style="fill: #ffffff"/>
  </g>
  <g id="axes_1">
   <g id="patch_2">
    <path d="M 205.72 354.53625 
L 763.72 354.53625 
L 763.72 21.89625 
L 205.72 21.89625 
z
" style="fill: #eaeaf2"/>
   </g>
   <g id="matplotlib.axis_1">
    <g id="xtick_1">
     <g id="line2d_1">
      <path d="M 220.450685 354.53625 
L 220.450685 21.89625 
" clip-path="url(#p11e3376914)" style="fill: none; stroke: #ffffff; stroke-linecap: round"/>
     </g>
     <g id="line2d_2"/>
     <g id="text_1">
      <!-- −0.4 -->
      <g style="fill: #262626" transform="translate(202.684122 374.580625)scale(0.18 -0.18)">
       <defs>
        <path id="LiberationSans-2212" d="M 316 1900 
L 316 2356 
L 3425 2356 
L 3425 1900 
L 316 1900 
z
" transform="scale(0.015625)"/>
        <path id="LiberationSans-30" d="M 3309 2203 
Q 3309 1569 3189 1136 
Q 3069 703 2861 436 
Q 2653 169 2372 53 
Q 2091 -63 1772 -63 
Q 1450 -63 1172 53 
Q 894 169 689 434 
Q 484 700 367 1133 
Q 250 1566 250 2203 
Q 250 2869 367 3305 
Q 484 3741 690 4000 
Q 897 4259 1178 4364 
Q 1459 4469 1791 4469 
Q 2106 4469 2382 4364 
Q 2659 4259 2865 4000 
Q 3072 3741 3190 3305 
Q 3309 2869 3309 2203 
z
M 2738 2203 
Q 2738 2728 2675 3076 
Q 2613 3425 2491 3633 
Q 2369 3841 2192 3927 
Q 2016 4013 1791 4013 
Q 1553 4013 1372 3925 
Q 1191 3838 1067 3630 
Q 944 3422 881 3073 
Q 819 2725 819 2203 
Q 819 1697 883 1350 
Q 947 1003 1070 792 
Q 1194 581 1372 489 
Q 1550 397 1778 397 
Q 2000 397 2178 489 
Q 2356 581 2479 792 
Q 2603 1003 2670 1350 
Q 2738 1697 2738 2203 
z
" transform="scale(0.015625)"/>
        <path id="LiberationSans-2e" d="M 584 0 
L 584 684 
L 1194 684 
L 1194 0 
L 584 0 
z
" transform="scale(0.015625)"/>
        <path id="LiberationSans-34" d="M 2753 997 
L 2753 0 
L 2222 0 
L 2222 997 
L 147 997 
L 147 1434 
L 2163 4403 
L 2753 4403 
L 2753 1441 
L 3372 1441 
L 3372 997 
L 2753 997 
z
M 2222 3769 
Q 2216 3753 2191 3708 
Q 2166 3663 2134 3606 
Q 2103 3550 2070 3492 
Q 2038 3434 2013 3397 
L 884 1734 
Q 869 1709 839 1668 
Q 809 1628 778 1586 
Q 747 1544 715 1503 
Q 684 1463 666 1441 
L 2222 1441 
L 2222 3769 
z
" transform="scale(0.015625)"/>
       </defs>
       <use xlink:href="#LiberationSans-2212"/>
       <use xlink:href="#LiberationSans-30" x="58.398438"/>
       <use xlink:href="#LiberationSans-2e" x="114.013672"/>
       <use xlink:href="#LiberationSans-34" x="141.796875"/>
      </g>
     </g>
    </g>
    <g id="xtick_2">
     <g id="line2d_3">
      <path d="M 328.680554 354.53625 
L 328.680554 21.89625 
" clip-path="url(#p11e3376914)" style="fill: none; stroke: #ffffff; stroke-linecap: round"/>
     </g>
     <g id="line2d_4"/>
     <g id="text_2">
      <!-- −0.2 -->
      <g style="fill: #262626" transform="translate(310.913991 374.580625)scale(0.18 -0.18)">
       <defs>
        <path id="LiberationSans-32" d="M 322 0 
L 322 397 
Q 481 763 711 1042 
Q 941 1322 1194 1548 
Q 1447 1775 1695 1969 
Q 1944 2163 2144 2356 
Q 2344 2550 2467 2762 
Q 2591 2975 2591 3244 
Q 2591 3431 2534 3573 
Q 2478 3716 2372 3812 
Q 2266 3909 2117 3957 
Q 1969 4006 1788 4006 
Q 1619 4006 1470 3959 
Q 1322 3913 1206 3819 
Q 1091 3725 1017 3586 
Q 944 3447 922 3263 
L 347 3316 
Q 375 3553 478 3762 
Q 581 3972 762 4130 
Q 944 4288 1198 4378 
Q 1453 4469 1788 4469 
Q 2116 4469 2372 4391 
Q 2628 4313 2804 4159 
Q 2981 4006 3075 3781 
Q 3169 3556 3169 3263 
Q 3169 3041 3089 2841 
Q 3009 2641 2876 2459 
Q 2744 2278 2569 2109 
Q 2394 1941 2203 1780 
Q 2013 1619 1819 1461 
Q 1625 1303 1454 1143 
Q 1284 984 1150 820 
Q 1016 656 941 478 
L 3238 478 
L 3238 0 
L 322 0 
z
" transform="scale(0.015625)"/>
       </defs>
       <use xlink:href="#LiberationSans-2212"/>
       <use xlink:href="#LiberationSans-30" x="58.398438"/>
       <use xlink:href="#LiberationSans-2e" x="114.013672"/>
       <use xlink:href="#LiberationSans-32" x="141.796875"/>
      </g>
     </g>
    </g>
    <g id="xtick_3">
     <g id="line2d_5">
      <path d="M 436.910422 354.53625 
L 436.910422 21.89625 
" clip-path="url(#p11e3376914)" style="fill: none; stroke: #ffffff; stroke-linecap: round"/>
     </g>
     <g id="line2d_6"/>
     <g id="text_3">
      <!-- 0.0 -->
      <g style="fill: #262626" transform="translate(424.400422 374.580625)scale(0.18 -0.18)">
       <use xlink:href="#LiberationSans-30"/>
       <use xlink:href="#LiberationSans-2e" x="55.615234"/>
       <use xlink:href="#LiberationSans-30" x="83.398438"/>
      </g>
     </g>
    </g>
    <g id="xtick_4">
     <g id="line2d_7">
      <path d="M 545.140291 354.53625 
L 545.140291 21.89625 
" clip-path="url(#p11e3376914)" style="fill: none; stroke: #ffffff; stroke-linecap: round"/>
     </g>
     <g id="line2d_8"/>
     <g id="text_4">
      <!-- 0.2 -->
      <g style="fill: #262626" transform="translate(532.630291 374.580625)scale(0.18 -0.18)">
       <use xlink:href="#LiberationSans-30"/>
       <use xlink:href="#LiberationSans-2e" x="55.615234"/>
       <use xlink:href="#LiberationSans-32" x="83.398438"/>
      </g>
     </g>
    </g>
    <g id="xtick_5">
     <g id="line2d_9">
      <path d="M 653.370159 354.53625 
L 653.370159 21.89625 
" clip-path="url(#p11e3376914)" style="fill: none; stroke: #ffffff; stroke-linecap: round"/>
     </g>
     <g id="line2d_10"/>
     <g id="text_5">
      <!-- 0.4 -->
      <g style="fill: #262626" transform="translate(640.860159 374.580625)scale(0.18 -0.18)">
       <use xlink:href="#LiberationSans-30"/>
       <use xlink:href="#LiberationSans-2e" x="55.615234"/>
       <use xlink:href="#LiberationSans-34" x="83.398438"/>
      </g>
     </g>
    </g>
    <g id="xtick_6">
     <g id="line2d_11">
      <path d="M 761.600028 354.53625 
L 761.600028 21.89625 
" clip-path="url(#p11e3376914)" style="fill: none; stroke: #ffffff; stroke-linecap: round"/>
     </g>
     <g id="line2d_12"/>
     <g id="text_6">
      <!-- 0.6 -->
      <g style="fill: #262626" transform="translate(749.090028 374.580625)scale(0.18 -0.18)">
       <defs>
        <path id="LiberationSans-36" d="M 3278 1441 
Q 3278 1109 3186 832 
Q 3094 556 2914 357 
Q 2734 159 2468 48 
Q 2203 -63 1856 -63 
Q 1472 -63 1184 84 
Q 897 231 706 507 
Q 516 784 420 1186 
Q 325 1588 325 2100 
Q 325 2688 433 3131 
Q 541 3575 744 3872 
Q 947 4169 1239 4319 
Q 1531 4469 1900 4469 
Q 2125 4469 2322 4422 
Q 2519 4375 2680 4270 
Q 2841 4166 2962 3994 
Q 3084 3822 3156 3572 
L 2619 3475 
Q 2531 3759 2339 3886 
Q 2147 4013 1894 4013 
Q 1663 4013 1475 3903 
Q 1288 3794 1156 3576 
Q 1025 3359 954 3031 
Q 884 2703 884 2266 
Q 1038 2550 1316 2698 
Q 1594 2847 1953 2847 
Q 2253 2847 2497 2750 
Q 2741 2653 2914 2470 
Q 3088 2288 3183 2027 
Q 3278 1766 3278 1441 
z
M 2706 1416 
Q 2706 1644 2650 1828 
Q 2594 2013 2481 2142 
Q 2369 2272 2203 2342 
Q 2038 2413 1819 2413 
Q 1666 2413 1509 2367 
Q 1353 2322 1226 2220 
Q 1100 2119 1020 1953 
Q 941 1788 941 1550 
Q 941 1306 1003 1095 
Q 1066 884 1183 728 
Q 1300 572 1465 481 
Q 1631 391 1838 391 
Q 2041 391 2202 461 
Q 2363 531 2475 664 
Q 2588 797 2647 987 
Q 2706 1178 2706 1416 
z
" transform="scale(0.015625)"/>
       </defs>
       <use xlink:href="#LiberationSans-30"/>
       <use xlink:href="#LiberationSans-2e" x="55.615234"/>
       <use xlink:href="#LiberationSans-36" x="83.398438"/>
      </g>
     </g>
    </g>
   </g>
   <g id="matplotlib.axis_2">
    <g id="ytick_1">
     <g id="line2d_13">
      <path d="M 205.72 267.795197 
L 763.72 267.795197 
" clip-path="url(#p11e3376914)" style="fill: none; stroke: #ffffff; stroke-linecap: round"/>
     </g>
     <g id="line2d_14"/>
     <g id="text_7">
      <!-- $0.31 &lt; x_1 \leq 0.47$ -->
      <g style="fill: #262626" transform="translate(7.2 276.491447)scale(0.24 -0.24)">
       <defs>
        <path id="DejaVuSans-30" d="M 2034 4250 
Q 1547 4250 1301 3770 
Q 1056 3291 1056 2328 
Q 1056 1369 1301 889 
Q 1547 409 2034 409 
Q 2525 409 2770 889 
Q 3016 1369 3016 2328 
Q 3016 3291 2770 3770 
Q 2525 4250 2034 4250 
z
M 2034 4750 
Q 2819 4750 3233 4129 
Q 3647 3509 3647 2328 
Q 3647 1150 3233 529 
Q 2819 -91 2034 -91 
Q 1250 -91 836 529 
Q 422 1150 422 2328 
Q 422 3509 836 4129 
Q 1250 4750 2034 4750 
z
" transform="scale(0.015625)"/>
        <path id="DejaVuSans-2e" d="M 684 794 
L 1344 794 
L 1344 0 
L 684 0 
L 684 794 
z
" transform="scale(0.015625)"/>
        <path id="DejaVuSans-33" d="M 2597 2516 
Q 3050 2419 3304 2112 
Q 3559 1806 3559 1356 
Q 3559 666 3084 287 
Q 2609 -91 1734 -91 
Q 1441 -91 1130 -33 
Q 819 25 488 141 
L 488 750 
Q 750 597 1062 519 
Q 1375 441 1716 441 
Q 2309 441 2620 675 
Q 2931 909 2931 1356 
Q 2931 1769 2642 2001 
Q 2353 2234 1838 2234 
L 1294 2234 
L 1294 2753 
L 1863 2753 
Q 2328 2753 2575 2939 
Q 2822 3125 2822 3475 
Q 2822 3834 2567 4026 
Q 2313 4219 1838 4219 
Q 1578 4219 1281 4162 
Q 984 4106 628 3988 
L 628 4550 
Q 988 4650 1302 4700 
Q 1616 4750 1894 4750 
Q 2613 4750 3031 4423 
Q 3450 4097 3450 3541 
Q 3450 3153 3228 2886 
Q 3006 2619 2597 2516 
z
" transform="scale(0.015625)"/>
        <path id="DejaVuSans-31" d="M 794 531 
L 1825 531 
L 1825 4091 
L 703 3866 
L 703 4441 
L 1819 4666 
L 2450 4666 
L 2450 531 
L 3481 531 
L 3481 0 
L 794 0 
L 794 531 
z
" transform="scale(0.015625)"/>
        <path id="DejaVuSans-3c" d="M 4684 3150 
L 1459 2003 
L 4684 863 
L 4684 294 
L 678 1747 
L 678 2266 
L 4684 3719 
L 4684 3150 
z
" transform="scale(0.015625)"/>
        <path id="DejaVuSans-Oblique-78" d="M 3841 3500 
L 2234 1784 
L 3219 0 
L 2559 0 
L 1819 1388 
L 531 0 
L -166 0 
L 1556 1844 
L 641 3500 
L 1300 3500 
L 1972 2234 
L 3144 3500 
L 3841 3500 
z
" transform="scale(0.015625)"/>
        <path id="DejaVuSans-2264" d="M 4684 3175 
L 1684 2309 
L 4684 1453 
L 4684 897 
L 678 2047 
L 678 2578 
L 4684 3725 
L 4684 3175 
z
M 678 531 
L 4684 531 
L 4684 0 
L 678 0 
L 678 531 
z
" transform="scale(0.015625)"/>
        <path id="DejaVuSans-34" d="M 2419 4116 
L 825 1625 
L 2419 1625 
L 2419 4116 
z
M 2253 4666 
L 3047 4666 
L 3047 1625 
L 3713 1625 
L 3713 1100 
L 3047 1100 
L 3047 0 
L 2419 0 
L 2419 1100 
L 313 1100 
L 313 1709 
L 2253 4666 
z
" transform="scale(0.015625)"/>
        <path id="DejaVuSans-37" d="M 525 4666 
L 3525 4666 
L 3525 4397 
L 1831 0 
L 1172 0 
L 2766 4134 
L 525 4134 
L 525 4666 
z
" transform="scale(0.015625)"/>
       </defs>
       <use xlink:href="#DejaVuSans-30" transform="translate(0 0.78125)"/>
       <use xlink:href="#DejaVuSans-2e" transform="translate(63.623047 0.78125)"/>
       <use xlink:href="#DejaVuSans-33" transform="translate(95.410156 0.78125)"/>
       <use xlink:href="#DejaVuSans-31" transform="translate(159.033203 0.78125)"/>
       <use xlink:href="#DejaVuSans-3c" transform="translate(242.138672 0.78125)"/>
       <use xlink:href="#DejaVuSans-Oblique-78" transform="translate(345.410156 0.78125)"/>
       <use xlink:href="#DejaVuSans-31" transform="translate(404.589844 -15.625)scale(0.7)"/>
       <use xlink:href="#DejaVuSans-2264" transform="translate(471.342773 0.78125)"/>
       <use xlink:href="#DejaVuSans-30" transform="translate(574.614258 0.78125)"/>
       <use xlink:href="#DejaVuSans-2e" transform="translate(638.237305 0.78125)"/>
       <use xlink:href="#DejaVuSans-34" transform="translate(670.024414 0.78125)"/>
       <use xlink:href="#DejaVuSans-37" transform="translate(733.647461 0.78125)"/>
      </g>
     </g>
    </g>
    <g id="ytick_2">
     <g id="line2d_15">
      <path d="M 205.72 108.637303 
L 763.72 108.637303 
" clip-path="url(#p11e3376914)" style="fill: none; stroke: #ffffff; stroke-linecap: round"/>
     </g>
     <g id="line2d_16"/>
     <g id="text_8">
      <!-- $0.54 &lt; x_2 \leq 0.67$ -->
      <g style="fill: #262626" transform="translate(7.2 117.333553)scale(0.24 -0.24)">
       <defs>
        <path id="DejaVuSans-35" d="M 691 4666 
L 3169 4666 
L 3169 4134 
L 1269 4134 
L 1269 2991 
Q 1406 3038 1543 3061 
Q 1681 3084 1819 3084 
Q 2600 3084 3056 2656 
Q 3513 2228 3513 1497 
Q 3513 744 3044 326 
Q 2575 -91 1722 -91 
Q 1428 -91 1123 -41 
Q 819 9 494 109 
L 494 744 
Q 775 591 1075 516 
Q 1375 441 1709 441 
Q 2250 441 2565 725 
Q 2881 1009 2881 1497 
Q 2881 1984 2565 2268 
Q 2250 2553 1709 2553 
Q 1456 2553 1204 2497 
Q 953 2441 691 2322 
L 691 4666 
z
" transform="scale(0.015625)"/>
        <path id="DejaVuSans-32" d="M 1228 531 
L 3431 531 
L 3431 0 
L 469 0 
L 469 531 
Q 828 903 1448 1529 
Q 2069 2156 2228 2338 
Q 2531 2678 2651 2914 
Q 2772 3150 2772 3378 
Q 2772 3750 2511 3984 
Q 2250 4219 1831 4219 
Q 1534 4219 1204 4116 
Q 875 4013 500 3803 
L 500 4441 
Q 881 4594 1212 4672 
Q 1544 4750 1819 4750 
Q 2544 4750 2975 4387 
Q 3406 4025 3406 3419 
Q 3406 3131 3298 2873 
Q 3191 2616 2906 2266 
Q 2828 2175 2409 1742 
Q 1991 1309 1228 531 
z
" transform="scale(0.015625)"/>
        <path id="DejaVuSans-36" d="M 2113 2584 
Q 1688 2584 1439 2293 
Q 1191 2003 1191 1497 
Q 1191 994 1439 701 
Q 1688 409 2113 409 
Q 2538 409 2786 701 
Q 3034 994 3034 1497 
Q 3034 2003 2786 2293 
Q 2538 2584 2113 2584 
z
M 3366 4563 
L 3366 3988 
Q 3128 4100 2886 4159 
Q 2644 4219 2406 4219 
Q 1781 4219 1451 3797 
Q 1122 3375 1075 2522 
Q 1259 2794 1537 2939 
Q 1816 3084 2150 3084 
Q 2853 3084 3261 2657 
Q 3669 2231 3669 1497 
Q 3669 778 3244 343 
Q 2819 -91 2113 -91 
Q 1303 -91 875 529 
Q 447 1150 447 2328 
Q 447 3434 972 4092 
Q 1497 4750 2381 4750 
Q 2619 4750 2861 4703 
Q 3103 4656 3366 4563 
z
" transform="scale(0.015625)"/>
       </defs>
       <use xlink:href="#DejaVuSans-30" transform="translate(0 0.78125)"/>
       <use xlink:href="#DejaVuSans-2e" transform="translate(63.623047 0.78125)"/>
       <use xlink:href="#DejaVuSans-35" transform="translate(95.410156 0.78125)"/>
       <use xlink:href="#DejaVuSans-34" transform="translate(159.033203 0.78125)"/>
       <use xlink:href="#DejaVuSans-3c" transform="translate(242.138672 0.78125)"/>
       <use xlink:href="#DejaVuSans-Oblique-78" transform="translate(345.410156 0.78125)"/>
       <use xlink:href="#DejaVuSans-32" transform="translate(404.589844 -15.625)scale(0.7)"/>
       <use xlink:href="#DejaVuSans-2264" transform="translate(471.342773 0.78125)"/>
       <use xlink:href="#DejaVuSans-30" transform="translate(574.614258 0.78125)"/>
       <use xlink:href="#DejaVuSans-2e" transform="translate(638.237305 0.78125)"/>
       <use xlink:href="#DejaVuSans-36" transform="translate(670.024414 0.78125)"/>
       <use xlink:href="#DejaVuSans-37" transform="translate(733.647461 0.78125)"/>
      </g>
     </g>
    </g>
   </g>
   <g id="patch_3">
    <path d="M 436.910422 339.41625 
L 228.607806 339.41625 
L 228.607806 196.174145 
L 436.910422 196.174145 
z
" clip-path="url(#p11e3376914)" style="fill: #ff0000"/>
   </g>
   <g id="patch_4">
    <path d="M 436.910422 180.258355 
L 686.363931 180.258355 
L 686.363931 37.01625 
L 436.910422 37.01625 
z
" clip-path="url(#p11e3376914)" style="fill: #008000"/>
   </g>
   <g id="patch_5">
    <path d="M 205.72 354.53625 
L 205.72 21.89625 
" style="fill: none"/>
   </g>
   <g id="patch_6">
    <path d="M 763.72 354.53625 
L 763.72 21.89625 
" style="fill: none"/>
   </g>
   <g id="patch_7">
    <path d="M 205.72 354.53625 
L 763.72 354.53625 
" style="fill: none"/>
   </g>
   <g id="patch_8">
    <path d="M 205.72 21.89625 
L 763.72 21.89625 
" style="fill: none"/>
   </g>
   <g id="text_9">
    <!-- -0.38 -->
    <g style="fill: #ff0000" transform="translate(447.733409 277.344671)scale(0.18 -0.18)">
     <defs>
      <path id="LiberationSans-Bold-2d" d="M 250 1278 
L 250 2041 
L 1875 2041 
L 1875 1278 
L 250 1278 
z
" transform="scale(0.015625)"/>
      <path id="LiberationSans-Bold-30" d="M 3297 2203 
Q 3297 1572 3181 1139 
Q 3066 706 2861 439 
Q 2656 172 2376 54 
Q 2097 -63 1766 -63 
Q 1434 -63 1156 53 
Q 878 169 678 436 
Q 478 703 365 1136 
Q 253 1569 253 2203 
Q 253 2869 364 3305 
Q 475 3741 678 4000 
Q 881 4259 1164 4364 
Q 1447 4469 1791 4469 
Q 2113 4469 2389 4364 
Q 2666 4259 2867 4000 
Q 3069 3741 3183 3305 
Q 3297 2869 3297 2203 
z
M 2416 2203 
Q 2416 2669 2381 2973 
Q 2347 3278 2272 3458 
Q 2197 3638 2076 3709 
Q 1956 3781 1784 3781 
Q 1600 3781 1475 3707 
Q 1350 3634 1273 3453 
Q 1197 3272 1164 2967 
Q 1131 2663 1131 2203 
Q 1131 1750 1165 1447 
Q 1200 1144 1275 961 
Q 1350 778 1472 703 
Q 1594 628 1772 628 
Q 1944 628 2066 703 
Q 2188 778 2266 961 
Q 2344 1144 2380 1447 
Q 2416 1750 2416 2203 
z
" transform="scale(0.015625)"/>
      <path id="LiberationSans-Bold-2e" d="M 434 0 
L 434 953 
L 1338 953 
L 1338 0 
L 434 0 
z
" transform="scale(0.015625)"/>
      <path id="LiberationSans-Bold-33" d="M 3328 1222 
Q 3328 922 3229 683 
Q 3131 444 2934 275 
Q 2738 106 2445 17 
Q 2153 -72 1766 -72 
Q 1334 -72 1039 37 
Q 744 147 555 326 
Q 366 506 270 734 
Q 175 963 147 1197 
L 1041 1275 
Q 1059 1134 1111 1017 
Q 1163 900 1250 815 
Q 1338 731 1464 686 
Q 1591 641 1763 641 
Q 2078 641 2253 797 
Q 2428 953 2428 1275 
Q 2428 1472 2345 1590 
Q 2263 1709 2136 1773 
Q 2009 1838 1862 1859 
Q 1716 1881 1584 1881 
L 1278 1881 
L 1278 2591 
L 1566 2591 
Q 1697 2591 1833 2616 
Q 1969 2641 2078 2706 
Q 2188 2772 2256 2889 
Q 2325 3006 2325 3188 
Q 2325 3459 2173 3614 
Q 2022 3769 1731 3769 
Q 1459 3769 1292 3619 
Q 1125 3469 1100 3194 
L 222 3256 
Q 259 3566 392 3794 
Q 525 4022 726 4172 
Q 928 4322 1190 4395 
Q 1453 4469 1747 4469 
Q 2134 4469 2412 4375 
Q 2691 4281 2869 4122 
Q 3047 3963 3131 3750 
Q 3216 3538 3216 3297 
Q 3216 3103 3159 2936 
Q 3103 2769 2989 2636 
Q 2875 2503 2697 2408 
Q 2519 2313 2275 2266 
L 2275 2253 
Q 2547 2222 2747 2130 
Q 2947 2038 3075 1900 
Q 3203 1763 3265 1589 
Q 3328 1416 3328 1222 
z
" transform="scale(0.015625)"/>
      <path id="LiberationSans-Bold-38" d="M 3363 1241 
Q 3363 956 3269 717 
Q 3175 478 2981 304 
Q 2788 131 2491 34 
Q 2194 -63 1784 -63 
Q 1378 -63 1079 34 
Q 781 131 586 304 
Q 391 478 297 715 
Q 203 953 203 1234 
Q 203 1475 278 1661 
Q 353 1847 478 1981 
Q 603 2116 765 2195 
Q 928 2275 1100 2303 
L 1100 2316 
Q 916 2356 769 2450 
Q 622 2544 519 2675 
Q 416 2806 361 2967 
Q 306 3128 306 3303 
Q 306 3566 401 3781 
Q 497 3997 681 4150 
Q 866 4303 1139 4386 
Q 1413 4469 1772 4469 
Q 2156 4469 2436 4383 
Q 2716 4297 2897 4142 
Q 3078 3988 3165 3772 
Q 3253 3556 3253 3297 
Q 3253 3125 3198 2964 
Q 3144 2803 3041 2672 
Q 2938 2541 2789 2450 
Q 2641 2359 2453 2322 
L 2453 2309 
Q 2647 2278 2814 2195 
Q 2981 2113 3103 1980 
Q 3225 1847 3294 1661 
Q 3363 1475 3363 1241 
z
M 2350 3250 
Q 2350 3381 2322 3492 
Q 2294 3603 2228 3683 
Q 2163 3763 2052 3808 
Q 1941 3853 1772 3853 
Q 1609 3853 1500 3808 
Q 1391 3763 1325 3683 
Q 1259 3603 1231 3492 
Q 1203 3381 1203 3250 
Q 1203 3134 1226 3021 
Q 1250 2909 1312 2820 
Q 1375 2731 1487 2675 
Q 1600 2619 1778 2619 
Q 1966 2619 2080 2675 
Q 2194 2731 2253 2822 
Q 2313 2913 2331 3025 
Q 2350 3138 2350 3250 
z
M 2453 1313 
Q 2453 1447 2423 1572 
Q 2394 1697 2317 1792 
Q 2241 1888 2106 1945 
Q 1972 2003 1766 2003 
Q 1578 2003 1451 1945 
Q 1325 1888 1248 1791 
Q 1172 1694 1139 1567 
Q 1106 1441 1106 1300 
Q 1106 1134 1139 996 
Q 1172 859 1251 761 
Q 1331 663 1462 609 
Q 1594 556 1791 556 
Q 1988 556 2116 611 
Q 2244 666 2319 766 
Q 2394 866 2423 1005 
Q 2453 1144 2453 1313 
z
" transform="scale(0.015625)"/>
     </defs>
     <use xlink:href="#LiberationSans-Bold-2d"/>
     <use xlink:href="#LiberationSans-Bold-30" x="33.300781"/>
     <use xlink:href="#LiberationSans-Bold-2e" x="88.916016"/>
     <use xlink:href="#LiberationSans-Bold-33" x="116.699219"/>
     <use xlink:href="#LiberationSans-Bold-38" x="172.314453"/>
    </g>
   </g>
   <g id="text_10">
    <!-- 0.46 -->
    <g style="fill: #008000" transform="translate(697.186918 118.186776)scale(0.18 -0.18)">
     <defs>
      <path id="LiberationSans-Bold-34" d="M 2938 897 
L 2938 0 
L 2100 0 
L 2100 897 
L 97 897 
L 97 1556 
L 1956 4403 
L 2938 4403 
L 2938 1550 
L 3525 1550 
L 3525 897 
L 2938 897 
z
M 2100 2991 
Q 2100 3044 2101 3130 
Q 2103 3216 2108 3306 
Q 2113 3397 2117 3480 
Q 2122 3563 2128 3609 
Q 2113 3575 2078 3511 
Q 2044 3447 2001 3373 
Q 1959 3300 1914 3228 
Q 1869 3156 1834 3103 
L 813 1550 
L 2100 1550 
L 2100 2991 
z
" transform="scale(0.015625)"/>
      <path id="LiberationSans-Bold-36" d="M 3328 1441 
Q 3328 1109 3234 832 
Q 3141 556 2955 357 
Q 2769 159 2491 48 
Q 2213 -63 1847 -63 
Q 1069 -63 651 482 
Q 234 1028 234 2100 
Q 234 3278 657 3873 
Q 1081 4469 1869 4469 
Q 2131 4469 2347 4414 
Q 2563 4359 2731 4237 
Q 2900 4116 3019 3923 
Q 3138 3731 3209 3456 
L 2381 3341 
Q 2319 3572 2178 3673 
Q 2038 3775 1850 3775 
Q 1497 3775 1295 3422 
Q 1094 3069 1094 2350 
Q 1234 2584 1484 2709 
Q 1734 2834 2050 2834 
Q 2341 2834 2577 2739 
Q 2813 2644 2980 2464 
Q 3147 2284 3237 2025 
Q 3328 1766 3328 1441 
z
M 2447 1416 
Q 2447 1594 2406 1736 
Q 2366 1878 2283 1978 
Q 2200 2078 2078 2133 
Q 1956 2188 1797 2188 
Q 1681 2188 1565 2150 
Q 1450 2113 1359 2030 
Q 1269 1947 1212 1819 
Q 1156 1691 1156 1509 
Q 1156 1322 1203 1159 
Q 1250 997 1336 876 
Q 1422 756 1544 689 
Q 1666 622 1819 622 
Q 2116 622 2281 833 
Q 2447 1044 2447 1416 
z
" transform="scale(0.015625)"/>
     </defs>
     <use xlink:href="#LiberationSans-Bold-30"/>
     <use xlink:href="#LiberationSans-Bold-2e" x="55.615234"/>
     <use xlink:href="#LiberationSans-Bold-34" x="83.398438"/>
     <use xlink:href="#LiberationSans-Bold-36" x="139.013672"/>
    </g>
   </g>
   <g id="text_11">
    <!-- Red class explanation -->
    <g style="fill: #262626" transform="translate(426.02125 15.89625)scale(0.12 -0.12)">
     <defs>
      <path id="LiberationSans-52" d="M 3638 0 
L 2494 1828 
L 1122 1828 
L 1122 0 
L 525 0 
L 525 4403 
L 2597 4403 
Q 2972 4403 3261 4317 
Q 3550 4231 3747 4068 
Q 3944 3906 4047 3672 
Q 4150 3438 4150 3144 
Q 4150 2934 4089 2731 
Q 4028 2528 3897 2359 
Q 3766 2191 3562 2069 
Q 3359 1947 3075 1897 
L 4325 0 
L 3638 0 
z
M 3550 3138 
Q 3550 3338 3481 3484 
Q 3413 3631 3281 3729 
Q 3150 3828 2962 3876 
Q 2775 3925 2538 3925 
L 1122 3925 
L 1122 2300 
L 2563 2300 
Q 2819 2300 3006 2364 
Q 3194 2428 3314 2540 
Q 3434 2653 3492 2806 
Q 3550 2959 3550 3138 
z
" transform="scale(0.015625)"/>
      <path id="LiberationSans-65" d="M 863 1572 
Q 863 1306 917 1082 
Q 972 859 1086 698 
Q 1200 538 1378 448 
Q 1556 359 1806 359 
Q 2172 359 2392 506 
Q 2613 653 2691 878 
L 3184 738 
Q 3131 597 3036 455 
Q 2941 313 2781 198 
Q 2622 84 2383 10 
Q 2144 -63 1806 -63 
Q 1056 -63 664 384 
Q 272 831 272 1713 
Q 272 2188 390 2517 
Q 509 2847 715 3053 
Q 922 3259 1197 3351 
Q 1472 3444 1784 3444 
Q 2209 3444 2495 3306 
Q 2781 3169 2954 2926 
Q 3128 2684 3201 2356 
Q 3275 2028 3275 1647 
L 3275 1572 
L 863 1572 
z
M 2694 2003 
Q 2647 2538 2422 2783 
Q 2197 3028 1775 3028 
Q 1634 3028 1479 2983 
Q 1325 2938 1194 2822 
Q 1063 2706 972 2507 
Q 881 2309 869 2003 
L 2694 2003 
z
" transform="scale(0.015625)"/>
      <path id="LiberationSans-64" d="M 2566 544 
Q 2409 219 2151 78 
Q 1894 -63 1513 -63 
Q 872 -63 570 368 
Q 269 800 269 1675 
Q 269 3444 1513 3444 
Q 1897 3444 2153 3303 
Q 2409 3163 2566 2856 
L 2572 2856 
Q 2572 2888 2570 2955 
Q 2569 3022 2567 3095 
Q 2566 3169 2566 3234 
Q 2566 3300 2566 3328 
L 2566 4638 
L 3128 4638 
L 3128 697 
Q 3128 575 3129 462 
Q 3131 350 3134 256 
Q 3138 163 3141 95 
Q 3144 28 3147 0 
L 2609 0 
Q 2603 31 2598 89 
Q 2594 147 2589 222 
Q 2584 297 2581 380 
Q 2578 463 2578 544 
L 2566 544 
z
M 859 1694 
Q 859 1344 903 1094 
Q 947 844 1044 683 
Q 1141 522 1291 447 
Q 1441 372 1656 372 
Q 1878 372 2048 444 
Q 2219 516 2333 677 
Q 2447 838 2506 1097 
Q 2566 1356 2566 1731 
Q 2566 2091 2506 2339 
Q 2447 2588 2331 2741 
Q 2216 2894 2048 2961 
Q 1881 3028 1663 3028 
Q 1456 3028 1306 2956 
Q 1156 2884 1056 2725 
Q 956 2566 907 2311 
Q 859 2056 859 1694 
z
" transform="scale(0.015625)"/>
      <path id="LiberationSans-20" transform="scale(0.015625)"/>
      <path id="LiberationSans-63" d="M 859 1706 
Q 859 1416 901 1172 
Q 944 928 1044 751 
Q 1144 575 1308 478 
Q 1472 381 1713 381 
Q 2013 381 2214 543 
Q 2416 706 2463 1044 
L 3031 1006 
Q 3003 797 2909 603 
Q 2816 409 2655 262 
Q 2494 116 2262 26 
Q 2031 -63 1728 -63 
Q 1331 -63 1053 71 
Q 775 206 601 442 
Q 428 678 350 998 
Q 272 1319 272 1694 
Q 272 2034 328 2295 
Q 384 2556 486 2751 
Q 588 2947 725 3080 
Q 863 3213 1023 3292 
Q 1184 3372 1362 3408 
Q 1541 3444 1722 3444 
Q 2006 3444 2228 3366 
Q 2450 3288 2611 3152 
Q 2772 3016 2872 2831 
Q 2972 2647 3013 2434 
L 2434 2391 
Q 2391 2672 2212 2837 
Q 2034 3003 1706 3003 
Q 1466 3003 1305 2923 
Q 1144 2844 1044 2683 
Q 944 2522 901 2278 
Q 859 2034 859 1706 
z
" transform="scale(0.015625)"/>
      <path id="LiberationSans-6c" d="M 431 0 
L 431 4638 
L 994 4638 
L 994 0 
L 431 0 
z
" transform="scale(0.015625)"/>
      <path id="LiberationSans-61" d="M 1294 -63 
Q 784 -63 528 206 
Q 272 475 272 944 
Q 272 1278 398 1492 
Q 525 1706 729 1828 
Q 934 1950 1196 1997 
Q 1459 2044 1731 2050 
L 2491 2063 
L 2491 2247 
Q 2491 2456 2447 2603 
Q 2403 2750 2312 2840 
Q 2222 2931 2086 2973 
Q 1950 3016 1766 3016 
Q 1603 3016 1472 2992 
Q 1341 2969 1244 2908 
Q 1147 2847 1087 2742 
Q 1028 2638 1009 2478 
L 422 2531 
Q 453 2731 540 2898 
Q 628 3066 789 3187 
Q 950 3309 1192 3376 
Q 1434 3444 1778 3444 
Q 2416 3444 2737 3151 
Q 3059 2859 3059 2306 
L 3059 850 
Q 3059 600 3125 473 
Q 3191 347 3375 347 
Q 3422 347 3469 353 
Q 3516 359 3559 369 
L 3559 19 
Q 3453 -6 3348 -18 
Q 3244 -31 3125 -31 
Q 2966 -31 2852 11 
Q 2738 53 2666 139 
Q 2594 225 2556 351 
Q 2519 478 2509 647 
L 2491 647 
Q 2400 484 2292 353 
Q 2184 222 2040 130 
Q 1897 38 1714 -12 
Q 1531 -63 1294 -63 
z
M 1422 359 
Q 1691 359 1892 457 
Q 2094 556 2226 709 
Q 2359 863 2425 1044 
Q 2491 1225 2491 1391 
L 2491 1669 
L 1875 1656 
Q 1669 1653 1483 1626 
Q 1297 1600 1156 1522 
Q 1016 1444 933 1303 
Q 850 1163 850 934 
Q 850 659 998 509 
Q 1147 359 1422 359 
z
" transform="scale(0.015625)"/>
      <path id="LiberationSans-73" d="M 2969 934 
Q 2969 697 2876 511 
Q 2784 325 2609 198 
Q 2434 72 2179 4 
Q 1925 -63 1597 -63 
Q 1303 -63 1067 -17 
Q 831 28 653 128 
Q 475 228 354 392 
Q 234 556 178 794 
L 675 891 
Q 747 619 972 492 
Q 1197 366 1597 366 
Q 1778 366 1929 391 
Q 2081 416 2190 477 
Q 2300 538 2361 639 
Q 2422 741 2422 891 
Q 2422 1044 2350 1142 
Q 2278 1241 2150 1306 
Q 2022 1372 1839 1420 
Q 1656 1469 1438 1528 
Q 1234 1581 1034 1647 
Q 834 1713 673 1820 
Q 513 1928 413 2087 
Q 313 2247 313 2488 
Q 313 2950 642 3192 
Q 972 3434 1603 3434 
Q 2163 3434 2492 3237 
Q 2822 3041 2909 2606 
L 2403 2544 
Q 2375 2675 2300 2764 
Q 2225 2853 2119 2908 
Q 2013 2963 1880 2986 
Q 1747 3009 1603 3009 
Q 1222 3009 1040 2893 
Q 859 2778 859 2544 
Q 859 2406 926 2317 
Q 994 2228 1114 2167 
Q 1234 2106 1403 2061 
Q 1572 2016 1775 1966 
Q 1909 1931 2050 1892 
Q 2191 1853 2323 1798 
Q 2456 1744 2573 1670 
Q 2691 1597 2778 1494 
Q 2866 1391 2917 1253 
Q 2969 1116 2969 934 
z
" transform="scale(0.015625)"/>
      <path id="LiberationSans-78" d="M 2503 0 
L 1594 1388 
L 678 0 
L 72 0 
L 1275 1738 
L 128 3381 
L 750 3381 
L 1594 2066 
L 2431 3381 
L 3059 3381 
L 1913 1744 
L 3131 0 
L 2503 0 
z
" transform="scale(0.015625)"/>
      <path id="LiberationSans-70" d="M 3291 1706 
Q 3291 1322 3228 997 
Q 3166 672 3020 437 
Q 2875 203 2636 70 
Q 2397 -63 2047 -63 
Q 1684 -63 1412 75 
Q 1141 213 997 525 
L 981 525 
Q 984 519 986 469 
Q 988 419 989 344 
Q 991 269 992 176 
Q 994 84 994 -6 
L 994 -1328 
L 431 -1328 
L 431 2691 
Q 431 2813 429 2925 
Q 428 3038 425 3130 
Q 422 3222 419 3287 
Q 416 3353 413 3381 
L 956 3381 
Q 959 3372 964 3315 
Q 969 3259 973 3179 
Q 978 3100 983 3009 
Q 988 2919 988 2838 
L 1000 2838 
Q 1078 3000 1178 3114 
Q 1278 3228 1406 3301 
Q 1534 3375 1692 3408 
Q 1850 3441 2047 3441 
Q 2397 3441 2636 3316 
Q 2875 3191 3020 2964 
Q 3166 2738 3228 2417 
Q 3291 2097 3291 1706 
z
M 2700 1694 
Q 2700 2006 2662 2250 
Q 2625 2494 2533 2662 
Q 2441 2831 2287 2918 
Q 2134 3006 1903 3006 
Q 1716 3006 1550 2953 
Q 1384 2900 1261 2750 
Q 1138 2600 1066 2336 
Q 994 2072 994 1650 
Q 994 1291 1053 1042 
Q 1113 794 1227 641 
Q 1341 488 1509 420 
Q 1678 353 1897 353 
Q 2131 353 2286 443 
Q 2441 534 2533 706 
Q 2625 878 2662 1126 
Q 2700 1375 2700 1694 
z
" transform="scale(0.015625)"/>
      <path id="LiberationSans-6e" d="M 2578 0 
L 2578 2144 
Q 2578 2391 2542 2556 
Q 2506 2722 2425 2823 
Q 2344 2925 2211 2967 
Q 2078 3009 1881 3009 
Q 1681 3009 1520 2939 
Q 1359 2869 1245 2736 
Q 1131 2603 1068 2408 
Q 1006 2213 1006 1959 
L 1006 0 
L 444 0 
L 444 2659 
Q 444 2766 442 2883 
Q 441 3000 437 3104 
Q 434 3209 431 3284 
Q 428 3359 425 3381 
L 956 3381 
Q 959 3366 962 3297 
Q 966 3228 970 3139 
Q 975 3050 978 2958 
Q 981 2866 981 2803 
L 991 2803 
Q 1072 2950 1169 3069 
Q 1266 3188 1394 3270 
Q 1522 3353 1687 3398 
Q 1853 3444 2072 3444 
Q 2353 3444 2556 3375 
Q 2759 3306 2890 3162 
Q 3022 3019 3083 2792 
Q 3144 2566 3144 2253 
L 3144 0 
L 2578 0 
z
" transform="scale(0.015625)"/>
      <path id="LiberationSans-74" d="M 1731 25 
Q 1603 -9 1470 -29 
Q 1338 -50 1163 -50 
Q 488 -50 488 716 
L 488 2972 
L 97 2972 
L 97 3381 
L 509 3381 
L 675 4138 
L 1050 4138 
L 1050 3381 
L 1675 3381 
L 1675 2972 
L 1050 2972 
L 1050 838 
Q 1050 594 1129 495 
Q 1209 397 1406 397 
Q 1488 397 1564 409 
Q 1641 422 1731 441 
L 1731 25 
z
" transform="scale(0.015625)"/>
      <path id="LiberationSans-69" d="M 428 4100 
L 428 4638 
L 991 4638 
L 991 4100 
L 428 4100 
z
M 428 0 
L 428 3381 
L 991 3381 
L 991 0 
L 428 0 
z
" transform="scale(0.015625)"/>
      <path id="LiberationSans-6f" d="M 3291 1694 
Q 3291 806 2900 371 
Q 2509 -63 1766 -63 
Q 1413 -63 1134 43 
Q 856 150 664 369 
Q 472 588 370 917 
Q 269 1247 269 1694 
Q 269 3444 1784 3444 
Q 2178 3444 2464 3334 
Q 2750 3225 2933 3006 
Q 3116 2788 3203 2459 
Q 3291 2131 3291 1694 
z
M 2700 1694 
Q 2700 2088 2639 2344 
Q 2578 2600 2461 2753 
Q 2344 2906 2175 2967 
Q 2006 3028 1794 3028 
Q 1578 3028 1404 2964 
Q 1231 2900 1109 2745 
Q 988 2591 923 2334 
Q 859 2078 859 1694 
Q 859 1300 928 1042 
Q 997 784 1117 631 
Q 1238 478 1402 415 
Q 1566 353 1759 353 
Q 1975 353 2150 414 
Q 2325 475 2447 628 
Q 2569 781 2634 1040 
Q 2700 1300 2700 1694 
z
" transform="scale(0.015625)"/>
     </defs>
     <use xlink:href="#LiberationSans-52"/>
     <use xlink:href="#LiberationSans-65" x="72.216797"/>
     <use xlink:href="#LiberationSans-64" x="127.832031"/>
     <use xlink:href="#LiberationSans-20" x="183.447266"/>
     <use xlink:href="#LiberationSans-63" x="211.230469"/>
     <use xlink:href="#LiberationSans-6c" x="261.230469"/>
     <use xlink:href="#LiberationSans-61" x="283.447266"/>
     <use xlink:href="#LiberationSans-73" x="339.0625"/>
     <use xlink:href="#LiberationSans-73" x="389.0625"/>
     <use xlink:href="#LiberationSans-20" x="439.0625"/>
     <use xlink:href="#LiberationSans-65" x="466.845703"/>
     <use xlink:href="#LiberationSans-78" x="522.460938"/>
     <use xlink:href="#LiberationSans-70" x="572.460938"/>
     <use xlink:href="#LiberationSans-6c" x="628.076172"/>
     <use xlink:href="#LiberationSans-61" x="650.292969"/>
     <use xlink:href="#LiberationSans-6e" x="705.908203"/>
     <use xlink:href="#LiberationSans-61" x="761.523438"/>
     <use xlink:href="#LiberationSans-74" x="817.138672"/>
     <use xlink:href="#LiberationSans-69" x="844.921875"/>
     <use xlink:href="#LiberationSans-6f" x="867.138672"/>
     <use xlink:href="#LiberationSans-6e" x="922.753906"/>
    </g>
   </g>
  </g>
 </g>
 <defs>
  <clipPath id="p11e3376914">
   <rect x="205.72" y="21.89625" width="558" height="332.64"/>
  </clipPath>
 </defs>
</svg>