<?xml version="1.0" encoding="utf-8" standalone="no"?>
<!DOCTYPE svg PUBLIC "-//W3C//DTD SVG 1.1//EN"
  "http://www.w3.org/Graphics/SVG/1.1/DTD/svg11.dtd">
<svg xmlns:xlink="http://www.w3.org/1999/xlink" width="460.8pt" height="457.92pt" viewBox="0 0 460.8 457.92" xmlns="http://www.w3.org/2000/svg" version="1.1">
 <metadata>
  <rdf:RDF xmlns:dc="http://purl.org/dc/elements/1.1/" xmlns:cc="http://creativecommons.org/ns#" xmlns:rdf="http://www.w3.org/1999/02/22-rdf-syntax-ns#">
   <cc:Work>
    <dc:type rdf:resource="http://purl.org/dc/dcmitype/StillImage"/>
    <dc:date>2024-07-28T12:35:17.680837</dc:date>
    <dc:format>image/svg+xml</dc:format>
    <dc:creator>
     <cc:Agent>
      <dc:title>Matplotlib v3.5.3, https://matplotlib.org/</dc:title>
     </cc:Agent>
    </dc:creator>
   </cc:Work>
  </rdf:RDF>
 </metadata>
 <defs>
  <style type="text/css">*{stroke-linejoin: round; stroke-linecap: butt}</style>
 </defs>
 <g id="figure_1">
  <g id="patch_1">
   <path d="M 0 457.92 
L 460.8 457.92 
L 460.8 0 
L 0 0 
z
" style="fill: #ffffff"/>
  </g>
  <g id="axes_1">
   <g id="patch_2">
    <path d="M 136.441517 310.627166 
Q 160.496761 270.79375 184.725395 230.673217 
" style="fill: none; stroke: #262626; stroke-width: 0.3; stroke-linecap: round"/>
    <path d="M 144.727884 305.387257 
L 136.441517 310.627166 
L 137.22141 300.854126 
" style="fill: none; stroke: #262626; stroke-width: 0.3; stroke-linecap: round"/>
   </g>
   <g id="text_1">
    <g id="patch_3">
     <path d="M 27.317459 440.82168 
L 165.642541 440.82168 
Q 172.219337 440.82168 172.219337 434.244884 
L 172.219337 319.355116 
Q 172.219337 312.77832 165.642541 312.77832 
L 27.317459 312.77832 
Q 20.740663 312.77832 20.740663 319.355116 
L 20.740663 434.244884 
Q 20.740663 440.82168 27.317459 440.82168 
z
" style="fill: #e58139; stroke: #000000; stroke-width: 0.3; stroke-linejoin: miter"/>
    </g>
    <!-- node #3 -->
    <g style="fill: #262626" transform="translate(56.861657 335.242188)scale(0.219227 -0.219227)">
     <defs>
      <path id="LiberationSans-6e" d="M 2578 0 
L 2578 2144 
Q 2578 2391 2542 2556 
Q 2506 2722 2425 2823 
Q 2344 2925 2211 2967 
Q 2078 3009 1881 3009 
Q 1681 3009 1520 2939 
Q 1359 2869 1245 2736 
Q 1131 2603 1068 2408 
Q 1006 2213 1006 1959 
L 1006 0 
L 444 0 
L 444 2659 
Q 444 2766 442 2883 
Q 441 3000 437 3104 
Q 434 3209 431 3284 
Q 428 3359 425 3381 
L 956 3381 
Q 959 3366 962 3297 
Q 966 3228 970 3139 
Q 975 3050 978 2958 
Q 981 2866 981 2803 
L 991 2803 
Q 1072 2950 1169 3069 
Q 1266 3188 1394 3270 
Q 1522 3353 1687 3398 
Q 1853 3444 2072 3444 
Q 2353 3444 2556 3375 
Q 2759 3306 2890 3162 
Q 3022 3019 3083 2792 
Q 3144 2566 3144 2253 
L 3144 0 
L 2578 0 
z
" transform="scale(0.015625)"/>
      <path id="LiberationSans-6f" d="M 3291 1694 
Q 3291 806 2900 371 
Q 2509 -63 1766 -63 
Q 1413 -63 1134 43 
Q 856 150 664 369 
Q 472 588 370 917 
Q 269 1247 269 1694 
Q 269 3444 1784 3444 
Q 2178 3444 2464 3334 
Q 2750 3225 2933 3006 
Q 3116 2788 3203 2459 
Q 3291 2131 3291 1694 
z
M 2700 1694 
Q 2700 2088 2639 2344 
Q 2578 2600 2461 2753 
Q 2344 2906 2175 2967 
Q 2006 3028 1794 3028 
Q 1578 3028 1404 2964 
Q 1231 2900 1109 2745 
Q 988 2591 923 2334 
Q 859 2078 859 1694 
Q 859 1300 928 1042 
Q 997 784 1117 631 
Q 1238 478 1402 415 
Q 1566 353 1759 353 
Q 1975 353 2150 414 
Q 2325 475 2447 628 
Q 2569 781 2634 1040 
Q 2700 1300 2700 1694 
z
" transform="scale(0.015625)"/>
      <path id="LiberationSans-64" d="M 2566 544 
Q 2409 219 2151 78 
Q 1894 -63 1513 -63 
Q 872 -63 570 368 
Q 269 800 269 1675 
Q 269 3444 1513 3444 
Q 1897 3444 2153 3303 
Q 2409 3163 2566 2856 
L 2572 2856 
Q 2572 2888 2570 2955 
Q 2569 3022 2567 3095 
Q 2566 3169 2566 3234 
Q 2566 3300 2566 3328 
L 2566 4638 
L 3128 4638 
L 3128 697 
Q 3128 575 3129 462 
Q 3131 350 3134 256 
Q 3138 163 3141 95 
Q 3144 28 3147 0 
L 2609 0 
Q 2603 31 2598 89 
Q 2594 147 2589 222 
Q 2584 297 2581 380 
Q 2578 463 2578 544 
L 2566 544 
z
M 859 1694 
Q 859 1344 903 1094 
Q 947 844 1044 683 
Q 1141 522 1291 447 
Q 1441 372 1656 372 
Q 1878 372 2048 444 
Q 2219 516 2333 677 
Q 2447 838 2506 1097 
Q 2566 1356 2566 1731 
Q 2566 2091 2506 2339 
Q 2447 2588 2331 2741 
Q 2216 2894 2048 2961 
Q 1881 3028 1663 3028 
Q 1456 3028 1306 2956 
Q 1156 2884 1056 2725 
Q 956 2566 907 2311 
Q 859 2056 859 1694 
z
" transform="scale(0.015625)"/>
      <path id="LiberationSans-65" d="M 863 1572 
Q 863 1306 917 1082 
Q 972 859 1086 698 
Q 1200 538 1378 448 
Q 1556 359 1806 359 
Q 2172 359 2392 506 
Q 2613 653 2691 878 
L 3184 738 
Q 3131 597 3036 455 
Q 2941 313 2781 198 
Q 2622 84 2383 10 
Q 2144 -63 1806 -63 
Q 1056 -63 664 384 
Q 272 831 272 1713 
Q 272 2188 390 2517 
Q 509 2847 715 3053 
Q 922 3259 1197 3351 
Q 1472 3444 1784 3444 
Q 2209 3444 2495 3306 
Q 2781 3169 2954 2926 
Q 3128 2684 3201 2356 
Q 3275 2028 3275 1647 
L 3275 1572 
L 863 1572 
z
M 2694 2003 
Q 2647 2538 2422 2783 
Q 2197 3028 1775 3028 
Q 1634 3028 1479 2983 
Q 1325 2938 1194 2822 
Q 1063 2706 972 2507 
Q 881 2309 869 2003 
L 2694 2003 
z
" transform="scale(0.015625)"/>
      <path id="LiberationSans-20" transform="scale(0.015625)"/>
      <path id="LiberationSans-23" d="M 2800 2766 
L 2556 1613 
L 3369 1613 
L 3369 1275 
L 2484 1275 
L 2209 0 
L 1866 0 
L 2134 1275 
L 1000 1275 
L 738 0 
L 394 0 
L 656 1275 
L 28 1275 
L 28 1613 
L 731 1613 
L 975 2766 
L 188 2766 
L 188 3103 
L 1044 3103 
L 1322 4378 
L 1666 4378 
L 1391 3103 
L 2525 3103 
L 2800 4378 
L 3144 4378 
L 2869 3103 
L 3528 3103 
L 3528 2766 
L 2800 2766 
z
M 1328 2766 
L 1078 1613 
L 2209 1613 
L 2453 2766 
L 1328 2766 
z
" transform="scale(0.015625)"/>
      <path id="LiberationSans-33" d="M 3278 1216 
Q 3278 913 3179 675 
Q 3081 438 2892 273 
Q 2703 109 2423 23 
Q 2144 -63 1784 -63 
Q 1375 -63 1095 39 
Q 816 141 634 308 
Q 453 475 362 689 
Q 272 903 244 1131 
L 825 1184 
Q 850 1009 917 865 
Q 984 722 1100 619 
Q 1216 516 1384 459 
Q 1553 403 1784 403 
Q 2209 403 2451 612 
Q 2694 822 2694 1234 
Q 2694 1478 2586 1626 
Q 2478 1775 2317 1858 
Q 2156 1941 1967 1969 
Q 1778 1997 1619 1997 
L 1300 1997 
L 1300 2484 
L 1606 2484 
Q 1766 2484 1937 2517 
Q 2109 2550 2251 2636 
Q 2394 2722 2486 2869 
Q 2578 3016 2578 3244 
Q 2578 3597 2370 3801 
Q 2163 4006 1753 4006 
Q 1381 4006 1151 3815 
Q 922 3625 884 3278 
L 319 3322 
Q 353 3613 478 3828 
Q 603 4044 795 4186 
Q 988 4328 1234 4398 
Q 1481 4469 1759 4469 
Q 2128 4469 2393 4376 
Q 2659 4284 2828 4126 
Q 2997 3969 3076 3756 
Q 3156 3544 3156 3303 
Q 3156 3109 3103 2940 
Q 3050 2772 2937 2637 
Q 2825 2503 2651 2406 
Q 2478 2309 2234 2259 
L 2234 2247 
Q 2500 2219 2697 2126 
Q 2894 2034 3022 1896 
Q 3150 1759 3214 1584 
Q 3278 1409 3278 1216 
z
" transform="scale(0.015625)"/>
     </defs>
     <use xlink:href="#LiberationSans-6e"/>
     <use xlink:href="#LiberationSans-6f" x="55.615234"/>
     <use xlink:href="#LiberationSans-64" x="111.230469"/>
     <use xlink:href="#LiberationSans-65" x="166.845703"/>
     <use xlink:href="#LiberationSans-20" x="222.460938"/>
     <use xlink:href="#LiberationSans-23" x="250.244141"/>
     <use xlink:href="#LiberationSans-33" x="305.859375"/>
    </g>
    <!-- gini = 0.0 -->
    <g style="fill: #262626" transform="translate(51.689282 358.855624)scale(0.219227 -0.219227)">
     <defs>
      <path id="LiberationSans-67" d="M 1713 -1328 
Q 1422 -1328 1197 -1268 
Q 972 -1209 812 -1098 
Q 653 -988 553 -834 
Q 453 -681 409 -494 
L 975 -413 
Q 1031 -647 1223 -773 
Q 1416 -900 1728 -900 
Q 1919 -900 2075 -847 
Q 2231 -794 2340 -676 
Q 2450 -559 2509 -371 
Q 2569 -184 2569 84 
L 2569 628 
L 2563 628 
Q 2500 500 2408 383 
Q 2316 266 2183 175 
Q 2050 84 1875 29 
Q 1700 -25 1475 -25 
Q 1153 -25 923 83 
Q 694 191 548 406 
Q 403 622 336 942 
Q 269 1263 269 1684 
Q 269 2091 336 2416 
Q 403 2741 554 2967 
Q 706 3194 948 3314 
Q 1191 3434 1538 3434 
Q 1897 3434 2161 3270 
Q 2425 3106 2569 2803 
L 2575 2803 
Q 2575 2881 2579 2978 
Q 2584 3075 2589 3161 
Q 2594 3247 2600 3309 
Q 2606 3372 2613 3381 
L 3147 3381 
Q 3144 3353 3141 3286 
Q 3138 3219 3134 3125 
Q 3131 3031 3129 2917 
Q 3128 2803 3128 2681 
L 3128 97 
Q 3128 -613 2779 -970 
Q 2431 -1328 1713 -1328 
z
M 2569 1691 
Q 2569 2044 2492 2295 
Q 2416 2547 2291 2706 
Q 2166 2866 2005 2941 
Q 1844 3016 1675 3016 
Q 1459 3016 1304 2941 
Q 1150 2866 1048 2705 
Q 947 2544 898 2292 
Q 850 2041 850 1691 
Q 850 1325 898 1076 
Q 947 828 1047 675 
Q 1147 522 1300 456 
Q 1453 391 1666 391 
Q 1834 391 1995 462 
Q 2156 534 2284 690 
Q 2413 847 2491 1094 
Q 2569 1341 2569 1691 
z
" transform="scale(0.015625)"/>
      <path id="LiberationSans-69" d="M 428 4100 
L 428 4638 
L 991 4638 
L 991 4100 
L 428 4100 
z
M 428 0 
L 428 3381 
L 991 3381 
L 991 0 
L 428 0 
z
" transform="scale(0.015625)"/>
      <path id="LiberationSans-3d" d="M 313 2675 
L 313 3138 
L 3422 3138 
L 3422 2675 
L 313 2675 
z
M 313 1075 
L 313 1538 
L 3422 1538 
L 3422 1075 
L 313 1075 
z
" transform="scale(0.015625)"/>
      <path id="LiberationSans-30" d="M 3309 2203 
Q 3309 1569 3189 1136 
Q 3069 703 2861 436 
Q 2653 169 2372 53 
Q 2091 -63 1772 -63 
Q 1450 -63 1172 53 
Q 894 169 689 434 
Q 484 700 367 1133 
Q 250 1566 250 2203 
Q 250 2869 367 3305 
Q 484 3741 690 4000 
Q 897 4259 1178 4364 
Q 1459 4469 1791 4469 
Q 2106 4469 2382 4364 
Q 2659 4259 2865 4000 
Q 3072 3741 3190 3305 
Q 3309 2869 3309 2203 
z
M 2738 2203 
Q 2738 2728 2675 3076 
Q 2613 3425 2491 3633 
Q 2369 3841 2192 3927 
Q 2016 4013 1791 4013 
Q 1553 4013 1372 3925 
Q 1191 3838 1067 3630 
Q 944 3422 881 3073 
Q 819 2725 819 2203 
Q 819 1697 883 1350 
Q 947 1003 1070 792 
Q 1194 581 1372 489 
Q 1550 397 1778 397 
Q 2000 397 2178 489 
Q 2356 581 2479 792 
Q 2603 1003 2670 1350 
Q 2738 1697 2738 2203 
z
" transform="scale(0.015625)"/>
      <path id="LiberationSans-2e" d="M 584 0 
L 584 684 
L 1194 684 
L 1194 0 
L 584 0 
z
" transform="scale(0.015625)"/>
     </defs>
     <use xlink:href="#LiberationSans-67"/>
     <use xlink:href="#LiberationSans-69" x="55.615234"/>
     <use xlink:href="#LiberationSans-6e" x="77.832031"/>
     <use xlink:href="#LiberationSans-69" x="133.447266"/>
     <use xlink:href="#LiberationSans-20" x="155.664062"/>
     <use xlink:href="#LiberationSans-3d" x="183.447266"/>
     <use xlink:href="#LiberationSans-20" x="241.845703"/>
     <use xlink:href="#LiberationSans-30" x="269.628906"/>
     <use xlink:href="#LiberationSans-2e" x="325.244141"/>
     <use xlink:href="#LiberationSans-30" x="353.027344"/>
    </g>
    <!-- samples = 17 -->
    <g style="fill: #262626" transform="translate(30.982652 382.469061)scale(0.219227 -0.219227)">
     <defs>
      <path id="LiberationSans-73" d="M 2969 934 
Q 2969 697 2876 511 
Q 2784 325 2609 198 
Q 2434 72 2179 4 
Q 1925 -63 1597 -63 
Q 1303 -63 1067 -17 
Q 831 28 653 128 
Q 475 228 354 392 
Q 234 556 178 794 
L 675 891 
Q 747 619 972 492 
Q 1197 366 1597 366 
Q 1778 366 1929 391 
Q 2081 416 2190 477 
Q 2300 538 2361 639 
Q 2422 741 2422 891 
Q 2422 1044 2350 1142 
Q 2278 1241 2150 1306 
Q 2022 1372 1839 1420 
Q 1656 1469 1438 1528 
Q 1234 1581 1034 1647 
Q 834 1713 673 1820 
Q 513 1928 413 2087 
Q 313 2247 313 2488 
Q 313 2950 642 3192 
Q 972 3434 1603 3434 
Q 2163 3434 2492 3237 
Q 2822 3041 2909 2606 
L 2403 2544 
Q 2375 2675 2300 2764 
Q 2225 2853 2119 2908 
Q 2013 2963 1880 2986 
Q 1747 3009 1603 3009 
Q 1222 3009 1040 2893 
Q 859 2778 859 2544 
Q 859 2406 926 2317 
Q 994 2228 1114 2167 
Q 1234 2106 1403 2061 
Q 1572 2016 1775 1966 
Q 1909 1931 2050 1892 
Q 2191 1853 2323 1798 
Q 2456 1744 2573 1670 
Q 2691 1597 2778 1494 
Q 2866 1391 2917 1253 
Q 2969 1116 2969 934 
z
" transform="scale(0.015625)"/>
      <path id="LiberationSans-61" d="M 1294 -63 
Q 784 -63 528 206 
Q 272 475 272 944 
Q 272 1278 398 1492 
Q 525 1706 729 1828 
Q 934 1950 1196 1997 
Q 1459 2044 1731 2050 
L 2491 2063 
L 2491 2247 
Q 2491 2456 2447 2603 
Q 2403 2750 2312 2840 
Q 2222 2931 2086 2973 
Q 1950 3016 1766 3016 
Q 1603 3016 1472 2992 
Q 1341 2969 1244 2908 
Q 1147 2847 1087 2742 
Q 1028 2638 1009 2478 
L 422 2531 
Q 453 2731 540 2898 
Q 628 3066 789 3187 
Q 950 3309 1192 3376 
Q 1434 3444 1778 3444 
Q 2416 3444 2737 3151 
Q 3059 2859 3059 2306 
L 3059 850 
Q 3059 600 3125 473 
Q 3191 347 3375 347 
Q 3422 347 3469 353 
Q 3516 359 3559 369 
L 3559 19 
Q 3453 -6 3348 -18 
Q 3244 -31 3125 -31 
Q 2966 -31 2852 11 
Q 2738 53 2666 139 
Q 2594 225 2556 351 
Q 2519 478 2509 647 
L 2491 647 
Q 2400 484 2292 353 
Q 2184 222 2040 130 
Q 1897 38 1714 -12 
Q 1531 -63 1294 -63 
z
M 1422 359 
Q 1691 359 1892 457 
Q 2094 556 2226 709 
Q 2359 863 2425 1044 
Q 2491 1225 2491 1391 
L 2491 1669 
L 1875 1656 
Q 1669 1653 1483 1626 
Q 1297 1600 1156 1522 
Q 1016 1444 933 1303 
Q 850 1163 850 934 
Q 850 659 998 509 
Q 1147 359 1422 359 
z
" transform="scale(0.015625)"/>
      <path id="LiberationSans-6d" d="M 2400 0 
L 2400 2144 
Q 2400 2391 2369 2556 
Q 2338 2722 2264 2823 
Q 2191 2925 2072 2967 
Q 1953 3009 1781 3009 
Q 1603 3009 1459 2939 
Q 1316 2869 1214 2736 
Q 1113 2603 1058 2408 
Q 1003 2213 1003 1959 
L 1003 0 
L 444 0 
L 444 2659 
Q 444 2766 442 2883 
Q 441 3000 437 3104 
Q 434 3209 431 3284 
Q 428 3359 425 3381 
L 956 3381 
Q 959 3366 962 3297 
Q 966 3228 970 3139 
Q 975 3050 978 2958 
Q 981 2866 981 2803 
L 991 2803 
Q 1066 2950 1153 3069 
Q 1241 3188 1358 3270 
Q 1475 3353 1626 3398 
Q 1778 3444 1978 3444 
Q 2363 3444 2586 3291 
Q 2809 3138 2897 2803 
L 2906 2803 
Q 2981 2950 3075 3069 
Q 3169 3188 3294 3270 
Q 3419 3353 3575 3398 
Q 3731 3444 3931 3444 
Q 4188 3444 4373 3375 
Q 4559 3306 4678 3162 
Q 4797 3019 4853 2792 
Q 4909 2566 4909 2253 
L 4909 0 
L 4353 0 
L 4353 2144 
Q 4353 2391 4322 2556 
Q 4291 2722 4217 2823 
Q 4144 2925 4025 2967 
Q 3906 3009 3734 3009 
Q 3556 3009 3412 2942 
Q 3269 2875 3167 2744 
Q 3066 2613 3011 2416 
Q 2956 2219 2956 1959 
L 2956 0 
L 2400 0 
z
" transform="scale(0.015625)"/>
      <path id="LiberationSans-70" d="M 3291 1706 
Q 3291 1322 3228 997 
Q 3166 672 3020 437 
Q 2875 203 2636 70 
Q 2397 -63 2047 -63 
Q 1684 -63 1412 75 
Q 1141 213 997 525 
L 981 525 
Q 984 519 986 469 
Q 988 419 989 344 
Q 991 269 992 176 
Q 994 84 994 -6 
L 994 -1328 
L 431 -1328 
L 431 2691 
Q 431 2813 429 2925 
Q 428 3038 425 3130 
Q 422 3222 419 3287 
Q 416 3353 413 3381 
L 956 3381 
Q 959 3372 964 3315 
Q 969 3259 973 3179 
Q 978 3100 983 3009 
Q 988 2919 988 2838 
L 1000 2838 
Q 1078 3000 1178 3114 
Q 1278 3228 1406 3301 
Q 1534 3375 1692 3408 
Q 1850 3441 2047 3441 
Q 2397 3441 2636 3316 
Q 2875 3191 3020 2964 
Q 3166 2738 3228 2417 
Q 3291 2097 3291 1706 
z
M 2700 1694 
Q 2700 2006 2662 2250 
Q 2625 2494 2533 2662 
Q 2441 2831 2287 2918 
Q 2134 3006 1903 3006 
Q 1716 3006 1550 2953 
Q 1384 2900 1261 2750 
Q 1138 2600 1066 2336 
Q 994 2072 994 1650 
Q 994 1291 1053 1042 
Q 1113 794 1227 641 
Q 1341 488 1509 420 
Q 1678 353 1897 353 
Q 2131 353 2286 443 
Q 2441 534 2533 706 
Q 2625 878 2662 1126 
Q 2700 1375 2700 1694 
z
" transform="scale(0.015625)"/>
      <path id="LiberationSans-6c" d="M 431 0 
L 431 4638 
L 994 4638 
L 994 0 
L 431 0 
z
" transform="scale(0.015625)"/>
      <path id="LiberationSans-31" d="M 488 0 
L 488 478 
L 1609 478 
L 1609 3866 
L 616 3156 
L 616 3688 
L 1656 4403 
L 2175 4403 
L 2175 478 
L 3247 478 
L 3247 0 
L 488 0 
z
" transform="scale(0.015625)"/>
      <path id="LiberationSans-37" d="M 3238 3947 
Q 2906 3441 2628 2973 
Q 2350 2506 2150 2032 
Q 1950 1559 1839 1061 
Q 1728 563 1728 0 
L 1141 0 
Q 1141 528 1266 1036 
Q 1391 1544 1603 2033 
Q 1816 2522 2097 2994 
Q 2378 3466 2694 3925 
L 328 3925 
L 328 4403 
L 3238 4403 
L 3238 3947 
z
" transform="scale(0.015625)"/>
     </defs>
     <use xlink:href="#LiberationSans-73"/>
     <use xlink:href="#LiberationSans-61" x="50"/>
     <use xlink:href="#LiberationSans-6d" x="105.615234"/>
     <use xlink:href="#LiberationSans-70" x="188.916016"/>
     <use xlink:href="#LiberationSans-6c" x="244.53125"/>
     <use xlink:href="#LiberationSans-65" x="266.748047"/>
     <use xlink:href="#LiberationSans-73" x="322.363281"/>
     <use xlink:href="#LiberationSans-20" x="372.363281"/>
     <use xlink:href="#LiberationSans-3d" x="400.146484"/>
     <use xlink:href="#LiberationSans-20" x="458.544922"/>
     <use xlink:href="#LiberationSans-31" x="486.328125"/>
     <use xlink:href="#LiberationSans-37" x="541.943359"/>
    </g>
    <!-- value = [17, 0] -->
    <g style="fill: #262626" transform="translate(27.317459 406.082497)scale(0.219227 -0.219227)">
     <defs>
      <path id="LiberationSans-76" d="M 1916 0 
L 1250 0 
L 22 3381 
L 622 3381 
L 1366 1181 
Q 1388 1113 1417 1014 
Q 1447 916 1478 809 
Q 1509 703 1536 604 
Q 1563 506 1581 441 
Q 1600 506 1629 604 
Q 1659 703 1690 806 
Q 1722 909 1755 1007 
Q 1788 1106 1813 1175 
L 2581 3381 
L 3178 3381 
L 1916 0 
z
" transform="scale(0.015625)"/>
      <path id="LiberationSans-75" d="M 981 3381 
L 981 1238 
Q 981 991 1017 825 
Q 1053 659 1134 557 
Q 1216 456 1348 414 
Q 1481 372 1678 372 
Q 1878 372 2039 442 
Q 2200 513 2314 645 
Q 2428 778 2490 973 
Q 2553 1169 2553 1422 
L 2553 3381 
L 3116 3381 
L 3116 722 
Q 3116 616 3117 498 
Q 3119 381 3122 276 
Q 3125 172 3128 97 
Q 3131 22 3134 0 
L 2603 0 
Q 2600 16 2597 84 
Q 2594 153 2589 242 
Q 2584 331 2581 423 
Q 2578 516 2578 578 
L 2569 578 
Q 2488 431 2391 312 
Q 2294 194 2166 111 
Q 2038 28 1872 -17 
Q 1706 -63 1488 -63 
Q 1206 -63 1003 6 
Q 800 75 669 219 
Q 538 363 477 588 
Q 416 813 416 1128 
L 416 3381 
L 981 3381 
z
" transform="scale(0.015625)"/>
      <path id="LiberationSans-5b" d="M 456 -1328 
L 456 4638 
L 1728 4638 
L 1728 4234 
L 1000 4234 
L 1000 -925 
L 1728 -925 
L 1728 -1328 
L 456 -1328 
z
" transform="scale(0.015625)"/>
      <path id="LiberationSans-2c" d="M 1203 684 
L 1203 159 
Q 1203 -6 1189 -142 
Q 1175 -278 1144 -395 
Q 1113 -513 1067 -616 
Q 1022 -719 959 -819 
L 575 -819 
Q 716 -616 792 -409 
Q 869 -203 869 0 
L 594 0 
L 594 684 
L 1203 684 
z
" transform="scale(0.015625)"/>
      <path id="LiberationSans-5d" d="M 50 -1328 
L 50 -925 
L 778 -925 
L 778 4234 
L 50 4234 
L 50 4638 
L 1322 4638 
L 1322 -1328 
L 50 -1328 
z
" transform="scale(0.015625)"/>
     </defs>
     <use xlink:href="#LiberationSans-76"/>
     <use xlink:href="#LiberationSans-61" x="50"/>
     <use xlink:href="#LiberationSans-6c" x="105.615234"/>
     <use xlink:href="#LiberationSans-75" x="127.832031"/>
     <use xlink:href="#LiberationSans-65" x="183.447266"/>
     <use xlink:href="#LiberationSans-20" x="239.0625"/>
     <use xlink:href="#LiberationSans-3d" x="266.845703"/>
     <use xlink:href="#LiberationSans-20" x="325.244141"/>
     <use xlink:href="#LiberationSans-5b" x="353.027344"/>
     <use xlink:href="#LiberationSans-31" x="380.810547"/>
     <use xlink:href="#LiberationSans-37" x="436.425781"/>
     <use xlink:href="#LiberationSans-2c" x="492.041016"/>
     <use xlink:href="#LiberationSans-20" x="519.824219"/>
     <use xlink:href="#LiberationSans-30" x="547.607422"/>
     <use xlink:href="#LiberationSans-5d" x="603.222656"/>
    </g>
    <!-- class = red -->
    <g style="fill: #262626" transform="translate(43.173702 429.695934)scale(0.219227 -0.219227)">
     <defs>
      <path id="LiberationSans-63" d="M 859 1706 
Q 859 1416 901 1172 
Q 944 928 1044 751 
Q 1144 575 1308 478 
Q 1472 381 1713 381 
Q 2013 381 2214 543 
Q 2416 706 2463 1044 
L 3031 1006 
Q 3003 797 2909 603 
Q 2816 409 2655 262 
Q 2494 116 2262 26 
Q 2031 -63 1728 -63 
Q 1331 -63 1053 71 
Q 775 206 601 442 
Q 428 678 350 998 
Q 272 1319 272 1694 
Q 272 2034 328 2295 
Q 384 2556 486 2751 
Q 588 2947 725 3080 
Q 863 3213 1023 3292 
Q 1184 3372 1362 3408 
Q 1541 3444 1722 3444 
Q 2006 3444 2228 3366 
Q 2450 3288 2611 3152 
Q 2772 3016 2872 2831 
Q 2972 2647 3013 2434 
L 2434 2391 
Q 2391 2672 2212 2837 
Q 2034 3003 1706 3003 
Q 1466 3003 1305 2923 
Q 1144 2844 1044 2683 
Q 944 2522 901 2278 
Q 859 2034 859 1706 
z
" transform="scale(0.015625)"/>
      <path id="LiberationSans-72" d="M 444 0 
L 444 2594 
Q 444 2700 442 2811 
Q 441 2922 437 3025 
Q 434 3128 431 3218 
Q 428 3309 425 3381 
L 956 3381 
Q 959 3309 964 3217 
Q 969 3125 973 3028 
Q 978 2931 979 2842 
Q 981 2753 981 2691 
L 994 2691 
Q 1053 2884 1120 3026 
Q 1188 3169 1278 3261 
Q 1369 3353 1494 3398 
Q 1619 3444 1797 3444 
Q 1866 3444 1928 3433 
Q 1991 3422 2025 3413 
L 2025 2897 
Q 1969 2913 1894 2920 
Q 1819 2928 1725 2928 
Q 1531 2928 1395 2840 
Q 1259 2753 1173 2598 
Q 1088 2444 1047 2230 
Q 1006 2016 1006 1763 
L 1006 0 
L 444 0 
z
" transform="scale(0.015625)"/>
     </defs>
     <use xlink:href="#LiberationSans-63"/>
     <use xlink:href="#LiberationSans-6c" x="50"/>
     <use xlink:href="#LiberationSans-61" x="72.216797"/>
     <use xlink:href="#LiberationSans-73" x="127.832031"/>
     <use xlink:href="#LiberationSans-73" x="177.832031"/>
     <use xlink:href="#LiberationSans-20" x="227.832031"/>
     <use xlink:href="#LiberationSans-3d" x="255.615234"/>
     <use xlink:href="#LiberationSans-20" x="314.013672"/>
     <use xlink:href="#LiberationSans-72" x="341.796875"/>
     <use xlink:href="#LiberationSans-65" x="375.097656"/>
     <use xlink:href="#LiberationSans-64" x="430.712891"/>
    </g>
   </g>
   <g id="patch_4">
    <path d="M 235.078483 310.627166 
Q 211.023239 270.79375 186.794605 230.673217 
" style="fill: none; stroke: #262626; stroke-width: 0.3; stroke-linecap: round"/>
    <path d="M 234.29859 300.854126 
L 235.078483 310.627166 
L 226.792116 305.387257 
" style="fill: none; stroke: #262626; stroke-width: 0.3; stroke-linecap: round"/>
   </g>
   <g id="text_2">
    <g id="patch_5">
     <path d="M 199.781934 440.82168 
L 350.298066 440.82168 
Q 356.874862 440.82168 356.874862 434.244884 
L 356.874862 319.355116 
Q 356.874862 312.77832 350.298066 312.77832 
L 199.781934 312.77832 
Q 193.205138 312.77832 193.205138 319.355116 
L 193.205138 434.244884 
Q 193.205138 440.82168 199.781934 440.82168 
z
" style="fill: #76bbed; stroke: #000000; stroke-width: 0.3; stroke-linejoin: miter"/>
    </g>
    <!-- node #4 -->
    <g style="fill: #262626" transform="translate(235.421657 335.242188)scale(0.219227 -0.219227)">
     <defs>
      <path id="LiberationSans-34" d="M 2753 997 
L 2753 0 
L 2222 0 
L 2222 997 
L 147 997 
L 147 1434 
L 2163 4403 
L 2753 4403 
L 2753 1441 
L 3372 1441 
L 3372 997 
L 2753 997 
z
M 2222 3769 
Q 2216 3753 2191 3708 
Q 2166 3663 2134 3606 
Q 2103 3550 2070 3492 
Q 2038 3434 2013 3397 
L 884 1734 
Q 869 1709 839 1668 
Q 809 1628 778 1586 
Q 747 1544 715 1503 
Q 684 1463 666 1441 
L 2222 1441 
L 2222 3769 
z
" transform="scale(0.015625)"/>
     </defs>
     <use xlink:href="#LiberationSans-6e"/>
     <use xlink:href="#LiberationSans-6f" x="55.615234"/>
     <use xlink:href="#LiberationSans-64" x="111.230469"/>
     <use xlink:href="#LiberationSans-65" x="166.845703"/>
     <use xlink:href="#LiberationSans-20" x="222.460938"/>
     <use xlink:href="#LiberationSans-23" x="250.244141"/>
     <use xlink:href="#LiberationSans-34" x="305.859375"/>
    </g>
    <!-- gini = 0.36 -->
    <g style="fill: #262626" transform="translate(224.153757 358.855624)scale(0.219227 -0.219227)">
     <defs>
      <path id="LiberationSans-36" d="M 3278 1441 
Q 3278 1109 3186 832 
Q 3094 556 2914 357 
Q 2734 159 2468 48 
Q 2203 -63 1856 -63 
Q 1472 -63 1184 84 
Q 897 231 706 507 
Q 516 784 420 1186 
Q 325 1588 325 2100 
Q 325 2688 433 3131 
Q 541 3575 744 3872 
Q 947 4169 1239 4319 
Q 1531 4469 1900 4469 
Q 2125 4469 2322 4422 
Q 2519 4375 2680 4270 
Q 2841 4166 2962 3994 
Q 3084 3822 3156 3572 
L 2619 3475 
Q 2531 3759 2339 3886 
Q 2147 4013 1894 4013 
Q 1663 4013 1475 3903 
Q 1288 3794 1156 3576 
Q 1025 3359 954 3031 
Q 884 2703 884 2266 
Q 1038 2550 1316 2698 
Q 1594 2847 1953 2847 
Q 2253 2847 2497 2750 
Q 2741 2653 2914 2470 
Q 3088 2288 3183 2027 
Q 3278 1766 3278 1441 
z
M 2706 1416 
Q 2706 1644 2650 1828 
Q 2594 2013 2481 2142 
Q 2369 2272 2203 2342 
Q 2038 2413 1819 2413 
Q 1666 2413 1509 2367 
Q 1353 2322 1226 2220 
Q 1100 2119 1020 1953 
Q 941 1788 941 1550 
Q 941 1306 1003 1095 
Q 1066 884 1183 728 
Q 1300 572 1465 481 
Q 1631 391 1838 391 
Q 2041 391 2202 461 
Q 2363 531 2475 664 
Q 2588 797 2647 987 
Q 2706 1178 2706 1416 
z
" transform="scale(0.015625)"/>
     </defs>
     <use xlink:href="#LiberationSans-67"/>
     <use xlink:href="#LiberationSans-69" x="55.615234"/>
     <use xlink:href="#LiberationSans-6e" x="77.832031"/>
     <use xlink:href="#LiberationSans-69" x="133.447266"/>
     <use xlink:href="#LiberationSans-20" x="155.664062"/>
     <use xlink:href="#LiberationSans-3d" x="183.447266"/>
     <use xlink:href="#LiberationSans-20" x="241.845703"/>
     <use xlink:href="#LiberationSans-30" x="269.628906"/>
     <use xlink:href="#LiberationSans-2e" x="325.244141"/>
     <use xlink:href="#LiberationSans-33" x="353.027344"/>
     <use xlink:href="#LiberationSans-36" x="408.642578"/>
    </g>
    <!-- samples = 102 -->
    <g style="fill: #262626" transform="translate(203.447127 382.469061)scale(0.219227 -0.219227)">
     <defs>
      <path id="LiberationSans-32" d="M 322 0 
L 322 397 
Q 481 763 711 1042 
Q 941 1322 1194 1548 
Q 1447 1775 1695 1969 
Q 1944 2163 2144 2356 
Q 2344 2550 2467 2762 
Q 2591 2975 2591 3244 
Q 2591 3431 2534 3573 
Q 2478 3716 2372 3812 
Q 2266 3909 2117 3957 
Q 1969 4006 1788 4006 
Q 1619 4006 1470 3959 
Q 1322 3913 1206 3819 
Q 1091 3725 1017 3586 
Q 944 3447 922 3263 
L 347 3316 
Q 375 3553 478 3762 
Q 581 3972 762 4130 
Q 944 4288 1198 4378 
Q 1453 4469 1788 4469 
Q 2116 4469 2372 4391 
Q 2628 4313 2804 4159 
Q 2981 4006 3075 3781 
Q 3169 3556 3169 3263 
Q 3169 3041 3089 2841 
Q 3009 2641 2876 2459 
Q 2744 2278 2569 2109 
Q 2394 1941 2203 1780 
Q 2013 1619 1819 1461 
Q 1625 1303 1454 1143 
Q 1284 984 1150 820 
Q 1016 656 941 478 
L 3238 478 
L 3238 0 
L 322 0 
z
" transform="scale(0.015625)"/>
     </defs>
     <use xlink:href="#LiberationSans-73"/>
     <use xlink:href="#LiberationSans-61" x="50"/>
     <use xlink:href="#LiberationSans-6d" x="105.615234"/>
     <use xlink:href="#LiberationSans-70" x="188.916016"/>
     <use xlink:href="#LiberationSans-6c" x="244.53125"/>
     <use xlink:href="#LiberationSans-65" x="266.748047"/>
     <use xlink:href="#LiberationSans-73" x="322.363281"/>
     <use xlink:href="#LiberationSans-20" x="372.363281"/>
     <use xlink:href="#LiberationSans-3d" x="400.146484"/>
     <use xlink:href="#LiberationSans-20" x="458.544922"/>
     <use xlink:href="#LiberationSans-31" x="486.328125"/>
     <use xlink:href="#LiberationSans-30" x="541.943359"/>
     <use xlink:href="#LiberationSans-32" x="597.558594"/>
    </g>
    <!-- value = [24, 78] -->
    <g style="fill: #262626" transform="translate(199.781934 406.082497)scale(0.219227 -0.219227)">
     <defs>
      <path id="LiberationSans-38" d="M 3281 1228 
Q 3281 947 3192 711 
Q 3103 475 2920 303 
Q 2738 131 2453 34 
Q 2169 -63 1781 -63 
Q 1394 -63 1111 34 
Q 828 131 642 301 
Q 456 472 367 708 
Q 278 944 278 1222 
Q 278 1463 351 1650 
Q 425 1838 548 1973 
Q 672 2109 830 2192 
Q 988 2275 1156 2303 
L 1156 2316 
Q 972 2359 826 2456 
Q 681 2553 582 2689 
Q 484 2825 432 2990 
Q 381 3156 381 3341 
Q 381 3572 470 3776 
Q 559 3981 734 4136 
Q 909 4291 1168 4380 
Q 1428 4469 1769 4469 
Q 2128 4469 2392 4378 
Q 2656 4288 2829 4133 
Q 3003 3978 3087 3772 
Q 3172 3566 3172 3334 
Q 3172 3153 3120 2987 
Q 3069 2822 2970 2686 
Q 2872 2550 2726 2454 
Q 2581 2359 2391 2322 
L 2391 2309 
Q 2581 2278 2743 2195 
Q 2906 2113 3025 1977 
Q 3144 1841 3212 1653 
Q 3281 1466 3281 1228 
z
M 2588 3303 
Q 2588 3469 2545 3606 
Q 2503 3744 2406 3842 
Q 2309 3941 2153 3995 
Q 1997 4050 1769 4050 
Q 1547 4050 1394 3995 
Q 1241 3941 1142 3842 
Q 1044 3744 1000 3606 
Q 956 3469 956 3303 
Q 956 3172 990 3034 
Q 1025 2897 1115 2784 
Q 1206 2672 1365 2600 
Q 1525 2528 1775 2528 
Q 2041 2528 2202 2600 
Q 2363 2672 2448 2784 
Q 2534 2897 2561 3034 
Q 2588 3172 2588 3303 
z
M 2697 1281 
Q 2697 1441 2653 1589 
Q 2609 1738 2503 1852 
Q 2397 1966 2217 2036 
Q 2038 2106 1769 2106 
Q 1522 2106 1348 2036 
Q 1175 1966 1067 1850 
Q 959 1734 909 1582 
Q 859 1431 859 1269 
Q 859 1066 909 898 
Q 959 731 1068 611 
Q 1178 491 1356 425 
Q 1534 359 1788 359 
Q 2044 359 2219 425 
Q 2394 491 2500 611 
Q 2606 731 2651 901 
Q 2697 1072 2697 1281 
z
" transform="scale(0.015625)"/>
     </defs>
     <use xlink:href="#LiberationSans-76"/>
     <use xlink:href="#LiberationSans-61" x="50"/>
     <use xlink:href="#LiberationSans-6c" x="105.615234"/>
     <use xlink:href="#LiberationSans-75" x="127.832031"/>
     <use xlink:href="#LiberationSans-65" x="183.447266"/>
     <use xlink:href="#LiberationSans-20" x="239.0625"/>
     <use xlink:href="#LiberationSans-3d" x="266.845703"/>
     <use xlink:href="#LiberationSans-20" x="325.244141"/>
     <use xlink:href="#LiberationSans-5b" x="353.027344"/>
     <use xlink:href="#LiberationSans-32" x="380.810547"/>
     <use xlink:href="#LiberationSans-34" x="436.425781"/>
     <use xlink:href="#LiberationSans-2c" x="492.041016"/>
     <use xlink:href="#LiberationSans-20" x="519.824219"/>
     <use xlink:href="#LiberationSans-37" x="547.607422"/>
     <use xlink:href="#LiberationSans-38" x="603.222656"/>
     <use xlink:href="#LiberationSans-5d" x="658.837891"/>
    </g>
    <!-- class = grey -->
    <g style="fill: #262626" transform="translate(216.253039 429.695934)scale(0.219227 -0.219227)">
     <defs>
      <path id="LiberationSans-79" d="M 1888 0 
Q 1769 -306 1645 -551 
Q 1522 -797 1369 -970 
Q 1216 -1144 1028 -1236 
Q 841 -1328 597 -1328 
Q 491 -1328 400 -1322 
Q 309 -1316 209 -1294 
L 209 -872 
Q 269 -881 344 -886 
Q 419 -891 472 -891 
Q 719 -891 931 -706 
Q 1144 -522 1303 -119 
L 1356 16 
L 16 3381 
L 616 3381 
L 1328 1513 
Q 1359 1428 1407 1287 
Q 1456 1147 1504 1006 
Q 1553 866 1590 753 
Q 1628 641 1634 613 
Q 1644 647 1680 748 
Q 1716 850 1761 975 
Q 1806 1100 1853 1228 
Q 1900 1356 1931 1450 
L 2594 3381 
L 3188 3381 
L 1888 0 
z
" transform="scale(0.015625)"/>
     </defs>
     <use xlink:href="#LiberationSans-63"/>
     <use xlink:href="#LiberationSans-6c" x="50"/>
     <use xlink:href="#LiberationSans-61" x="72.216797"/>
     <use xlink:href="#LiberationSans-73" x="127.832031"/>
     <use xlink:href="#LiberationSans-73" x="177.832031"/>
     <use xlink:href="#LiberationSans-20" x="227.832031"/>
     <use xlink:href="#LiberationSans-3d" x="255.615234"/>
     <use xlink:href="#LiberationSans-20" x="314.013672"/>
     <use xlink:href="#LiberationSans-67" x="341.796875"/>
     <use xlink:href="#LiberationSans-72" x="397.412109"/>
     <use xlink:href="#LiberationSans-65" x="430.712891"/>
     <use xlink:href="#LiberationSans-79" x="486.328125"/>
    </g>
   </g>
   <g id="patch_6">
    <path d="M 232.851488 150.980546 
Q 253.342583 117.049056 274.007067 82.830449 
" style="fill: none; stroke: #262626; stroke-width: 0.3; stroke-linecap: round"/>
    <path d="M 241.137856 145.740637 
L 232.851488 150.980546 
L 233.631382 141.207507 
" style="fill: none; stroke: #262626; stroke-width: 0.3; stroke-linecap: round"/>
   </g>
   <g id="text_3">
    <g id="patch_7">
     <path d="M 110.501934 304.788398 
L 261.018066 304.788398 
Q 267.594862 304.788398 267.594862 298.211602 
L 267.594862 159.708398 
Q 267.594862 153.131602 261.018066 153.131602 
L 110.501934 153.131602 
Q 103.925138 153.131602 103.925138 159.708398 
L 103.925138 298.211602 
Q 103.925138 304.788398 110.501934 304.788398 
z
" style="fill: #a1d1f3; stroke: #000000; stroke-width: 0.3; stroke-linejoin: miter"/>
    </g>
    <!-- node #1 -->
    <g style="fill: #262626" transform="translate(146.141657 175.59547)scale(0.219227 -0.219227)">
     <use xlink:href="#LiberationSans-6e"/>
     <use xlink:href="#LiberationSans-6f" x="55.615234"/>
     <use xlink:href="#LiberationSans-64" x="111.230469"/>
     <use xlink:href="#LiberationSans-65" x="166.845703"/>
     <use xlink:href="#LiberationSans-20" x="222.460938"/>
     <use xlink:href="#LiberationSans-23" x="250.244141"/>
     <use xlink:href="#LiberationSans-31" x="305.859375"/>
    </g>
    <!-- x[0] &lt;= 0.306 -->
    <g style="fill: #262626" transform="translate(121.771547 199.208906)scale(0.219227 -0.219227)">
     <defs>
      <path id="LiberationSans-78" d="M 2503 0 
L 1594 1388 
L 678 0 
L 72 0 
L 1275 1738 
L 128 3381 
L 750 3381 
L 1594 2066 
L 2431 3381 
L 3059 3381 
L 1913 1744 
L 3131 0 
L 2503 0 
z
" transform="scale(0.015625)"/>
      <path id="LiberationSans-3c" d="M 316 1784 
L 316 2425 
L 3425 3731 
L 3425 3250 
L 744 2106 
L 3425 959 
L 3425 481 
L 316 1784 
z
" transform="scale(0.015625)"/>
     </defs>
     <use xlink:href="#LiberationSans-78"/>
     <use xlink:href="#LiberationSans-5b" x="50"/>
     <use xlink:href="#LiberationSans-30" x="77.783203"/>
     <use xlink:href="#LiberationSans-5d" x="133.398438"/>
     <use xlink:href="#LiberationSans-20" x="161.181641"/>
     <use xlink:href="#LiberationSans-3c" x="188.964844"/>
     <use xlink:href="#LiberationSans-3d" x="247.363281"/>
     <use xlink:href="#LiberationSans-20" x="305.761719"/>
     <use xlink:href="#LiberationSans-30" x="333.544922"/>
     <use xlink:href="#LiberationSans-2e" x="389.160156"/>
     <use xlink:href="#LiberationSans-33" x="416.943359"/>
     <use xlink:href="#LiberationSans-30" x="472.558594"/>
     <use xlink:href="#LiberationSans-36" x="528.173828"/>
    </g>
    <!-- gini = 0.452 -->
    <g style="fill: #262626" transform="translate(128.778232 222.822343)scale(0.219227 -0.219227)">
     <defs>
      <path id="LiberationSans-35" d="M 3291 1434 
Q 3291 1103 3191 828 
Q 3091 553 2894 354 
Q 2697 156 2405 46 
Q 2113 -63 1728 -63 
Q 1381 -63 1123 18 
Q 866 100 687 242 
Q 509 384 404 575 
Q 300 766 256 984 
L 825 1050 
Q 859 925 921 808 
Q 984 691 1092 598 
Q 1200 506 1358 451 
Q 1516 397 1741 397 
Q 1959 397 2137 464 
Q 2316 531 2442 662 
Q 2569 794 2637 984 
Q 2706 1175 2706 1422 
Q 2706 1625 2640 1795 
Q 2575 1966 2453 2089 
Q 2331 2213 2154 2281 
Q 1978 2350 1753 2350 
Q 1613 2350 1494 2325 
Q 1375 2300 1273 2256 
Q 1172 2213 1089 2155 
Q 1006 2097 934 2034 
L 384 2034 
L 531 4403 
L 3034 4403 
L 3034 3925 
L 1044 3925 
L 959 2528 
Q 1109 2644 1334 2726 
Q 1559 2809 1869 2809 
Q 2197 2809 2459 2709 
Q 2722 2609 2906 2426 
Q 3091 2244 3191 1991 
Q 3291 1738 3291 1434 
z
" transform="scale(0.015625)"/>
     </defs>
     <use xlink:href="#LiberationSans-67"/>
     <use xlink:href="#LiberationSans-69" x="55.615234"/>
     <use xlink:href="#LiberationSans-6e" x="77.832031"/>
     <use xlink:href="#LiberationSans-69" x="133.447266"/>
     <use xlink:href="#LiberationSans-20" x="155.664062"/>
     <use xlink:href="#LiberationSans-3d" x="183.447266"/>
     <use xlink:href="#LiberationSans-20" x="241.845703"/>
     <use xlink:href="#LiberationSans-30" x="269.628906"/>
     <use xlink:href="#LiberationSans-2e" x="325.244141"/>
     <use xlink:href="#LiberationSans-34" x="353.027344"/>
     <use xlink:href="#LiberationSans-35" x="408.642578"/>
     <use xlink:href="#LiberationSans-32" x="464.257812"/>
    </g>
    <!-- samples = 119 -->
    <g style="fill: #262626" transform="translate(114.167127 246.435779)scale(0.219227 -0.219227)">
     <defs>
      <path id="LiberationSans-39" d="M 3256 2291 
Q 3256 1703 3145 1261 
Q 3034 819 2828 525 
Q 2622 231 2326 84 
Q 2031 -63 1663 -63 
Q 1409 -63 1206 -11 
Q 1003 41 843 150 
Q 684 259 571 434 
Q 459 609 391 856 
L 928 941 
Q 1016 656 1202 523 
Q 1388 391 1672 391 
Q 1900 391 2089 498 
Q 2278 606 2411 822 
Q 2544 1038 2619 1363 
Q 2694 1688 2700 2125 
Q 2634 1978 2520 1862 
Q 2406 1747 2261 1667 
Q 2116 1588 1947 1545 
Q 1778 1503 1606 1503 
Q 1306 1503 1064 1611 
Q 822 1719 653 1912 
Q 484 2106 392 2379 
Q 300 2653 300 2988 
Q 300 3328 398 3603 
Q 497 3878 684 4070 
Q 872 4263 1145 4366 
Q 1419 4469 1766 4469 
Q 2500 4469 2878 3925 
Q 3256 3381 3256 2291 
z
M 2644 2834 
Q 2644 3078 2586 3293 
Q 2528 3509 2414 3668 
Q 2300 3828 2133 3920 
Q 1966 4013 1747 4013 
Q 1544 4013 1381 3941 
Q 1219 3869 1106 3736 
Q 994 3603 933 3412 
Q 872 3222 872 2988 
Q 872 2766 926 2575 
Q 981 2384 1090 2245 
Q 1200 2106 1362 2026 
Q 1525 1947 1741 1947 
Q 1897 1947 2058 2000 
Q 2219 2053 2348 2162 
Q 2478 2272 2561 2439 
Q 2644 2606 2644 2834 
z
" transform="scale(0.015625)"/>
     </defs>
     <use xlink:href="#LiberationSans-73"/>
     <use xlink:href="#LiberationSans-61" x="50"/>
     <use xlink:href="#LiberationSans-6d" x="105.615234"/>
     <use xlink:href="#LiberationSans-70" x="188.916016"/>
     <use xlink:href="#LiberationSans-6c" x="244.53125"/>
     <use xlink:href="#LiberationSans-65" x="266.748047"/>
     <use xlink:href="#LiberationSans-73" x="322.363281"/>
     <use xlink:href="#LiberationSans-20" x="372.363281"/>
     <use xlink:href="#LiberationSans-3d" x="400.146484"/>
     <use xlink:href="#LiberationSans-20" x="458.544922"/>
     <use xlink:href="#LiberationSans-31" x="486.328125"/>
     <use xlink:href="#LiberationSans-31" x="541.943359"/>
     <use xlink:href="#LiberationSans-39" x="597.558594"/>
    </g>
    <!-- value = [41, 78] -->
    <g style="fill: #262626" transform="translate(110.501934 270.049215)scale(0.219227 -0.219227)">
     <use xlink:href="#LiberationSans-76"/>
     <use xlink:href="#LiberationSans-61" x="50"/>
     <use xlink:href="#LiberationSans-6c" x="105.615234"/>
     <use xlink:href="#LiberationSans-75" x="127.832031"/>
     <use xlink:href="#LiberationSans-65" x="183.447266"/>
     <use xlink:href="#LiberationSans-20" x="239.0625"/>
     <use xlink:href="#LiberationSans-3d" x="266.845703"/>
     <use xlink:href="#LiberationSans-20" x="325.244141"/>
     <use xlink:href="#LiberationSans-5b" x="353.027344"/>
     <use xlink:href="#LiberationSans-34" x="380.810547"/>
     <use xlink:href="#LiberationSans-31" x="436.425781"/>
     <use xlink:href="#LiberationSans-2c" x="492.041016"/>
     <use xlink:href="#LiberationSans-20" x="519.824219"/>
     <use xlink:href="#LiberationSans-37" x="547.607422"/>
     <use xlink:href="#LiberationSans-38" x="603.222656"/>
     <use xlink:href="#LiberationSans-5d" x="658.837891"/>
    </g>
    <!-- class = grey -->
    <g style="fill: #262626" transform="translate(126.973039 293.662652)scale(0.219227 -0.219227)">
     <use xlink:href="#LiberationSans-63"/>
     <use xlink:href="#LiberationSans-6c" x="50"/>
     <use xlink:href="#LiberationSans-61" x="72.216797"/>
     <use xlink:href="#LiberationSans-73" x="127.832031"/>
     <use xlink:href="#LiberationSans-73" x="177.832031"/>
     <use xlink:href="#LiberationSans-20" x="227.832031"/>
     <use xlink:href="#LiberationSans-3d" x="255.615234"/>
     <use xlink:href="#LiberationSans-20" x="314.013672"/>
     <use xlink:href="#LiberationSans-67" x="341.796875"/>
     <use xlink:href="#LiberationSans-72" x="397.412109"/>
     <use xlink:href="#LiberationSans-65" x="430.712891"/>
     <use xlink:href="#LiberationSans-79" x="486.328125"/>
    </g>
   </g>
   <g id="text_4">
    <!-- True   -->
    <g style="fill: #262626" transform="translate(173.969724 155.04)scale(0.219227 -0.219227)">
     <defs>
      <path id="LiberationSans-54" d="M 2250 3916 
L 2250 0 
L 1656 0 
L 1656 3916 
L 144 3916 
L 144 4403 
L 3763 4403 
L 3763 3916 
L 2250 3916 
z
" transform="scale(0.015625)"/>
     </defs>
     <use xlink:href="#LiberationSans-54"/>
     <use xlink:href="#LiberationSans-72" x="57.333984"/>
     <use xlink:href="#LiberationSans-75" x="90.634766"/>
     <use xlink:href="#LiberationSans-65" x="146.25"/>
     <use xlink:href="#LiberationSans-20" x="201.865234"/>
     <use xlink:href="#LiberationSans-20" x="229.648438"/>
    </g>
   </g>
   <g id="patch_8">
    <path d="M 324.358483 162.787166 
Q 300.303239 122.95375 276.074605 82.833217 
" style="fill: none; stroke: #262626; stroke-width: 0.3; stroke-linecap: round"/>
    <path d="M 323.57859 153.014126 
L 324.358483 162.787166 
L 316.072116 157.547257 
" style="fill: none; stroke: #262626; stroke-width: 0.3; stroke-linecap: round"/>
   </g>
   <g id="text_5">
    <g id="patch_9">
     <path d="M 282.966409 292.98168 
L 445.673591 292.98168 
Q 452.250387 292.98168 452.250387 286.404884 
L 452.250387 171.515116 
Q 452.250387 164.93832 445.673591 164.93832 
L 282.966409 164.93832 
Q 276.389613 164.93832 276.389613 171.515116 
L 276.389613 286.404884 
Q 276.389613 292.98168 282.966409 292.98168 
z
" style="fill: #e78b49; stroke: #000000; stroke-width: 0.3; stroke-linejoin: miter"/>
    </g>
    <!-- node #2 -->
    <g style="fill: #262626" transform="translate(324.701657 187.402188)scale(0.219227 -0.219227)">
     <use xlink:href="#LiberationSans-6e"/>
     <use xlink:href="#LiberationSans-6f" x="55.615234"/>
     <use xlink:href="#LiberationSans-64" x="111.230469"/>
     <use xlink:href="#LiberationSans-65" x="166.845703"/>
     <use xlink:href="#LiberationSans-20" x="222.460938"/>
     <use xlink:href="#LiberationSans-23" x="250.244141"/>
     <use xlink:href="#LiberationSans-32" x="305.859375"/>
    </g>
    <!-- gini = 0.141 -->
    <g style="fill: #262626" transform="translate(307.338232 211.015624)scale(0.219227 -0.219227)">
     <use xlink:href="#LiberationSans-67"/>
     <use xlink:href="#LiberationSans-69" x="55.615234"/>
     <use xlink:href="#LiberationSans-6e" x="77.832031"/>
     <use xlink:href="#LiberationSans-69" x="133.447266"/>
     <use xlink:href="#LiberationSans-20" x="155.664062"/>
     <use xlink:href="#LiberationSans-3d" x="183.447266"/>
     <use xlink:href="#LiberationSans-20" x="241.845703"/>
     <use xlink:href="#LiberationSans-30" x="269.628906"/>
     <use xlink:href="#LiberationSans-2e" x="325.244141"/>
     <use xlink:href="#LiberationSans-31" x="353.027344"/>
     <use xlink:href="#LiberationSans-34" x="408.642578"/>
     <use xlink:href="#LiberationSans-31" x="464.257812"/>
    </g>
    <!-- samples = 131 -->
    <g style="fill: #262626" transform="translate(292.727127 234.629061)scale(0.219227 -0.219227)">
     <use xlink:href="#LiberationSans-73"/>
     <use xlink:href="#LiberationSans-61" x="50"/>
     <use xlink:href="#LiberationSans-6d" x="105.615234"/>
     <use xlink:href="#LiberationSans-70" x="188.916016"/>
     <use xlink:href="#LiberationSans-6c" x="244.53125"/>
     <use xlink:href="#LiberationSans-65" x="266.748047"/>
     <use xlink:href="#LiberationSans-73" x="322.363281"/>
     <use xlink:href="#LiberationSans-20" x="372.363281"/>
     <use xlink:href="#LiberationSans-3d" x="400.146484"/>
     <use xlink:href="#LiberationSans-20" x="458.544922"/>
     <use xlink:href="#LiberationSans-31" x="486.328125"/>
     <use xlink:href="#LiberationSans-33" x="541.943359"/>
     <use xlink:href="#LiberationSans-31" x="597.558594"/>
    </g>
    <!-- value = [121, 10] -->
    <g style="fill: #262626" transform="translate(282.966409 258.242497)scale(0.219227 -0.219227)">
     <use xlink:href="#LiberationSans-76"/>
     <use xlink:href="#LiberationSans-61" x="50"/>
     <use xlink:href="#LiberationSans-6c" x="105.615234"/>
     <use xlink:href="#LiberationSans-75" x="127.832031"/>
     <use xlink:href="#LiberationSans-65" x="183.447266"/>
     <use xlink:href="#LiberationSans-20" x="239.0625"/>
     <use xlink:href="#LiberationSans-3d" x="266.845703"/>
     <use xlink:href="#LiberationSans-20" x="325.244141"/>
     <use xlink:href="#LiberationSans-5b" x="353.027344"/>
     <use xlink:href="#LiberationSans-31" x="380.810547"/>
     <use xlink:href="#LiberationSans-32" x="436.425781"/>
     <use xlink:href="#LiberationSans-31" x="492.041016"/>
     <use xlink:href="#LiberationSans-2c" x="547.65625"/>
     <use xlink:href="#LiberationSans-20" x="575.439453"/>
     <use xlink:href="#LiberationSans-31" x="603.222656"/>
     <use xlink:href="#LiberationSans-30" x="658.837891"/>
     <use xlink:href="#LiberationSans-5d" x="714.453125"/>
    </g>
    <!-- class = red -->
    <g style="fill: #262626" transform="translate(311.013702 281.855934)scale(0.219227 -0.219227)">
     <use xlink:href="#LiberationSans-63"/>
     <use xlink:href="#LiberationSans-6c" x="50"/>
     <use xlink:href="#LiberationSans-61" x="72.216797"/>
     <use xlink:href="#LiberationSans-73" x="127.832031"/>
     <use xlink:href="#LiberationSans-73" x="177.832031"/>
     <use xlink:href="#LiberationSans-20" x="227.832031"/>
     <use xlink:href="#LiberationSans-3d" x="255.615234"/>
     <use xlink:href="#LiberationSans-20" x="314.013672"/>
     <use xlink:href="#LiberationSans-72" x="341.796875"/>
     <use xlink:href="#LiberationSans-65" x="375.097656"/>
     <use xlink:href="#LiberationSans-64" x="430.712891"/>
    </g>
   </g>
   <g id="text_6">
    <!--   False -->
    <g style="fill: #262626" transform="translate(319.68 155.04)scale(0.219227 -0.219227)">
     <defs>
      <path id="LiberationSans-46" d="M 1122 3916 
L 1122 2278 
L 3578 2278 
L 3578 1784 
L 1122 1784 
L 1122 0 
L 525 0 
L 525 4403 
L 3653 4403 
L 3653 3916 
L 1122 3916 
z
" transform="scale(0.015625)"/>
     </defs>
     <use xlink:href="#LiberationSans-20"/>
     <use xlink:href="#LiberationSans-20" x="27.783203"/>
     <use xlink:href="#LiberationSans-46" x="55.566406"/>
     <use xlink:href="#LiberationSans-61" x="116.650391"/>
     <use xlink:href="#LiberationSans-6c" x="172.265625"/>
     <use xlink:href="#LiberationSans-73" x="194.482422"/>
     <use xlink:href="#LiberationSans-65" x="244.482422"/>
    </g>
   </g>
   <g id="patch_10">
    <path d="M 275.04 81.12 
Q 275.04 81.12 275.04 81.12 
" style="fill: none; stroke: #262626; stroke-width: 0.3; stroke-linecap: round"/>
   </g>
   <g id="text_7">
    <g id="patch_11">
     <path d="M 193.686409 156.948398 
L 356.393591 156.948398 
Q 362.970387 156.948398 362.970387 150.371602 
L 362.970387 11.868398 
Q 362.970387 5.291602 356.393591 5.291602 
L 193.686409 5.291602 
Q 187.109613 5.291602 187.109613 11.868398 
L 187.109613 150.371602 
Q 187.109613 156.948398 193.686409 156.948398 
z
" style="fill: #f3c5a5; stroke: #000000; stroke-width: 0.3; stroke-linejoin: miter"/>
    </g>
    <!-- node #0 -->
    <g style="fill: #262626" transform="translate(235.421657 27.75547)scale(0.219227 -0.219227)">
     <use xlink:href="#LiberationSans-6e"/>
     <use xlink:href="#LiberationSans-6f" x="55.615234"/>
     <use xlink:href="#LiberationSans-64" x="111.230469"/>
     <use xlink:href="#LiberationSans-65" x="166.845703"/>
     <use xlink:href="#LiberationSans-20" x="222.460938"/>
     <use xlink:href="#LiberationSans-23" x="250.244141"/>
     <use xlink:href="#LiberationSans-30" x="305.859375"/>
    </g>
    <!-- x[1] &lt;= 0.552 -->
    <g style="fill: #262626" transform="translate(211.051547 51.368906)scale(0.219227 -0.219227)">
     <use xlink:href="#LiberationSans-78"/>
     <use xlink:href="#LiberationSans-5b" x="50"/>
     <use xlink:href="#LiberationSans-31" x="77.783203"/>
     <use xlink:href="#LiberationSans-5d" x="133.398438"/>
     <use xlink:href="#LiberationSans-20" x="161.181641"/>
     <use xlink:href="#LiberationSans-3c" x="188.964844"/>
     <use xlink:href="#LiberationSans-3d" x="247.363281"/>
     <use xlink:href="#LiberationSans-20" x="305.761719"/>
     <use xlink:href="#LiberationSans-30" x="333.544922"/>
     <use xlink:href="#LiberationSans-2e" x="389.160156"/>
     <use xlink:href="#LiberationSans-35" x="416.943359"/>
     <use xlink:href="#LiberationSans-35" x="472.558594"/>
     <use xlink:href="#LiberationSans-32" x="528.173828"/>
    </g>
    <!-- gini = 0.456 -->
    <g style="fill: #262626" transform="translate(218.058232 74.982343)scale(0.219227 -0.219227)">
     <use xlink:href="#LiberationSans-67"/>
     <use xlink:href="#LiberationSans-69" x="55.615234"/>
     <use xlink:href="#LiberationSans-6e" x="77.832031"/>
     <use xlink:href="#LiberationSans-69" x="133.447266"/>
     <use xlink:href="#LiberationSans-20" x="155.664062"/>
     <use xlink:href="#LiberationSans-3d" x="183.447266"/>
     <use xlink:href="#LiberationSans-20" x="241.845703"/>
     <use xlink:href="#LiberationSans-30" x="269.628906"/>
     <use xlink:href="#LiberationSans-2e" x="325.244141"/>
     <use xlink:href="#LiberationSans-34" x="353.027344"/>
     <use xlink:href="#LiberationSans-35" x="408.642578"/>
     <use xlink:href="#LiberationSans-36" x="464.257812"/>
    </g>
    <!-- samples = 250 -->
    <g style="fill: #262626" transform="translate(203.447127 98.595779)scale(0.219227 -0.219227)">
     <use xlink:href="#LiberationSans-73"/>
     <use xlink:href="#LiberationSans-61" x="50"/>
     <use xlink:href="#LiberationSans-6d" x="105.615234"/>
     <use xlink:href="#LiberationSans-70" x="188.916016"/>
     <use xlink:href="#LiberationSans-6c" x="244.53125"/>
     <use xlink:href="#LiberationSans-65" x="266.748047"/>
     <use xlink:href="#LiberationSans-73" x="322.363281"/>
     <use xlink:href="#LiberationSans-20" x="372.363281"/>
     <use xlink:href="#LiberationSans-3d" x="400.146484"/>
     <use xlink:href="#LiberationSans-20" x="458.544922"/>
     <use xlink:href="#LiberationSans-32" x="486.328125"/>
     <use xlink:href="#LiberationSans-35" x="541.943359"/>
     <use xlink:href="#LiberationSans-30" x="597.558594"/>
    </g>
    <!-- value = [162, 88] -->
    <g style="fill: #262626" transform="translate(193.686409 122.209215)scale(0.219227 -0.219227)">
     <use xlink:href="#LiberationSans-76"/>
     <use xlink:href="#LiberationSans-61" x="50"/>
     <use xlink:href="#LiberationSans-6c" x="105.615234"/>
     <use xlink:href="#LiberationSans-75" x="127.832031"/>
     <use xlink:href="#LiberationSans-65" x="183.447266"/>
     <use xlink:href="#LiberationSans-20" x="239.0625"/>
     <use xlink:href="#LiberationSans-3d" x="266.845703"/>
     <use xlink:href="#LiberationSans-20" x="325.244141"/>
     <use xlink:href="#LiberationSans-5b" x="353.027344"/>
     <use xlink:href="#LiberationSans-31" x="380.810547"/>
     <use xlink:href="#LiberationSans-36" x="436.425781"/>
     <use xlink:href="#LiberationSans-32" x="492.041016"/>
     <use xlink:href="#LiberationSans-2c" x="547.65625"/>
     <use xlink:href="#LiberationSans-20" x="575.439453"/>
     <use xlink:href="#LiberationSans-38" x="603.222656"/>
     <use xlink:href="#LiberationSans-38" x="658.837891"/>
     <use xlink:href="#LiberationSans-5d" x="714.453125"/>
    </g>
    <!-- class = red -->
    <g style="fill: #262626" transform="translate(221.733702 145.822652)scale(0.219227 -0.219227)">
     <use xlink:href="#LiberationSans-63"/>
     <use xlink:href="#LiberationSans-6c" x="50"/>
     <use xlink:href="#LiberationSans-61" x="72.216797"/>
     <use xlink:href="#LiberationSans-73" x="127.832031"/>
     <use xlink:href="#LiberationSans-73" x="177.832031"/>
     <use xlink:href="#LiberationSans-20" x="227.832031"/>
     <use xlink:href="#LiberationSans-3d" x="255.615234"/>
     <use xlink:href="#LiberationSans-20" x="314.013672"/>
     <use xlink:href="#LiberationSans-72" x="341.796875"/>
     <use xlink:href="#LiberationSans-65" x="375.097656"/>
     <use xlink:href="#LiberationSans-64" x="430.712891"/>
    </g>
   </g>
  </g>
 </g>
</svg>