<?xml version="1.0" encoding="utf-8" standalone="no"?>
<!DOCTYPE svg PUBLIC "-//W3C//DTD SVG 1.1//EN"
  "http://www.w3.org/Graphics/SVG/1.1/DTD/svg11.dtd">
<svg xmlns:xlink="http://www.w3.org/1999/xlink" width="486.7688pt" height="335.641875pt" viewBox="0 0 486.7688 335.641875" xmlns="http://www.w3.org/2000/svg" version="1.1">
 <metadata>
  <rdf:RDF xmlns:dc="http://purl.org/dc/elements/1.1/" xmlns:cc="http://creativecommons.org/ns#" xmlns:rdf="http://www.w3.org/1999/02/22-rdf-syntax-ns#">
   <cc:Work>
    <dc:type rdf:resource="http://purl.org/dc/dcmitype/StillImage"/>
    <dc:date>2024-07-28T12:35:20.828940</dc:date>
    <dc:format>image/svg+xml</dc:format>
    <dc:creator>
     <cc:Agent>
      <dc:title>Matplotlib v3.5.3, https://matplotlib.org/</dc:title>
     </cc:Agent>
    </dc:creator>
   </cc:Work>
  </rdf:RDF>
 </metadata>
 <defs>
  <style type="text/css">*{stroke-linejoin: round; stroke-linecap: butt}</style>
 </defs>
 <g id="figure_1">
  <g id="patch_1">
   <path d="M 0 335.641875 
L 486.7688 335.641875 
L 486.7688 0 
L 0 0 
z
" style="fill: #ffffff"/>
  </g>
  <g id="axes_1">
   <g id="patch_2">
    <path d="M 30.882812 312.12 
L 477.282812 312.12 
L 477.282812 7.2 
L 30.882812 7.2 
z
" style="fill: #eaeaf2"/>
   </g>
   <g id="matplotlib.axis_1">
    <g id="xtick_1">
     <g id="line2d_1">
      <path d="M 40.941368 312.12 
L 40.941368 7.2 
" clip-path="url(#pa0381a98cb)" style="fill: none; stroke: #ffffff; stroke-linecap: round"/>
     </g>
     <g id="line2d_2"/>
     <g id="text_1">
      <!-- 0.0 -->
      <g style="fill: #262626" transform="translate(33.991368 326.366875)scale(0.1 -0.1)">
       <defs>
        <path id="LiberationSans-30" d="M 3309 2203 
Q 3309 1569 3189 1136 
Q 3069 703 2861 436 
Q 2653 169 2372 53 
Q 2091 -63 1772 -63 
Q 1450 -63 1172 53 
Q 894 169 689 434 
Q 484 700 367 1133 
Q 250 1566 250 2203 
Q 250 2869 367 3305 
Q 484 3741 690 4000 
Q 897 4259 1178 4364 
Q 1459 4469 1791 4469 
Q 2106 4469 2382 4364 
Q 2659 4259 2865 4000 
Q 3072 3741 3190 3305 
Q 3309 2869 3309 2203 
z
M 2738 2203 
Q 2738 2728 2675 3076 
Q 2613 3425 2491 3633 
Q 2369 3841 2192 3927 
Q 2016 4013 1791 4013 
Q 1553 4013 1372 3925 
Q 1191 3838 1067 3630 
Q 944 3422 881 3073 
Q 819 2725 819 2203 
Q 819 1697 883 1350 
Q 947 1003 1070 792 
Q 1194 581 1372 489 
Q 1550 397 1778 397 
Q 2000 397 2178 489 
Q 2356 581 2479 792 
Q 2603 1003 2670 1350 
Q 2738 1697 2738 2203 
z
" transform="scale(0.015625)"/>
        <path id="LiberationSans-2e" d="M 584 0 
L 584 684 
L 1194 684 
L 1194 0 
L 584 0 
z
" transform="scale(0.015625)"/>
       </defs>
       <use xlink:href="#LiberationSans-30"/>
       <use xlink:href="#LiberationSans-2e" x="55.615234"/>
       <use xlink:href="#LiberationSans-30" x="83.398438"/>
      </g>
     </g>
    </g>
    <g id="xtick_2">
     <g id="line2d_3">
      <path d="M 127.276854 312.12 
L 127.276854 7.2 
" clip-path="url(#pa0381a98cb)" style="fill: none; stroke: #ffffff; stroke-linecap: round"/>
     </g>
     <g id="line2d_4"/>
     <g id="text_2">
      <!-- 0.2 -->
      <g style="fill: #262626" transform="translate(120.326854 326.366875)scale(0.1 -0.1)">
       <defs>
        <path id="LiberationSans-32" d="M 322 0 
L 322 397 
Q 481 763 711 1042 
Q 941 1322 1194 1548 
Q 1447 1775 1695 1969 
Q 1944 2163 2144 2356 
Q 2344 2550 2467 2762 
Q 2591 2975 2591 3244 
Q 2591 3431 2534 3573 
Q 2478 3716 2372 3812 
Q 2266 3909 2117 3957 
Q 1969 4006 1788 4006 
Q 1619 4006 1470 3959 
Q 1322 3913 1206 3819 
Q 1091 3725 1017 3586 
Q 944 3447 922 3263 
L 347 3316 
Q 375 3553 478 3762 
Q 581 3972 762 4130 
Q 944 4288 1198 4378 
Q 1453 4469 1788 4469 
Q 2116 4469 2372 4391 
Q 2628 4313 2804 4159 
Q 2981 4006 3075 3781 
Q 3169 3556 3169 3263 
Q 3169 3041 3089 2841 
Q 3009 2641 2876 2459 
Q 2744 2278 2569 2109 
Q 2394 1941 2203 1780 
Q 2013 1619 1819 1461 
Q 1625 1303 1454 1143 
Q 1284 984 1150 820 
Q 1016 656 941 478 
L 3238 478 
L 3238 0 
L 322 0 
z
" transform="scale(0.015625)"/>
       </defs>
       <use xlink:href="#LiberationSans-30"/>
       <use xlink:href="#LiberationSans-2e" x="55.615234"/>
       <use xlink:href="#LiberationSans-32" x="83.398438"/>
      </g>
     </g>
    </g>
    <g id="xtick_3">
     <g id="line2d_5">
      <path d="M 213.61234 312.12 
L 213.61234 7.2 
" clip-path="url(#pa0381a98cb)" style="fill: none; stroke: #ffffff; stroke-linecap: round"/>
     </g>
     <g id="line2d_6"/>
     <g id="text_3">
      <!-- 0.4 -->
      <g style="fill: #262626" transform="translate(206.66234 326.366875)scale(0.1 -0.1)">
       <defs>
        <path id="LiberationSans-34" d="M 2753 997 
L 2753 0 
L 2222 0 
L 2222 997 
L 147 997 
L 147 1434 
L 2163 4403 
L 2753 4403 
L 2753 1441 
L 3372 1441 
L 3372 997 
L 2753 997 
z
M 2222 3769 
Q 2216 3753 2191 3708 
Q 2166 3663 2134 3606 
Q 2103 3550 2070 3492 
Q 2038 3434 2013 3397 
L 884 1734 
Q 869 1709 839 1668 
Q 809 1628 778 1586 
Q 747 1544 715 1503 
Q 684 1463 666 1441 
L 2222 1441 
L 2222 3769 
z
" transform="scale(0.015625)"/>
       </defs>
       <use xlink:href="#LiberationSans-30"/>
       <use xlink:href="#LiberationSans-2e" x="55.615234"/>
       <use xlink:href="#LiberationSans-34" x="83.398438"/>
      </g>
     </g>
    </g>
    <g id="xtick_4">
     <g id="line2d_7">
      <path d="M 299.947827 312.12 
L 299.947827 7.2 
" clip-path="url(#pa0381a98cb)" style="fill: none; stroke: #ffffff; stroke-linecap: round"/>
     </g>
     <g id="line2d_8"/>
     <g id="text_4">
      <!-- 0.6 -->
      <g style="fill: #262626" transform="translate(292.997827 326.366875)scale(0.1 -0.1)">
       <defs>
        <path id="LiberationSans-36" d="M 3278 1441 
Q 3278 1109 3186 832 
Q 3094 556 2914 357 
Q 2734 159 2468 48 
Q 2203 -63 1856 -63 
Q 1472 -63 1184 84 
Q 897 231 706 507 
Q 516 784 420 1186 
Q 325 1588 325 2100 
Q 325 2688 433 3131 
Q 541 3575 744 3872 
Q 947 4169 1239 4319 
Q 1531 4469 1900 4469 
Q 2125 4469 2322 4422 
Q 2519 4375 2680 4270 
Q 2841 4166 2962 3994 
Q 3084 3822 3156 3572 
L 2619 3475 
Q 2531 3759 2339 3886 
Q 2147 4013 1894 4013 
Q 1663 4013 1475 3903 
Q 1288 3794 1156 3576 
Q 1025 3359 954 3031 
Q 884 2703 884 2266 
Q 1038 2550 1316 2698 
Q 1594 2847 1953 2847 
Q 2253 2847 2497 2750 
Q 2741 2653 2914 2470 
Q 3088 2288 3183 2027 
Q 3278 1766 3278 1441 
z
M 2706 1416 
Q 2706 1644 2650 1828 
Q 2594 2013 2481 2142 
Q 2369 2272 2203 2342 
Q 2038 2413 1819 2413 
Q 1666 2413 1509 2367 
Q 1353 2322 1226 2220 
Q 1100 2119 1020 1953 
Q 941 1788 941 1550 
Q 941 1306 1003 1095 
Q 1066 884 1183 728 
Q 1300 572 1465 481 
Q 1631 391 1838 391 
Q 2041 391 2202 461 
Q 2363 531 2475 664 
Q 2588 797 2647 987 
Q 2706 1178 2706 1416 
z
" transform="scale(0.015625)"/>
       </defs>
       <use xlink:href="#LiberationSans-30"/>
       <use xlink:href="#LiberationSans-2e" x="55.615234"/>
       <use xlink:href="#LiberationSans-36" x="83.398438"/>
      </g>
     </g>
    </g>
    <g id="xtick_5">
     <g id="line2d_9">
      <path d="M 386.283313 312.12 
L 386.283313 7.2 
" clip-path="url(#pa0381a98cb)" style="fill: none; stroke: #ffffff; stroke-linecap: round"/>
     </g>
     <g id="line2d_10"/>
     <g id="text_5">
      <!-- 0.8 -->
      <g style="fill: #262626" transform="translate(379.333313 326.366875)scale(0.1 -0.1)">
       <defs>
        <path id="LiberationSans-38" d="M 3281 1228 
Q 3281 947 3192 711 
Q 3103 475 2920 303 
Q 2738 131 2453 34 
Q 2169 -63 1781 -63 
Q 1394 -63 1111 34 
Q 828 131 642 301 
Q 456 472 367 708 
Q 278 944 278 1222 
Q 278 1463 351 1650 
Q 425 1838 548 1973 
Q 672 2109 830 2192 
Q 988 2275 1156 2303 
L 1156 2316 
Q 972 2359 826 2456 
Q 681 2553 582 2689 
Q 484 2825 432 2990 
Q 381 3156 381 3341 
Q 381 3572 470 3776 
Q 559 3981 734 4136 
Q 909 4291 1168 4380 
Q 1428 4469 1769 4469 
Q 2128 4469 2392 4378 
Q 2656 4288 2829 4133 
Q 3003 3978 3087 3772 
Q 3172 3566 3172 3334 
Q 3172 3153 3120 2987 
Q 3069 2822 2970 2686 
Q 2872 2550 2726 2454 
Q 2581 2359 2391 2322 
L 2391 2309 
Q 2581 2278 2743 2195 
Q 2906 2113 3025 1977 
Q 3144 1841 3212 1653 
Q 3281 1466 3281 1228 
z
M 2588 3303 
Q 2588 3469 2545 3606 
Q 2503 3744 2406 3842 
Q 2309 3941 2153 3995 
Q 1997 4050 1769 4050 
Q 1547 4050 1394 3995 
Q 1241 3941 1142 3842 
Q 1044 3744 1000 3606 
Q 956 3469 956 3303 
Q 956 3172 990 3034 
Q 1025 2897 1115 2784 
Q 1206 2672 1365 2600 
Q 1525 2528 1775 2528 
Q 2041 2528 2202 2600 
Q 2363 2672 2448 2784 
Q 2534 2897 2561 3034 
Q 2588 3172 2588 3303 
z
M 2697 1281 
Q 2697 1441 2653 1589 
Q 2609 1738 2503 1852 
Q 2397 1966 2217 2036 
Q 2038 2106 1769 2106 
Q 1522 2106 1348 2036 
Q 1175 1966 1067 1850 
Q 959 1734 909 1582 
Q 859 1431 859 1269 
Q 859 1066 909 898 
Q 959 731 1068 611 
Q 1178 491 1356 425 
Q 1534 359 1788 359 
Q 2044 359 2219 425 
Q 2394 491 2500 611 
Q 2606 731 2651 901 
Q 2697 1072 2697 1281 
z
" transform="scale(0.015625)"/>
       </defs>
       <use xlink:href="#LiberationSans-30"/>
       <use xlink:href="#LiberationSans-2e" x="55.615234"/>
       <use xlink:href="#LiberationSans-38" x="83.398438"/>
      </g>
     </g>
    </g>
    <g id="xtick_6">
     <g id="line2d_11">
      <path d="M 472.6188 312.12 
L 472.6188 7.2 
" clip-path="url(#pa0381a98cb)" style="fill: none; stroke: #ffffff; stroke-linecap: round"/>
     </g>
     <g id="line2d_12"/>
     <g id="text_6">
      <!-- 1.0 -->
      <g style="fill: #262626" transform="translate(465.6688 326.366875)scale(0.1 -0.1)">
       <defs>
        <path id="LiberationSans-31" d="M 488 0 
L 488 478 
L 1609 478 
L 1609 3866 
L 616 3156 
L 616 3688 
L 1656 4403 
L 2175 4403 
L 2175 478 
L 3247 478 
L 3247 0 
L 488 0 
z
" transform="scale(0.015625)"/>
       </defs>
       <use xlink:href="#LiberationSans-31"/>
       <use xlink:href="#LiberationSans-2e" x="55.615234"/>
       <use xlink:href="#LiberationSans-30" x="83.398438"/>
      </g>
     </g>
    </g>
   </g>
   <g id="matplotlib.axis_2">
    <g id="ytick_1">
     <g id="line2d_13">
      <path d="M 30.882812 312.12 
L 477.282812 312.12 
" clip-path="url(#pa0381a98cb)" style="fill: none; stroke: #ffffff; stroke-linecap: round"/>
     </g>
     <g id="line2d_14"/>
     <g id="text_7">
      <!-- 0 -->
      <g style="fill: #262626" transform="translate(18.321875 315.743437)scale(0.1 -0.1)">
       <use xlink:href="#LiberationSans-30"/>
      </g>
     </g>
    </g>
    <g id="ytick_2">
     <g id="line2d_15">
      <path d="M 30.882812 275.82 
L 477.282812 275.82 
" clip-path="url(#pa0381a98cb)" style="fill: none; stroke: #ffffff; stroke-linecap: round"/>
     </g>
     <g id="line2d_16"/>
     <g id="text_8">
      <!-- 25 -->
      <g style="fill: #262626" transform="translate(12.760937 279.443437)scale(0.1 -0.1)">
       <defs>
        <path id="LiberationSans-35" d="M 3291 1434 
Q 3291 1103 3191 828 
Q 3091 553 2894 354 
Q 2697 156 2405 46 
Q 2113 -63 1728 -63 
Q 1381 -63 1123 18 
Q 866 100 687 242 
Q 509 384 404 575 
Q 300 766 256 984 
L 825 1050 
Q 859 925 921 808 
Q 984 691 1092 598 
Q 1200 506 1358 451 
Q 1516 397 1741 397 
Q 1959 397 2137 464 
Q 2316 531 2442 662 
Q 2569 794 2637 984 
Q 2706 1175 2706 1422 
Q 2706 1625 2640 1795 
Q 2575 1966 2453 2089 
Q 2331 2213 2154 2281 
Q 1978 2350 1753 2350 
Q 1613 2350 1494 2325 
Q 1375 2300 1273 2256 
Q 1172 2213 1089 2155 
Q 1006 2097 934 2034 
L 384 2034 
L 531 4403 
L 3034 4403 
L 3034 3925 
L 1044 3925 
L 959 2528 
Q 1109 2644 1334 2726 
Q 1559 2809 1869 2809 
Q 2197 2809 2459 2709 
Q 2722 2609 2906 2426 
Q 3091 2244 3191 1991 
Q 3291 1738 3291 1434 
z
" transform="scale(0.015625)"/>
       </defs>
       <use xlink:href="#LiberationSans-32"/>
       <use xlink:href="#LiberationSans-35" x="55.615234"/>
      </g>
     </g>
    </g>
    <g id="ytick_3">
     <g id="line2d_17">
      <path d="M 30.882812 239.52 
L 477.282812 239.52 
" clip-path="url(#pa0381a98cb)" style="fill: none; stroke: #ffffff; stroke-linecap: round"/>
     </g>
     <g id="line2d_18"/>
     <g id="text_9">
      <!-- 50 -->
      <g style="fill: #262626" transform="translate(12.760937 243.143437)scale(0.1 -0.1)">
       <use xlink:href="#LiberationSans-35"/>
       <use xlink:href="#LiberationSans-30" x="55.615234"/>
      </g>
     </g>
    </g>
    <g id="ytick_4">
     <g id="line2d_19">
      <path d="M 30.882812 203.22 
L 477.282812 203.22 
" clip-path="url(#pa0381a98cb)" style="fill: none; stroke: #ffffff; stroke-linecap: round"/>
     </g>
     <g id="line2d_20"/>
     <g id="text_10">
      <!-- 75 -->
      <g style="fill: #262626" transform="translate(12.760937 206.843437)scale(0.1 -0.1)">
       <defs>
        <path id="LiberationSans-37" d="M 3238 3947 
Q 2906 3441 2628 2973 
Q 2350 2506 2150 2032 
Q 1950 1559 1839 1061 
Q 1728 563 1728 0 
L 1141 0 
Q 1141 528 1266 1036 
Q 1391 1544 1603 2033 
Q 1816 2522 2097 2994 
Q 2378 3466 2694 3925 
L 328 3925 
L 328 4403 
L 3238 4403 
L 3238 3947 
z
" transform="scale(0.015625)"/>
       </defs>
       <use xlink:href="#LiberationSans-37"/>
       <use xlink:href="#LiberationSans-35" x="55.615234"/>
      </g>
     </g>
    </g>
    <g id="ytick_5">
     <g id="line2d_21">
      <path d="M 30.882812 166.92 
L 477.282812 166.92 
" clip-path="url(#pa0381a98cb)" style="fill: none; stroke: #ffffff; stroke-linecap: round"/>
     </g>
     <g id="line2d_22"/>
     <g id="text_11">
      <!-- 100 -->
      <g style="fill: #262626" transform="translate(7.2 170.543437)scale(0.1 -0.1)">
       <use xlink:href="#LiberationSans-31"/>
       <use xlink:href="#LiberationSans-30" x="55.615234"/>
       <use xlink:href="#LiberationSans-30" x="111.230469"/>
      </g>
     </g>
    </g>
    <g id="ytick_6">
     <g id="line2d_23">
      <path d="M 30.882812 130.62 
L 477.282812 130.62 
" clip-path="url(#pa0381a98cb)" style="fill: none; stroke: #ffffff; stroke-linecap: round"/>
     </g>
     <g id="line2d_24"/>
     <g id="text_12">
      <!-- 125 -->
      <g style="fill: #262626" transform="translate(7.2 134.243437)scale(0.1 -0.1)">
       <use xlink:href="#LiberationSans-31"/>
       <use xlink:href="#LiberationSans-32" x="55.615234"/>
       <use xlink:href="#LiberationSans-35" x="111.230469"/>
      </g>
     </g>
    </g>
    <g id="ytick_7">
     <g id="line2d_25">
      <path d="M 30.882812 94.32 
L 477.282812 94.32 
" clip-path="url(#pa0381a98cb)" style="fill: none; stroke: #ffffff; stroke-linecap: round"/>
     </g>
     <g id="line2d_26"/>
     <g id="text_13">
      <!-- 150 -->
      <g style="fill: #262626" transform="translate(7.2 97.943437)scale(0.1 -0.1)">
       <use xlink:href="#LiberationSans-31"/>
       <use xlink:href="#LiberationSans-35" x="55.615234"/>
       <use xlink:href="#LiberationSans-30" x="111.230469"/>
      </g>
     </g>
    </g>
    <g id="ytick_8">
     <g id="line2d_27">
      <path d="M 30.882812 58.02 
L 477.282812 58.02 
" clip-path="url(#pa0381a98cb)" style="fill: none; stroke: #ffffff; stroke-linecap: round"/>
     </g>
     <g id="line2d_28"/>
     <g id="text_14">
      <!-- 175 -->
      <g style="fill: #262626" transform="translate(7.2 61.643437)scale(0.1 -0.1)">
       <use xlink:href="#LiberationSans-31"/>
       <use xlink:href="#LiberationSans-37" x="55.615234"/>
       <use xlink:href="#LiberationSans-35" x="111.230469"/>
      </g>
     </g>
    </g>
    <g id="ytick_9">
     <g id="line2d_29">
      <path d="M 30.882812 21.72 
L 477.282812 21.72 
" clip-path="url(#pa0381a98cb)" style="fill: none; stroke: #ffffff; stroke-linecap: round"/>
     </g>
     <g id="line2d_30"/>
     <g id="text_15">
      <!-- 200 -->
      <g style="fill: #262626" transform="translate(7.2 25.343437)scale(0.1 -0.1)">
       <use xlink:href="#LiberationSans-32"/>
       <use xlink:href="#LiberationSans-30" x="55.615234"/>
       <use xlink:href="#LiberationSans-30" x="111.230469"/>
      </g>
     </g>
    </g>
   </g>
   <g id="patch_3">
    <path d="M 51.173722 312.12 
L 55.231903 312.12 
L 55.231903 262.752 
L 51.173722 262.752 
z
" clip-path="url(#pa0381a98cb)" style="fill: #4c72b0"/>
   </g>
   <g id="patch_4">
    <path d="M 55.231903 312.12 
L 59.290085 312.12 
L 59.290085 285.984 
L 55.231903 285.984 
z
" clip-path="url(#pa0381a98cb)" style="fill: #4c72b0"/>
   </g>
   <g id="patch_5">
    <path d="M 59.290085 312.12 
L 63.348267 312.12 
L 63.348267 288.888 
L 59.290085 288.888 
z
" clip-path="url(#pa0381a98cb)" style="fill: #4c72b0"/>
   </g>
   <g id="patch_6">
    <path d="M 63.348267 312.12 
L 67.406449 312.12 
L 67.406449 310.668 
L 63.348267 310.668 
z
" clip-path="url(#pa0381a98cb)" style="fill: #4c72b0"/>
   </g>
   <g id="patch_7">
    <path d="M 67.406449 312.12 
L 71.464631 312.12 
L 71.464631 280.176 
L 67.406449 280.176 
z
" clip-path="url(#pa0381a98cb)" style="fill: #4c72b0"/>
   </g>
   <g id="patch_8">
    <path d="M 71.464631 312.12 
L 75.522813 312.12 
L 75.522813 312.12 
L 71.464631 312.12 
z
" clip-path="url(#pa0381a98cb)" style="fill: #4c72b0"/>
   </g>
   <g id="patch_9">
    <path d="M 75.522813 312.12 
L 79.580994 312.12 
L 79.580994 21.72 
L 75.522813 21.72 
z
" clip-path="url(#pa0381a98cb)" style="fill: #4c72b0"/>
   </g>
   <g id="patch_10">
    <path d="M 79.580994 312.12 
L 83.639176 312.12 
L 83.639176 306.312 
L 79.580994 306.312 
z
" clip-path="url(#pa0381a98cb)" style="fill: #4c72b0"/>
   </g>
   <g id="patch_11">
    <path d="M 83.639176 312.12 
L 87.697358 312.12 
L 87.697358 312.12 
L 83.639176 312.12 
z
" clip-path="url(#pa0381a98cb)" style="fill: #4c72b0"/>
   </g>
   <g id="patch_12">
    <path d="M 87.697358 312.12 
L 91.75554 312.12 
L 91.75554 142.236 
L 87.697358 142.236 
z
" clip-path="url(#pa0381a98cb)" style="fill: #4c72b0"/>
   </g>
   <g id="patch_13">
    <path d="M 91.75554 312.12 
L 95.813722 312.12 
L 95.813722 312.12 
L 91.75554 312.12 
z
" clip-path="url(#pa0381a98cb)" style="fill: #4c72b0"/>
   </g>
   <g id="patch_14">
    <path d="M 95.813722 312.12 
L 99.871903 312.12 
L 99.871903 294.696 
L 95.813722 294.696 
z
" clip-path="url(#pa0381a98cb)" style="fill: #4c72b0"/>
   </g>
   <g id="patch_15">
    <path d="M 99.871903 312.12 
L 103.930085 312.12 
L 103.930085 296.148 
L 99.871903 296.148 
z
" clip-path="url(#pa0381a98cb)" style="fill: #4c72b0"/>
   </g>
   <g id="patch_16">
    <path d="M 103.930085 312.12 
L 107.988267 312.12 
L 107.988267 281.628 
L 103.930085 281.628 
z
" clip-path="url(#pa0381a98cb)" style="fill: #4c72b0"/>
   </g>
   <g id="patch_17">
    <path d="M 107.988267 312.12 
L 112.046449 312.12 
L 112.046449 259.848 
L 107.988267 259.848 
z
" clip-path="url(#pa0381a98cb)" style="fill: #4c72b0"/>
   </g>
   <g id="patch_18">
    <path d="M 112.046449 312.12 
L 116.104631 312.12 
L 116.104631 303.408 
L 112.046449 303.408 
z
" clip-path="url(#pa0381a98cb)" style="fill: #4c72b0"/>
   </g>
   <g id="patch_19">
    <path d="M 116.104631 312.12 
L 120.162813 312.12 
L 120.162813 303.408 
L 116.104631 303.408 
z
" clip-path="url(#pa0381a98cb)" style="fill: #4c72b0"/>
   </g>
   <g id="patch_20">
    <path d="M 120.162813 312.12 
L 124.220994 312.12 
L 124.220994 294.696 
L 120.162813 294.696 
z
" clip-path="url(#pa0381a98cb)" style="fill: #4c72b0"/>
   </g>
   <g id="patch_21">
    <path d="M 124.220994 312.12 
L 128.279176 312.12 
L 128.279176 275.82 
L 124.220994 275.82 
z
" clip-path="url(#pa0381a98cb)" style="fill: #4c72b0"/>
   </g>
   <g id="patch_22">
    <path d="M 128.279176 312.12 
L 132.337358 312.12 
L 132.337358 222.096 
L 128.279176 222.096 
z
" clip-path="url(#pa0381a98cb)" style="fill: #4c72b0"/>
   </g>
   <g id="patch_23">
    <path d="M 132.337358 312.12 
L 136.39554 312.12 
L 136.39554 309.216 
L 132.337358 309.216 
z
" clip-path="url(#pa0381a98cb)" style="fill: #4c72b0"/>
   </g>
   <g id="patch_24">
    <path d="M 136.39554 312.12 
L 140.453722 312.12 
L 140.453722 283.08 
L 136.39554 283.08 
z
" clip-path="url(#pa0381a98cb)" style="fill: #4c72b0"/>
   </g>
   <g id="patch_25">
    <path d="M 140.453722 312.12 
L 144.511903 312.12 
L 144.511903 312.12 
L 140.453722 312.12 
z
" clip-path="url(#pa0381a98cb)" style="fill: #4c72b0"/>
   </g>
   <g id="patch_26">
    <path d="M 144.511903 312.12 
L 148.570085 312.12 
L 148.570085 312.12 
L 144.511903 312.12 
z
" clip-path="url(#pa0381a98cb)" style="fill: #4c72b0"/>
   </g>
   <g id="patch_27">
    <path d="M 148.570085 312.12 
L 152.628267 312.12 
L 152.628267 296.148 
L 148.570085 296.148 
z
" clip-path="url(#pa0381a98cb)" style="fill: #4c72b0"/>
   </g>
   <g id="patch_28">
    <path d="M 152.628267 312.12 
L 156.686449 312.12 
L 156.686449 306.312 
L 152.628267 306.312 
z
" clip-path="url(#pa0381a98cb)" style="fill: #4c72b0"/>
   </g>
   <g id="patch_29">
    <path d="M 156.686449 312.12 
L 160.744631 312.12 
L 160.744631 312.12 
L 156.686449 312.12 
z
" clip-path="url(#pa0381a98cb)" style="fill: #4c72b0"/>
   </g>
   <g id="patch_30">
    <path d="M 160.744631 312.12 
L 164.802813 312.12 
L 164.802813 249.684 
L 160.744631 249.684 
z
" clip-path="url(#pa0381a98cb)" style="fill: #4c72b0"/>
   </g>
   <g id="patch_31">
    <path d="M 164.802813 312.12 
L 168.860994 312.12 
L 168.860994 304.86 
L 164.802813 304.86 
z
" clip-path="url(#pa0381a98cb)" style="fill: #4c72b0"/>
   </g>
   <g id="patch_32">
    <path d="M 168.860994 312.12 
L 172.919176 312.12 
L 172.919176 310.668 
L 168.860994 310.668 
z
" clip-path="url(#pa0381a98cb)" style="fill: #4c72b0"/>
   </g>
   <g id="patch_33">
    <path d="M 172.919176 312.12 
L 176.977358 312.12 
L 176.977358 285.984 
L 172.919176 285.984 
z
" clip-path="url(#pa0381a98cb)" style="fill: #4c72b0"/>
   </g>
   <g id="patch_34">
    <path d="M 176.977358 312.12 
L 181.03554 312.12 
L 181.03554 309.216 
L 176.977358 309.216 
z
" clip-path="url(#pa0381a98cb)" style="fill: #4c72b0"/>
   </g>
   <g id="patch_35">
    <path d="M 181.03554 312.12 
L 185.093722 312.12 
L 185.093722 301.956 
L 181.03554 301.956 
z
" clip-path="url(#pa0381a98cb)" style="fill: #4c72b0"/>
   </g>
   <g id="patch_36">
    <path d="M 185.093722 312.12 
L 189.151903 312.12 
L 189.151903 312.12 
L 185.093722 312.12 
z
" clip-path="url(#pa0381a98cb)" style="fill: #4c72b0"/>
   </g>
   <g id="patch_37">
    <path d="M 189.151903 312.12 
L 193.210085 312.12 
L 193.210085 312.12 
L 189.151903 312.12 
z
" clip-path="url(#pa0381a98cb)" style="fill: #4c72b0"/>
   </g>
   <g id="patch_38">
    <path d="M 193.210085 312.12 
L 197.268267 312.12 
L 197.268267 281.628 
L 193.210085 281.628 
z
" clip-path="url(#pa0381a98cb)" style="fill: #4c72b0"/>
   </g>
   <g id="patch_39">
    <path d="M 197.268267 312.12 
L 201.326449 312.12 
L 201.326449 307.764 
L 197.268267 307.764 
z
" clip-path="url(#pa0381a98cb)" style="fill: #4c72b0"/>
   </g>
   <g id="patch_40">
    <path d="M 201.326449 312.12 
L 205.384631 312.12 
L 205.384631 293.244 
L 201.326449 293.244 
z
" clip-path="url(#pa0381a98cb)" style="fill: #4c72b0"/>
   </g>
   <g id="patch_41">
    <path d="M 205.384631 312.12 
L 209.442813 312.12 
L 209.442813 312.12 
L 205.384631 312.12 
z
" clip-path="url(#pa0381a98cb)" style="fill: #4c72b0"/>
   </g>
   <g id="patch_42">
    <path d="M 209.442813 312.12 
L 213.500994 312.12 
L 213.500994 255.492 
L 209.442813 255.492 
z
" clip-path="url(#pa0381a98cb)" style="fill: #4c72b0"/>
   </g>
   <g id="patch_43">
    <path d="M 213.500994 312.12 
L 217.559176 312.12 
L 217.559176 124.812 
L 213.500994 124.812 
z
" clip-path="url(#pa0381a98cb)" style="fill: #4c72b0"/>
   </g>
   <g id="patch_44">
    <path d="M 217.559176 312.12 
L 221.617358 312.12 
L 221.617358 312.12 
L 217.559176 312.12 
z
" clip-path="url(#pa0381a98cb)" style="fill: #4c72b0"/>
   </g>
   <g id="patch_45">
    <path d="M 221.617358 312.12 
L 225.67554 312.12 
L 225.67554 275.82 
L 221.617358 275.82 
z
" clip-path="url(#pa0381a98cb)" style="fill: #4c72b0"/>
   </g>
   <g id="patch_46">
    <path d="M 225.67554 312.12 
L 229.733722 312.12 
L 229.733722 293.244 
L 225.67554 293.244 
z
" clip-path="url(#pa0381a98cb)" style="fill: #4c72b0"/>
   </g>
   <g id="patch_47">
    <path d="M 229.733722 312.12 
L 233.791903 312.12 
L 233.791903 312.12 
L 229.733722 312.12 
z
" clip-path="url(#pa0381a98cb)" style="fill: #4c72b0"/>
   </g>
   <g id="patch_48">
    <path d="M 233.791903 312.12 
L 237.850085 312.12 
L 237.850085 246.78 
L 233.791903 246.78 
z
" clip-path="url(#pa0381a98cb)" style="fill: #4c72b0"/>
   </g>
   <g id="patch_49">
    <path d="M 237.850085 312.12 
L 241.908267 312.12 
L 241.908267 306.312 
L 237.850085 306.312 
z
" clip-path="url(#pa0381a98cb)" style="fill: #4c72b0"/>
   </g>
   <g id="patch_50">
    <path d="M 241.908267 312.12 
L 245.966449 312.12 
L 245.966449 310.668 
L 241.908267 310.668 
z
" clip-path="url(#pa0381a98cb)" style="fill: #4c72b0"/>
   </g>
   <g id="patch_51">
    <path d="M 245.966449 312.12 
L 250.024631 312.12 
L 250.024631 287.436 
L 245.966449 287.436 
z
" clip-path="url(#pa0381a98cb)" style="fill: #4c72b0"/>
   </g>
   <g id="patch_52">
    <path d="M 250.024631 312.12 
L 254.082813 312.12 
L 254.082813 288.888 
L 250.024631 288.888 
z
" clip-path="url(#pa0381a98cb)" style="fill: #4c72b0"/>
   </g>
   <g id="patch_53">
    <path d="M 254.082813 312.12 
L 258.140994 312.12 
L 258.140994 306.312 
L 254.082813 306.312 
z
" clip-path="url(#pa0381a98cb)" style="fill: #4c72b0"/>
   </g>
   <g id="patch_54">
    <path d="M 258.140994 312.12 
L 262.199176 312.12 
L 262.199176 293.244 
L 258.140994 293.244 
z
" clip-path="url(#pa0381a98cb)" style="fill: #4c72b0"/>
   </g>
   <g id="patch_55">
    <path d="M 262.199176 312.12 
L 266.257358 312.12 
L 266.257358 278.724 
L 262.199176 278.724 
z
" clip-path="url(#pa0381a98cb)" style="fill: #4c72b0"/>
   </g>
   <g id="patch_56">
    <path d="M 266.257358 312.12 
L 270.31554 312.12 
L 270.31554 301.956 
L 266.257358 301.956 
z
" clip-path="url(#pa0381a98cb)" style="fill: #4c72b0"/>
   </g>
   <g id="patch_57">
    <path d="M 270.31554 312.12 
L 274.373722 312.12 
L 274.373722 307.764 
L 270.31554 307.764 
z
" clip-path="url(#pa0381a98cb)" style="fill: #4c72b0"/>
   </g>
   <g id="patch_58">
    <path d="M 274.373722 312.12 
L 278.431903 312.12 
L 278.431903 299.052 
L 274.373722 299.052 
z
" clip-path="url(#pa0381a98cb)" style="fill: #4c72b0"/>
   </g>
   <g id="patch_59">
    <path d="M 278.431903 312.12 
L 282.490085 312.12 
L 282.490085 284.532 
L 278.431903 284.532 
z
" clip-path="url(#pa0381a98cb)" style="fill: #4c72b0"/>
   </g>
   <g id="patch_60">
    <path d="M 282.490085 312.12 
L 286.548267 312.12 
L 286.548267 309.216 
L 282.490085 309.216 
z
" clip-path="url(#pa0381a98cb)" style="fill: #4c72b0"/>
   </g>
   <g id="patch_61">
    <path d="M 286.548267 312.12 
L 290.606449 312.12 
L 290.606449 301.956 
L 286.548267 301.956 
z
" clip-path="url(#pa0381a98cb)" style="fill: #4c72b0"/>
   </g>
   <g id="patch_62">
    <path d="M 290.606449 312.12 
L 294.664631 312.12 
L 294.664631 249.684 
L 290.606449 249.684 
z
" clip-path="url(#pa0381a98cb)" style="fill: #4c72b0"/>
   </g>
   <g id="patch_63">
    <path d="M 294.664631 312.12 
L 298.722812 312.12 
L 298.722812 268.56 
L 294.664631 268.56 
z
" clip-path="url(#pa0381a98cb)" style="fill: #4c72b0"/>
   </g>
   <g id="patch_64">
    <path d="M 298.722812 312.12 
L 302.780994 312.12 
L 302.780994 210.48 
L 298.722812 210.48 
z
" clip-path="url(#pa0381a98cb)" style="fill: #4c72b0"/>
   </g>
   <g id="patch_65">
    <path d="M 302.780994 312.12 
L 306.839176 312.12 
L 306.839176 312.12 
L 302.780994 312.12 
z
" clip-path="url(#pa0381a98cb)" style="fill: #4c72b0"/>
   </g>
   <g id="patch_66">
    <path d="M 306.839176 312.12 
L 310.897358 312.12 
L 310.897358 264.204 
L 306.839176 264.204 
z
" clip-path="url(#pa0381a98cb)" style="fill: #4c72b0"/>
   </g>
   <g id="patch_67">
    <path d="M 310.897358 312.12 
L 314.95554 312.12 
L 314.95554 264.204 
L 310.897358 264.204 
z
" clip-path="url(#pa0381a98cb)" style="fill: #4c72b0"/>
   </g>
   <g id="patch_68">
    <path d="M 314.95554 312.12 
L 319.013722 312.12 
L 319.013722 312.12 
L 314.95554 312.12 
z
" clip-path="url(#pa0381a98cb)" style="fill: #4c72b0"/>
   </g>
   <g id="patch_69">
    <path d="M 319.013722 312.12 
L 323.071903 312.12 
L 323.071903 293.244 
L 319.013722 293.244 
z
" clip-path="url(#pa0381a98cb)" style="fill: #4c72b0"/>
   </g>
   <g id="patch_70">
    <path d="M 323.071903 312.12 
L 327.130085 312.12 
L 327.130085 306.312 
L 323.071903 306.312 
z
" clip-path="url(#pa0381a98cb)" style="fill: #4c72b0"/>
   </g>
   <g id="patch_71">
    <path d="M 327.130085 312.12 
L 331.188267 312.12 
L 331.188267 310.668 
L 327.130085 310.668 
z
" clip-path="url(#pa0381a98cb)" style="fill: #4c72b0"/>
   </g>
   <g id="patch_72">
    <path d="M 331.188267 312.12 
L 335.246449 312.12 
L 335.246449 275.82 
L 331.188267 275.82 
z
" clip-path="url(#pa0381a98cb)" style="fill: #4c72b0"/>
   </g>
   <g id="patch_73">
    <path d="M 335.246449 312.12 
L 339.304631 312.12 
L 339.304631 301.956 
L 335.246449 301.956 
z
" clip-path="url(#pa0381a98cb)" style="fill: #4c72b0"/>
   </g>
   <g id="patch_74">
    <path d="M 339.304631 312.12 
L 343.362812 312.12 
L 343.362812 301.956 
L 339.304631 301.956 
z
" clip-path="url(#pa0381a98cb)" style="fill: #4c72b0"/>
   </g>
   <g id="patch_75">
    <path d="M 343.362812 312.12 
L 347.420994 312.12 
L 347.420994 312.12 
L 343.362812 312.12 
z
" clip-path="url(#pa0381a98cb)" style="fill: #4c72b0"/>
   </g>
   <g id="patch_76">
    <path d="M 347.420994 312.12 
L 351.479176 312.12 
L 351.479176 304.86 
L 347.420994 304.86 
z
" clip-path="url(#pa0381a98cb)" style="fill: #4c72b0"/>
   </g>
   <g id="patch_77">
    <path d="M 351.479176 312.12 
L 355.537358 312.12 
L 355.537358 312.12 
L 351.479176 312.12 
z
" clip-path="url(#pa0381a98cb)" style="fill: #4c72b0"/>
   </g>
   <g id="patch_78">
    <path d="M 355.537358 312.12 
L 359.59554 312.12 
L 359.59554 310.668 
L 355.537358 310.668 
z
" clip-path="url(#pa0381a98cb)" style="fill: #4c72b0"/>
   </g>
   <g id="patch_79">
    <path d="M 359.59554 312.12 
L 363.653722 312.12 
L 363.653722 301.956 
L 359.59554 301.956 
z
" clip-path="url(#pa0381a98cb)" style="fill: #4c72b0"/>
   </g>
   <g id="patch_80">
    <path d="M 363.653722 312.12 
L 367.711903 312.12 
L 367.711903 309.216 
L 363.653722 309.216 
z
" clip-path="url(#pa0381a98cb)" style="fill: #4c72b0"/>
   </g>
   <g id="patch_81">
    <path d="M 367.711903 312.12 
L 371.770085 312.12 
L 371.770085 309.216 
L 367.711903 309.216 
z
" clip-path="url(#pa0381a98cb)" style="fill: #4c72b0"/>
   </g>
   <g id="patch_82">
    <path d="M 371.770085 312.12 
L 375.828267 312.12 
L 375.828267 294.696 
L 371.770085 294.696 
z
" clip-path="url(#pa0381a98cb)" style="fill: #4c72b0"/>
   </g>
   <g id="patch_83">
    <path d="M 375.828267 312.12 
L 379.886449 312.12 
L 379.886449 267.108 
L 375.828267 267.108 
z
" clip-path="url(#pa0381a98cb)" style="fill: #4c72b0"/>
   </g>
   <g id="patch_84">
    <path d="M 379.886449 312.12 
L 383.944631 312.12 
L 383.944631 310.668 
L 379.886449 310.668 
z
" clip-path="url(#pa0381a98cb)" style="fill: #4c72b0"/>
   </g>
   <g id="patch_85">
    <path d="M 383.944631 312.12 
L 388.002812 312.12 
L 388.002812 306.312 
L 383.944631 306.312 
z
" clip-path="url(#pa0381a98cb)" style="fill: #4c72b0"/>
   </g>
   <g id="patch_86">
    <path d="M 388.002812 312.12 
L 392.060994 312.12 
L 392.060994 312.12 
L 388.002812 312.12 
z
" clip-path="url(#pa0381a98cb)" style="fill: #4c72b0"/>
   </g>
   <g id="patch_87">
    <path d="M 392.060994 312.12 
L 396.119176 312.12 
L 396.119176 312.12 
L 392.060994 312.12 
z
" clip-path="url(#pa0381a98cb)" style="fill: #4c72b0"/>
   </g>
   <g id="patch_88">
    <path d="M 396.119176 312.12 
L 400.177358 312.12 
L 400.177358 312.12 
L 396.119176 312.12 
z
" clip-path="url(#pa0381a98cb)" style="fill: #4c72b0"/>
   </g>
   <g id="patch_89">
    <path d="M 400.177358 312.12 
L 404.23554 312.12 
L 404.23554 312.12 
L 400.177358 312.12 
z
" clip-path="url(#pa0381a98cb)" style="fill: #4c72b0"/>
   </g>
   <g id="patch_90">
    <path d="M 404.23554 312.12 
L 408.293722 312.12 
L 408.293722 283.08 
L 404.23554 283.08 
z
" clip-path="url(#pa0381a98cb)" style="fill: #4c72b0"/>
   </g>
   <g id="patch_91">
    <path d="M 408.293722 312.12 
L 412.351903 312.12 
L 412.351903 306.312 
L 408.293722 306.312 
z
" clip-path="url(#pa0381a98cb)" style="fill: #4c72b0"/>
   </g>
   <g id="patch_92">
    <path d="M 412.351903 312.12 
L 416.410085 312.12 
L 416.410085 312.12 
L 412.351903 312.12 
z
" clip-path="url(#pa0381a98cb)" style="fill: #4c72b0"/>
   </g>
   <g id="patch_93">
    <path d="M 416.410085 312.12 
L 420.468267 312.12 
L 420.468267 306.312 
L 416.410085 306.312 
z
" clip-path="url(#pa0381a98cb)" style="fill: #4c72b0"/>
   </g>
   <g id="patch_94">
    <path d="M 420.468267 312.12 
L 424.526449 312.12 
L 424.526449 312.12 
L 420.468267 312.12 
z
" clip-path="url(#pa0381a98cb)" style="fill: #4c72b0"/>
   </g>
   <g id="patch_95">
    <path d="M 424.526449 312.12 
L 428.584631 312.12 
L 428.584631 310.668 
L 424.526449 310.668 
z
" clip-path="url(#pa0381a98cb)" style="fill: #4c72b0"/>
   </g>
   <g id="patch_96">
    <path d="M 428.584631 312.12 
L 432.642812 312.12 
L 432.642812 312.12 
L 428.584631 312.12 
z
" clip-path="url(#pa0381a98cb)" style="fill: #4c72b0"/>
   </g>
   <g id="patch_97">
    <path d="M 432.642812 312.12 
L 436.700994 312.12 
L 436.700994 307.764 
L 432.642812 307.764 
z
" clip-path="url(#pa0381a98cb)" style="fill: #4c72b0"/>
   </g>
   <g id="patch_98">
    <path d="M 436.700994 312.12 
L 440.759176 312.12 
L 440.759176 312.12 
L 436.700994 312.12 
z
" clip-path="url(#pa0381a98cb)" style="fill: #4c72b0"/>
   </g>
   <g id="patch_99">
    <path d="M 440.759176 312.12 
L 444.817358 312.12 
L 444.817358 312.12 
L 440.759176 312.12 
z
" clip-path="url(#pa0381a98cb)" style="fill: #4c72b0"/>
   </g>
   <g id="patch_100">
    <path d="M 444.817358 312.12 
L 448.87554 312.12 
L 448.87554 312.12 
L 444.817358 312.12 
z
" clip-path="url(#pa0381a98cb)" style="fill: #4c72b0"/>
   </g>
   <g id="patch_101">
    <path d="M 448.87554 312.12 
L 452.933722 312.12 
L 452.933722 303.408 
L 448.87554 303.408 
z
" clip-path="url(#pa0381a98cb)" style="fill: #4c72b0"/>
   </g>
   <g id="patch_102">
    <path d="M 452.933722 312.12 
L 456.991903 312.12 
L 456.991903 309.216 
L 452.933722 309.216 
z
" clip-path="url(#pa0381a98cb)" style="fill: #4c72b0"/>
   </g>
   <g id="patch_103">
    <path d="M 30.882812 312.12 
L 30.882812 7.2 
" style="fill: none"/>
   </g>
   <g id="patch_104">
    <path d="M 477.282812 312.12 
L 477.282812 7.2 
" style="fill: none"/>
   </g>
   <g id="patch_105">
    <path d="M 30.882812 312.12 
L 477.282813 312.12 
" style="fill: none"/>
   </g>
   <g id="patch_106">
    <path d="M 30.882812 7.2 
L 477.282813 7.2 
" style="fill: none"/>
   </g>
  </g>
 </g>
 <defs>
  <clipPath id="pa0381a98cb">
   <rect x="30.882812" y="7.2" width="446.4" height="304.92"/>
  </clipPath>
 </defs>
</svg>